<svg xmlns="http://www.w3.org/2000/svg" xmlns:xlink="http://www.w3.org/1999/xlink" width="45" zoomAndPan="magnify" viewBox="0 0 33.75 33.749998" height="45" preserveAspectRatio="xMidYMid meet" version="1.0"><path fill="#ff19a6" d="M 11.15625 4.1875 C 7.304688 4.1875 4.1875 7.304688 4.1875 11.15625 L 4.1875 22.3125 C 4.1875 26.164062 7.304688 29.28125 11.15625 29.28125 L 22.3125 29.28125 C 26.164062 29.28125 29.28125 26.164062 29.28125 22.3125 L 29.28125 11.15625 C 29.28125 7.304688 26.164062 4.1875 22.3125 4.1875 Z M 25.125 6.96875 C 25.898438 6.96875 26.535156 7.605469 26.535156 8.375 C 26.535156 9.144531 25.898438 9.78125 25.125 9.78125 C 24.355469 9.78125 23.71875 9.144531 23.71875 8.375 C 23.71875 7.605469 24.355469 6.96875 25.125 6.96875 Z M 16.75 9.78125 C 20.605469 9.78125 23.71875 12.898438 23.71875 16.75 C 23.71875 20.605469 20.605469 23.71875 16.75 23.71875 C 12.898438 23.71875 9.78125 20.605469 9.78125 16.75 C 9.78125 12.898438 12.898438 9.78125 16.75 9.78125 Z M 16.75 12.5625 C 14.4375 12.5625 12.5625 14.4375 12.5625 16.75 C 12.5625 19.0625 14.4375 20.9375 16.75 20.9375 C 19.0625 20.9375 20.9375 19.0625 20.9375 16.75 C 20.9375 14.4375 19.0625 12.5625 16.75 12.5625 Z M 16.75 12.5625 " fill-opacity="1" fill-rule="nonzero"/></svg>