<svg xmlns="http://www.w3.org/2000/svg" xmlns:xlink="http://www.w3.org/1999/xlink" width="45" zoomAndPan="magnify" viewBox="0 0 33.75 33.749998" height="45" preserveAspectRatio="xMidYMid meet" version="1.0"><path fill="#ffffff" d="M 17.253906 29.984375 C 17.6875 29.949219 18.125 29.917969 18.527344 29.851562 L 18.527344 20.269531 L 21.945312 20.269531 L 22.480469 16.785156 L 18.558594 16.785156 L 18.558594 14.875 C 18.558594 13.433594 19.027344 12.128906 20.402344 12.128906 L 22.582031 12.128906 L 22.582031 9.078125 C 22.210938 9.046875 21.375 8.910156 19.867188 8.910156 C 16.683594 8.910156 14.808594 10.585938 14.808594 14.4375 L 14.808594 16.75 L 11.523438 16.75 L 11.523438 20.234375 L 14.808594 20.234375 L 14.808594 29.816406 C 15.308594 29.882812 15.78125 29.949219 16.28125 29.984375 C 9.144531 29.75 3.484375 23.921875 3.484375 16.75 C 3.484375 9.414062 9.414062 3.484375 16.75 3.484375 C 24.085938 3.484375 30.019531 9.414062 30.019531 16.75 C 30.019531 23.921875 24.355469 29.714844 17.253906 29.984375 Z M 17.253906 29.984375 " fill-opacity="1" fill-rule="nonzero"/></svg>