<?xml version="1.0" encoding="UTF-8" standalone="no"?>
<!DOCTYPE svg PUBLIC "-//W3C//DTD SVG 1.1//EN" "http://www.w3.org/Graphics/SVG/1.1/DTD/svg11.dtd">
<svg xmlns="http://www.w3.org/2000/svg" version="1.1" viewBox="0.00 0.00 629.00 220.00">
<path fill="#6ab51c" d="
  M 0.00 115.99
  L 0.00 114.53
  Q 0.35 112.36 1.01 110.27
  Q 1.94 107.31 1.97 106.05
  Q 2.03 102.52 2.00 99.00
  Q 1.97 96.38 2.66 94.82
  Q 3.59 92.70 3.55 90.96
  C 3.45 86.57 6.00 81.45 8.24 77.01
  C 9.93 73.68 10.69 68.96 11.85 65.87
  Q 12.70 63.59 14.44 61.80
  Q 17.57 58.59 17.72 58.38
  C 19.83 55.56 20.63 52.26 22.06 49.73
  Q 22.90 48.24 25.17 46.42
  Q 29.47 42.98 33.07 36.87
  Q 34.25 34.85 38.51 32.78
  Q 42.12 31.02 44.78 28.31
  Q 47.79 25.24 48.39 24.84
  Q 50.95 23.17 54.09 22.34
  Q 56.68 21.66 58.09 20.62
  Q 58.25 20.50 61.52 17.77
  C 63.93 15.76 67.10 15.53 71.43 15.25
  C 73.34 15.12 75.21 14.37 76.72 13.32
  Q 81.59 9.90 86.35 10.36
  Q 89.79 10.70 90.81 10.40
  Q 96.89 8.63 102.53 10.42
  Q 104.43 11.02 106.77 10.93
  Q 111.78 10.75 117.03 13.24
  Q 117.68 13.54 119.09 13.69
  Q 119.54 13.73 119.31 13.35
  C 117.30 9.98 115.25 5.74 116.09 2.03
  A 2.29 2.28 -81.2 0 1 118.51 0.25
  Q 121.70 0.50 125.39 2.10
  Q 131.82 4.88 140.51 10.04
  C 161.00 22.20 181.61 41.73 183.93 66.59
  Q 184.28 70.35 183.66 72.21
  C 182.27 76.45 176.70 76.90 172.81 76.17
  Q 165.87 74.86 164.10 74.55
  Q 159.81 73.80 155.46 73.77
  Q 150.21 73.72 146.75 73.74
  C 112.98 73.92 75.91 89.43 59.13 120.37
  Q 47.71 141.42 52.84 165.77
  C 57.72 188.89 79.63 201.98 102.37 199.86
  Q 114.09 198.77 124.24 192.28
  Q 132.27 187.14 137.21 177.51
  Q 144.95 162.43 140.76 145.91
  Q 139.26 139.98 133.46 134.12
  Q 123.50 124.04 108.28 124.74
  C 93.28 125.42 78.55 134.27 78.06 150.28
  Q 77.82 158.20 84.13 163.53
  Q 91.33 169.61 100.74 169.61
  Q 106.61 169.61 111.70 165.19
  Q 117.15 160.45 116.14 153.50
  A 0.28 0.28 0.0 0 0 115.64 153.36
  C 113.83 155.61 111.52 157.47 108.54 156.98
  C 104.23 156.27 103.76 150.75 105.28 147.52
  Q 107.24 143.36 112.31 143.34
  Q 117.59 143.33 120.28 147.48
  Q 121.07 148.72 121.57 152.49
  Q 121.95 155.32 121.41 157.58
  Q 117.37 174.76 99.13 176.63
  Q 93.82 177.17 88.34 175.68
  C 74.74 171.98 66.60 161.11 66.26 146.78
  C 65.98 135.18 72.27 124.22 82.02 117.50
  C 94.77 108.71 112.65 108.32 126.60 113.77
  Q 136.11 117.48 143.22 124.59
  Q 155.13 136.49 156.94 154.53
  Q 157.79 163.01 155.80 171.69
  C 151.64 189.94 138.80 204.38 121.88 212.18
  Q 108.28 218.44 94.14 219.06
  Q 92.77 219.11 82.76 219.52
  Q 81.87 219.55 74.78 218.21
  Q 71.90 217.66 68.93 217.37
  Q 64.75 216.97 63.14 215.85
  Q 58.98 212.98 53.10 211.63
  Q 49.86 210.89 47.02 208.09
  Q 45.32 206.42 43.78 205.66
  Q 42.20 204.87 40.27 203.49
  Q 31.10 196.92 24.94 188.13
  Q 23.00 185.37 21.10 183.70
  Q 18.22 181.15 16.38 177.27
  Q 13.56 171.28 11.19 167.19
  Q 9.58 164.39 8.97 157.65
  A 1.95 1.92 26.2 0 0 8.65 156.73
  Q 6.27 153.18 5.84 151.16
  C 4.92 146.80 4.09 143.24 2.57 138.76
  Q 1.37 135.22 1.41 133.51
  Q 1.60 124.67 0.00 115.99
  Z
  M 159.15 48.11
  A 8.55 8.55 0.0 0 0 150.60 39.56
  A 8.55 8.55 0.0 0 0 142.05 48.11
  A 8.55 8.55 0.0 0 0 150.60 56.66
  A 8.55 8.55 0.0 0 0 159.15 48.11
  Z"
/>
<path fill="#6ab51c" d="
  M 153.31 48.03
  Q 153.46 49.12 154.69 49.56
  Q 155.24 49.76 155.74 49.47
  L 156.59 48.98
  Q 157.31 48.56 157.11 49.37
  Q 156.86 50.39 156.19 50.92
  C 153.52 53.02 149.53 52.47 149.00 48.62
  C 148.48 44.76 152.17 43.17 155.31 44.47
  Q 156.10 44.81 156.61 45.72
  Q 157.02 46.45 156.22 46.24
  L 155.27 45.99
  Q 154.71 45.85 154.23 46.19
  Q 153.17 46.94 153.31 48.03
  Z"
/>
<path fill="#1b1917" d="
  M 272.32 61.13
  A 1.76 1.76 0.0 0 0 273.47 63.76
  Q 276.24 64.32 277.00 64.51
  C 280.63 65.39 281.91 69.94 279.41 72.56
  Q 278.20 73.83 275.80 73.98
  Q 272.48 74.19 269.76 73.31
  Q 269.01 73.07 269.01 72.28
  L 269.01 70.43
  A 0.43 0.43 0.0 0 1 269.68 70.08
  Q 271.70 71.49 275.53 71.49
  Q 276.82 71.49 277.13 70.01
  L 277.24 69.52
  Q 277.67 67.47 275.54 67.21
  Q 269.01 66.42 268.93 62.37
  Q 268.89 59.71 270.91 58.41
  Q 272.99 57.07 275.79 57.37
  Q 277.00 57.50 279.46 58.29
  Q 279.84 58.41 279.84 58.81
  L 279.84 60.76
  A 0.47 0.47 0.0 0 1 279.17 61.19
  Q 277.01 60.22 276.28 60.06
  Q 273.37 59.39 272.32 61.13
  Z"
/>
<path fill="#1b1917" d="
  M 350.79 67.61
  L 348.60 67.61
  Q 348.11 67.61 348.11 67.12
  L 348.11 65.43
  A 0.36 0.36 0.0 0 1 348.47 65.07
  L 353.81 65.07
  Q 354.26 65.07 354.26 65.52
  L 354.26 71.76
  Q 354.26 72.33 353.75 72.59
  Q 351.41 73.80 350.54 73.90
  Q 339.81 75.15 340.11 64.85
  Q 340.19 62.00 342.04 59.82
  Q 343.56 58.04 346.46 57.52
  Q 350.13 56.86 353.41 58.74
  Q 353.96 59.06 353.96 59.69
  L 353.96 61.73
  Q 353.96 62.46 353.39 62.01
  Q 352.29 61.13 351.16 60.62
  C 347.42 58.93 343.86 60.29 343.30 64.51
  Q 342.80 68.34 345.00 70.63
  Q 345.34 70.99 345.83 71.09
  Q 348.54 71.69 350.87 71.15
  Q 351.38 71.03 351.38 70.52
  L 351.38 68.20
  Q 351.38 67.61 350.79 67.61
  Z"
/>
<path fill="#1b1917" d="
  M 440.63 65.70
  Q 440.62 67.13 440.95 68.03
  Q 442.71 72.93 447.80 70.95
  Q 449.38 70.34 450.39 69.57
  Q 450.82 69.24 450.82 69.79
  L 450.82 71.86
  Q 450.82 72.43 450.34 72.75
  Q 448.73 73.78 446.30 74.02
  Q 440.38 74.60 438.16 69.42
  Q 437.73 68.40 437.75 65.68
  Q 437.77 62.95 438.23 61.93
  Q 440.53 56.80 446.44 57.48
  Q 448.86 57.76 450.46 58.81
  Q 450.93 59.14 450.92 59.71
  L 450.89 61.78
  Q 450.88 62.33 450.45 61.99
  Q 449.46 61.21 447.89 60.57
  Q 442.83 58.51 440.99 63.38
  Q 440.64 64.27 440.63 65.70
  Z"
/>
<path fill="#1b1917" d="
  M 482.73 67.62
  L 480.63 67.62
  Q 480.12 67.62 480.12 67.11
  L 480.12 65.44
  Q 480.12 65.07 480.50 65.07
  L 485.98 65.07
  Q 486.63 65.07 486.63 65.72
  L 486.63 71.73
  Q 486.63 72.27 486.15 72.49
  Q 481.31 74.77 478.00 73.88
  Q 471.75 72.18 472.20 65.05
  Q 472.61 58.47 478.79 57.47
  Q 482.25 56.91 485.76 58.91
  A 0.35 0.33 15.9 0 1 485.93 59.20
  L 485.93 62.11
  A 0.17 0.17 0.0 0 1 485.66 62.24
  Q 483.01 60.32 482.02 60.13
  Q 476.26 59.01 475.33 64.56
  C 474.94 66.89 475.71 70.79 478.56 71.25
  Q 480.54 71.58 482.87 71.18
  Q 483.38 71.10 483.38 70.57
  L 483.38 68.27
  Q 483.38 67.62 482.73 67.62
  Z"
/>
<path fill="#1b1917" d="
  M 517.9676 67.1813
  A 6.78 6.78 0.0 0 1 511.2232 73.9967
  L 510.0033 74.0031
  A 6.78 6.78 0.0 0 1 503.1879 67.2587
  L 503.1724 64.2987
  A 6.78 6.78 0.0 0 1 509.9168 57.4833
  L 511.1367 57.4769
  A 6.78 6.78 0.0 0 1 517.9521 64.2213
  L 517.9676 67.1813
  Z
  M 510.5184 71.6097
  A 5.88 4.57 90.6 0 0 515.1497 65.7779
  A 5.88 4.57 90.6 0 0 510.6416 59.8503
  A 5.88 4.57 90.6 0 0 506.0103 65.6821
  A 5.88 4.57 90.6 0 0 510.5184 71.6097
  Z"
/>
<path fill="#1b1917" d="
  M 225.87 57.75
  Q 231.63 57.78 232.24 57.77
  A 0.55 0.55 0.0 0 1 232.80 58.32
  L 232.80 59.71
  A 0.57 0.57 0.0 0 1 232.23 60.28
  L 227.77 60.28
  Q 227.30 60.28 227.30 60.74
  L 227.23 73.23
  A 0.65 0.65 0.0 0 1 226.66 73.88
  Q 226.42 73.91 225.80 73.90
  Q 225.17 73.90 224.93 73.87
  A 0.65 0.65 0.0 0 1 224.37 73.22
  L 224.42 60.73
  Q 224.42 60.27 223.95 60.26
  L 219.49 60.22
  A 0.57 0.57 0.0 0 1 218.93 59.64
  L 218.94 58.25
  A 0.55 0.55 0.0 0 1 219.50 57.71
  Q 220.11 57.73 225.87 57.75
  Z"
/>
<path fill="#1b1917" d="
  M 240.25 64.07
  Q 242.46 64.08 243.01 64.04
  Q 243.50 64.01 243.50 63.51
  L 243.50 58.29
  Q 243.50 57.76 244.03 57.76
  L 246.01 57.76
  Q 246.52 57.76 246.52 58.28
  L 246.52 73.27
  Q 246.52 73.88 245.91 73.88
  L 244.09 73.88
  Q 243.49 73.88 243.49 73.29
  L 243.49 67.06
  A 0.42 0.41 89.9 0 0 243.07 66.64
  Q 241.71 66.63 240.24 66.63
  Q 238.77 66.63 237.41 66.63
  A 0.42 0.41 -89.8 0 0 236.99 67.05
  L 236.98 73.28
  Q 236.97 73.87 236.37 73.87
  L 234.55 73.86
  Q 233.94 73.86 233.95 73.25
  L 233.99 58.26
  Q 233.99 57.74 234.50 57.74
  L 236.48 57.75
  Q 237.01 57.75 237.01 58.28
  L 236.99 63.50
  Q 236.99 64.00 237.48 64.03
  Q 238.04 64.07 240.25 64.07
  Z"
/>
<path fill="#1b1917" d="
  M 252.98 64.10
  L 259.67 64.04
  A 0.37 0.37 0.0 0 1 260.04 64.45
  L 259.87 66.31
  A 0.37 0.37 0.0 0 1 259.50 66.65
  L 253.01 66.61
  A 0.37 0.37 0.0 0 0 252.64 66.98
  L 252.61 70.76
  A 0.37 0.37 0.0 0 0 252.98 71.13
  L 260.21 71.13
  A 0.37 0.37 0.0 0 1 260.58 71.50
  L 260.57 73.50
  A 0.37 0.37 0.0 0 1 260.20 73.87
  L 250.13 73.88
  A 0.37 0.37 0.0 0 1 249.76 73.51
  L 249.74 58.12
  A 0.37 0.37 0.0 0 1 250.11 57.75
  L 259.88 57.75
  A 0.37 0.37 0.0 0 1 260.25 58.12
  L 260.26 59.87
  A 0.37 0.37 0.0 0 1 259.89 60.24
  L 253.00 60.26
  A 0.37 0.37 0.0 0 0 252.63 60.63
  L 252.60 63.72
  A 0.37 0.37 0.0 0 0 252.98 64.10
  Z"
/>
<path fill="#1b1917" d="
  M 287.75 57.76
  Q 293.04 57.78 293.86 57.78
  Q 294.55 57.78 294.55 58.47
  L 294.55 59.62
  Q 294.55 60.28 293.89 60.28
  L 289.75 60.28
  Q 289.27 60.28 289.27 60.77
  L 289.27 73.22
  A 0.65 0.65 0.0 0 1 288.66 73.86
  Q 288.19 73.89 287.67 73.89
  Q 287.14 73.88 286.67 73.85
  A 0.65 0.65 0.0 0 1 286.07 73.20
  L 286.20 60.75
  Q 286.21 60.26 285.73 60.26
  L 281.59 60.21
  Q 280.93 60.21 280.93 59.55
  L 280.95 58.40
  Q 280.95 57.71 281.65 57.71
  Q 282.46 57.72 287.75 57.76
  Z"
/>
<path fill="#1b1917" d="
  M 299.76 57.73
  Q 300.64 57.73 300.98 57.87
  Q 301.44 58.05 301.61 58.51
  L 307.14 73.14
  Q 307.42 73.89 306.62 73.89
  L 304.99 73.89
  Q 304.27 73.89 304.03 73.21
  L 303.06 70.45
  Q 302.88 69.92 302.23 69.90
  Q 301.89 69.88 299.74 69.88
  Q 297.60 69.88 297.26 69.89
  Q 296.61 69.91 296.42 70.44
  L 295.45 73.20
  Q 295.21 73.88 294.49 73.88
  L 292.86 73.87
  Q 292.06 73.87 292.34 73.12
  L 297.90 58.51
  Q 298.07 58.05 298.53 57.86
  Q 298.88 57.73 299.76 57.73
  Z
  M 299.75 67.38
  Q 301.02 67.35 301.25 67.34
  Q 301.86 67.31 301.72 66.90
  Q 300.88 64.42 299.74 62.01
  Q 299.69 61.90 299.63 61.90
  Q 299.58 61.90 299.53 62.02
  Q 298.50 64.47 297.77 66.99
  Q 297.65 67.40 298.26 67.40
  Q 298.49 67.40 299.75 67.38
  Z"
/>
<path fill="#1b1917" d="
  M 317.60 66.53
  L 321.60 73.46
  Q 321.84 73.87 321.36 73.87
  L 318.64 73.87
  Q 318.40 73.87 318.29 73.67
  Q 317.23 71.73 316.26 69.66
  C 315.28 67.57 314.19 67.53 312.22 67.24
  Q 311.62 67.15 311.62 67.75
  L 311.62 73.14
  A 0.74 0.74 0.0 0 1 310.88 73.88
  L 309.22 73.88
  A 0.85 0.85 0.0 0 1 308.37 73.03
  L 308.37 58.45
  Q 308.37 57.92 308.90 57.89
  Q 314.35 57.59 315.79 57.91
  Q 319.47 58.71 319.25 62.78
  Q 319.13 65.03 317.77 65.84
  Q 317.35 66.10 317.60 66.53
  Z
  M 311.62 60.66
  L 311.62 64.34
  A 0.41 0.41 0.0 0 0 312.03 64.75
  L 313.00 64.75
  A 3.12 1.97 -0.1 0 0 316.12 62.78
  L 316.12 62.22
  A 3.12 1.97 -0.1 0 0 313.00 60.25
  L 312.03 60.25
  A 0.41 0.41 0.0 0 0 311.62 60.66
  Z"
/>
<path fill="#1b1917" d="
  M 326.38 71.14
  L 333.11 71.13
  A 0.47 0.47 0.0 0 1 333.58 71.60
  L 333.56 73.42
  A 0.47 0.47 0.0 0 1 333.09 73.89
  L 323.60 73.86
  A 0.47 0.47 0.0 0 1 323.13 73.39
  L 323.11 58.25
  A 0.47 0.47 0.0 0 1 323.56 57.78
  L 325.45 57.71
  A 0.47 0.47 0.0 0 1 325.94 58.18
  L 325.91 70.67
  A 0.47 0.47 0.0 0 0 326.38 71.14
  Z"
/>
<rect fill="#1b1917" x="335.07" y="57.75" width="2.80" height="16.12" rx="0.37"/>
<path fill="#1b1917" d="
  M 363.55 64.08
  Q 366.19 64.07 366.46 64.06
  Q 366.96 64.02 366.96 63.52
  L 366.96 58.26
  Q 366.96 57.75 367.48 57.75
  L 369.41 57.75
  Q 369.93 57.75 369.93 58.26
  L 369.93 73.21
  Q 369.93 73.88 369.26 73.88
  L 367.54 73.88
  Q 366.97 73.88 366.97 73.30
  L 366.97 67.31
  Q 366.97 66.77 366.43 66.70
  Q 365.88 66.62 363.55 66.62
  Q 361.23 66.63 360.68 66.70
  Q 360.14 66.78 360.14 67.32
  L 360.15 73.31
  Q 360.15 73.89 359.58 73.89
  L 357.86 73.89
  Q 357.19 73.89 357.19 73.22
  L 357.16 58.27
  Q 357.16 57.76 357.68 57.76
  L 359.61 57.76
  Q 360.13 57.76 360.13 58.27
  L 360.14 63.53
  Q 360.14 64.03 360.64 64.06
  Q 360.91 64.08 363.55 64.08
  Z"
/>
<path fill="#1b1917" d="
  M 377.87 57.75
  Q 383.41 57.78 384.13 57.78
  Q 384.80 57.78 384.80 58.45
  L 384.80 59.73
  Q 384.80 60.28 384.26 60.28
  L 379.76 60.28
  Q 379.26 60.28 379.26 60.77
  L 379.26 73.19
  Q 379.26 73.72 378.75 73.86
  Q 378.57 73.91 377.79 73.90
  Q 377.02 73.90 376.84 73.85
  Q 376.33 73.71 376.33 73.18
  L 376.45 60.76
  Q 376.46 60.27 375.96 60.26
  L 371.46 60.22
  Q 370.92 60.21 370.92 59.66
  L 370.93 58.38
  Q 370.94 57.71 371.61 57.72
  Q 372.33 57.73 377.87 57.75
  Z"
/>
<path fill="#1b1917" d="
  M 392.74 58.11
  A 0.36 0.36 0.0 0 1 393.10 57.75
  L 399.03 57.74
  A 7.21 6.73 -0.1 0 1 406.25 64.46
  L 406.25 67.08
  A 7.21 6.73 -0.1 0 1 399.05 73.82
  L 393.12 73.83
  A 0.36 0.36 0.0 0 1 392.76 73.47
  L 392.74 58.11
  Z
  M 395.62 60.65
  L 395.62 70.81
  A 0.34 0.34 0.0 0 0 395.96 71.15
  L 398.71 71.15
  A 4.43 4.19 0.0 0 0 403.14 66.96
  L 403.14 64.50
  A 4.43 4.19 -0.0 0 0 398.71 60.31
  L 395.96 60.31
  A 0.34 0.34 0.0 0 0 395.62 60.65
  Z"
/>
<path fill="#1b1917" d="
  M 413.96 57.73
  Q 414.47 57.73 415.01 57.81
  Q 415.59 57.89 415.79 58.43
  L 421.34 73.12
  Q 421.63 73.88 420.81 73.88
  L 419.02 73.88
  A 0.88 0.87 -4.6 0 1 418.15 73.15
  Q 417.93 71.79 417.09 70.24
  Q 416.88 69.85 416.44 69.86
  Q 415.11 69.88 413.96 69.88
  Q 412.81 69.88 411.48 69.86
  Q 411.04 69.85 410.83 70.24
  Q 409.98 71.79 409.76 73.15
  A 0.88 0.87 4.6 0 1 408.89 73.88
  L 407.10 73.87
  Q 406.28 73.87 406.57 73.11
  L 412.13 58.43
  Q 412.34 57.89 412.91 57.81
  Q 413.45 57.73 413.96 57.73
  Z
  M 411.95 66.91
  A 0.35 0.35 0.0 0 0 412.28 67.38
  L 415.62 67.37
  A 0.35 0.35 0.0 0 0 415.95 66.90
  L 414.27 62.32
  A 0.35 0.35 0.0 0 0 413.62 62.33
  L 411.95 66.91
  Z"
/>
<path fill="#1b1917" d="
  M 430.27 65.24
  Q 431.01 66.68 432.08 68.37
  Q 432.39 68.85 432.39 68.28
  L 432.39 58.45
  Q 432.39 57.72 433.12 57.72
  L 434.51 57.72
  Q 435.26 57.72 435.26 58.47
  L 435.26 73.30
  A 0.57 0.57 0.0 0 1 434.68 73.87
  L 431.99 73.84
  A 1.06 0.36 62.8 0 1 431.34 73.21
  Q 430.77 72.26 427.73 66.34
  Q 427.00 64.90 425.93 63.21
  Q 425.62 62.73 425.62 63.30
  L 425.62 73.13
  Q 425.62 73.86 424.89 73.86
  L 423.50 73.86
  Q 422.75 73.86 422.75 73.11
  L 422.75 58.28
  A 0.57 0.57 0.0 0 1 423.33 57.71
  L 426.02 57.74
  A 1.06 0.36 62.8 0 1 426.67 58.38
  Q 427.24 59.32 430.27 65.24
  Z"
/>
<path fill="#1b1917" d="
  M 455.90 66.97
  L 455.93 70.76
  A 0.36 0.36 0.0 0 0 456.29 71.12
  L 463.50 71.14
  A 0.36 0.36 0.0 0 1 463.85 71.50
  L 463.83 73.51
  A 0.36 0.36 0.0 0 1 463.46 73.87
  L 453.49 73.86
  A 0.36 0.36 0.0 0 1 453.13 73.50
  L 453.11 58.11
  A 0.36 0.36 0.0 0 1 453.47 57.75
  L 463.52 57.76
  A 0.36 0.36 0.0 0 1 463.88 58.12
  L 463.87 59.87
  A 0.36 0.36 0.0 0 1 463.51 60.23
  L 456.26 60.27
  A 0.36 0.36 0.0 0 0 455.90 60.63
  L 455.94 63.73
  A 0.36 0.36 0.0 0 0 456.30 64.09
  L 462.93 64.05
  A 0.36 0.36 0.0 0 1 463.29 64.43
  L 463.20 66.29
  A 0.36 0.36 0.0 0 1 462.84 66.63
  L 456.26 66.61
  A 0.36 0.36 0.0 0 0 455.90 66.97
  Z"
/>
<path fill="#1b1917" d="
  M 498.63 66.81
  L 502.44 73.41
  Q 502.71 73.87 502.18 73.87
  L 499.87 73.87
  A 0.94 0.94 0.0 0 1 499.03 73.35
  Q 498.20 71.72 497.18 69.80
  C 496.03 67.66 494.96 67.45 492.92 67.19
  Q 492.26 67.11 492.26 67.78
  L 492.26 73.20
  Q 492.26 73.88 491.58 73.88
  L 490.01 73.88
  Q 489.37 73.88 489.37 73.24
  L 489.37 58.46
  Q 489.37 57.95 489.87 57.88
  Q 491.40 57.67 493.28 57.71
  Q 496.23 57.76 496.69 57.84
  Q 498.94 58.22 499.72 60.45
  Q 500.83 63.61 498.77 65.71
  Q 498.28 66.21 498.63 66.81
  Z
  M 492.25 60.72
  L 492.23 64.26
  A 0.50 0.50 0.0 0 0 492.72 64.77
  L 493.29 64.77
  A 3.73 2.12 0.4 0 0 497.04 62.68
  L 497.04 62.38
  A 3.73 2.12 0.4 0 0 493.33 60.23
  L 492.76 60.23
  A 0.50 0.50 0.0 0 0 492.25 60.72
  Z"
/>
<path fill="#1b1917" d="
  M 526.55 71.64
  Q 529.86 71.64 529.94 67.49
  Q 530.02 62.71 529.97 58.23
  Q 529.96 57.76 530.42 57.76
  L 532.51 57.76
  A 0.42 0.42 0.0 0 1 532.93 58.17
  Q 533.00 63.27 532.88 68.37
  Q 532.81 71.71 530.08 73.42
  C 528.97 74.12 528.17 73.94 526.55 73.94
  C 524.94 73.93 524.14 74.12 523.02 73.42
  Q 520.30 71.70 520.24 68.36
  Q 520.13 63.26 520.21 58.16
  A 0.42 0.42 0.0 0 1 520.63 57.75
  L 522.72 57.75
  Q 523.18 57.75 523.17 58.22
  Q 523.11 62.70 523.18 67.48
  Q 523.25 71.64 526.55 71.64
  Z"
/>
<path fill="#1b1917" d="
  M 538.86 68.53
  L 538.86 73.50
  Q 538.86 73.88 538.47 73.88
  L 536.45 73.88
  A 0.38 0.38 0.0 0 1 536.07 73.50
  L 536.07 58.28
  Q 536.07 57.77 536.58 57.76
  Q 540.44 57.65 542.67 57.88
  Q 545.87 58.22 546.45 61.30
  Q 547.47 66.65 542.47 67.59
  Q 541.73 67.73 539.34 68.00
  Q 538.86 68.05 538.86 68.53
  Z
  M 538.86 64.32
  A 0.94 0.94 0.0 0 0 540.01 65.24
  L 542.44 64.70
  A 0.94 0.94 0.0 0 0 543.17 63.83
  L 543.27 61.66
  A 0.94 0.94 0.0 0 0 542.55 60.70
  L 540.03 60.12
  A 0.94 0.94 0.0 0 0 538.88 61.04
  L 538.86 64.32
  Z"
/>
<path fill="#6ab51c" d="
  M 552.27 118.14
  A 28.08 28.08 0.0 0 1 524.19 146.22
  A 28.08 28.08 0.0 0 1 496.11 118.14
  A 28.08 28.08 0.0 0 1 524.19 90.06
  A 28.08 28.08 0.0 0 1 552.27 118.14
  Z
  M 544.36 118.15
  A 20.17 20.17 0.0 0 0 524.19 97.98
  A 20.17 20.17 0.0 0 0 504.02 118.15
  A 20.17 20.17 0.0 0 0 524.19 138.32
  A 20.17 20.17 0.0 0 0 544.36 118.15
  Z"
/>
<path fill="#6ab51c" d="
  M 171.75 118.25
  C 171.82 133.51 188.29 143.32 201.67 135.72
  Q 204.26 134.25 205.24 134.07
  Q 209.28 133.31 211.25 135.84
  A 2.19 2.19 0.0 0 1 210.98 138.82
  C 201.38 147.36 187.84 148.59 176.98 141.94
  Q 167.38 136.07 164.42 123.79
  C 163.97 121.94 164.01 120.24 164.00 118.29
  C 163.99 116.34 163.94 114.64 164.36 112.78
  Q 167.20 100.48 176.74 94.51
  C 187.54 87.76 201.09 88.85 210.77 97.30
  A 2.19 2.19 0.0 0 1 211.07 100.27
  Q 209.13 102.82 205.08 102.10
  Q 204.10 101.93 201.50 100.49
  C 188.04 93.02 171.67 102.99 171.75 118.25
  Z"
/>
<path fill="#6ab51c" d="
  M 239.12 114.05
  Q 249.53 114.05 252.27 113.95
  A 0.50 0.50 0.0 0 0 252.75 113.45
  L 252.75 92.58
  A 1.92 1.91 -4.6 0 1 254.36 90.69
  Q 256.92 90.27 258.99 90.77
  A 1.94 1.94 0.0 0 1 260.47 92.64
  Q 260.50 96.11 260.50 117.93
  Q 260.50 139.74 260.47 143.22
  A 1.94 1.94 0.0 0 1 258.99 145.09
  Q 256.92 145.59 254.36 145.17
  A 1.92 1.91 4.6 0 1 252.75 143.28
  L 252.75 122.41
  A 0.50 0.50 0.0 0 0 252.27 121.91
  Q 249.53 121.81 239.13 121.81
  Q 228.72 121.81 225.98 121.91
  A 0.50 0.50 0.0 0 0 225.50 122.41
  L 225.50 143.28
  A 1.92 1.91 -4.6 0 1 223.89 145.17
  Q 221.33 145.59 219.26 145.09
  A 1.94 1.94 0.0 0 1 217.78 143.22
  Q 217.75 139.75 217.75 117.93
  Q 217.75 96.12 217.78 92.64
  A 1.94 1.94 0.0 0 1 219.26 90.77
  Q 221.33 90.27 223.89 90.69
  A 1.92 1.91 4.6 0 1 225.50 92.58
  L 225.50 113.45
  A 0.50 0.50 0.0 0 0 225.98 113.95
  Q 228.72 114.06 239.12 114.05
  Z"
/>
<path fill="#6ab51c" d="
  M 288.40 90.73
  C 290.58 90.73 291.70 91.34 292.62 93.42
  Q 302.39 115.60 313.80 141.99
  Q 315.31 145.48 311.51 145.48
  L 310.79 145.48
  Q 306.87 145.48 305.26 141.90
  L 301.69 133.90
  Q 301.45 133.39 300.89 133.34
  Q 299.59 133.25 288.40 133.25
  Q 277.20 133.25 275.91 133.35
  Q 275.35 133.39 275.11 133.90
  L 271.54 141.90
  Q 269.93 145.48 266.01 145.48
  L 265.29 145.48
  Q 261.49 145.48 263.00 141.99
  Q 274.40 115.60 284.18 93.42
  C 285.09 91.34 286.22 90.73 288.40 90.73
  Z
  M 279.04 124.93
  A 0.40 0.40 0.0 0 0 279.40 125.49
  L 297.37 125.52
  A 0.40 0.40 0.0 0 0 297.74 124.96
  L 288.79 103.60
  A 0.40 0.40 0.0 0 0 288.06 103.60
  L 279.04 124.93
  Z"
/>
<path fill="#6ab51c" d="
  M 364.39 109.01
  Q 357.64 123.91 349.06 143.58
  Q 348.72 144.37 347.47 145.08
  C 346.21 145.80 343.38 145.58 342.26 145.38
  Q 340.41 145.04 339.68 143.43
  Q 330.02 122.15 324.87 109.88
  Q 324.00 107.81 324.00 110.05
  L 324.00 142.75
  Q 324.00 145.51 321.24 145.51
  L 318.73 145.51
  Q 316.23 145.51 316.23 143.00
  L 316.23 93.74
  A 2.92 2.92 0.0 0 1 318.53 90.89
  Q 324.45 89.62 327.07 95.50
  Q 333.06 108.91 344.04 133.92
  A 0.35 0.34 44.8 0 0 344.67 133.92
  Q 351.39 118.51 359.96 99.19
  Q 362.12 94.34 363.05 93.18
  Q 365.54 90.07 370.13 90.89
  A 2.89 2.89 0.0 0 1 372.50 93.73
  L 372.50 142.90
  Q 372.50 145.53 369.87 145.53
  L 367.42 145.53
  Q 364.76 145.53 364.76 142.87
  L 364.76 109.08
  Q 364.76 108.20 364.39 109.01
  Z"
/>
<path fill="#6ab51c" d="
  M 410.77 118.12
  C 410.77 119.69 410.88 120.52 409.62 121.41
  Q 408.74 122.02 406.73 122.01
  Q 397.50 121.95 389.99 122.03
  Q 389.50 122.04 389.50 122.53
  L 389.50 137.24
  Q 389.50 137.74 390.00 137.74
  L 413.50 137.74
  Q 415.77 137.74 415.77 140.01
  L 415.77 143.11
  Q 415.77 145.49 413.39 145.49
  L 384.23 145.49
  A 2.44 2.44 0.0 0 1 381.79 143.09
  Q 381.75 140.20 381.75 118.11
  Q 381.75 96.02 381.80 93.14
  A 2.44 2.44 0.0 0 1 384.24 90.74
  L 413.40 90.75
  Q 415.78 90.75 415.78 93.13
  L 415.78 96.23
  Q 415.78 98.50 413.51 98.50
  L 390.01 98.49
  Q 389.51 98.49 389.51 98.99
  L 389.50 113.70
  Q 389.50 114.19 389.99 114.20
  Q 397.50 114.28 406.73 114.22
  Q 408.74 114.21 409.62 114.83
  C 410.88 115.72 410.77 116.54 410.77 118.12
  Z"
/>
<path fill="#6ab51c" d="
  M 430.48 137.74
  L 450.39 137.74
  Q 453.82 137.74 453.82 141.18
  L 453.82 142.23
  Q 453.82 145.50 450.55 145.50
  L 425.27 145.50
  A 2.76 2.76 0.0 0 1 422.51 142.74
  L 422.48 94.49
  Q 422.48 90.41 426.34 90.74
  Q 426.46 90.75 426.58 90.75
  Q 430.27 90.50 430.27 94.50
  L 430.24 137.50
  A 0.24 0.24 0.0 0 0 430.48 137.74
  Z"
/>
<path fill="#6ab51c" d="
  M 487.25 118.11
  Q 487.25 119.53 487.13 120.34
  A 1.92 1.91 -85.9 0 1 485.24 121.99
  L 466.25 121.99
  A 0.25 0.25 0.0 0 0 466.00 122.24
  L 466.00 137.24
  Q 466.00 137.74 466.50 137.74
  L 490.00 137.74
  Q 492.26 137.74 492.26 140.00
  L 492.26 143.24
  Q 492.26 145.49 490.02 145.49
  L 460.51 145.49
  A 2.26 2.26 0.0 0 1 458.25 143.23
  Q 458.24 130.43 458.24 118.11
  Q 458.23 105.80 458.24 92.99
  A 2.26 2.26 0.0 0 1 460.50 90.74
  L 490.01 90.73
  Q 492.25 90.73 492.25 92.98
  L 492.25 96.22
  Q 492.25 98.48 489.99 98.48
  L 466.49 98.49
  Q 465.99 98.49 465.99 98.99
  L 466.00 113.99
  A 0.25 0.25 0.0 0 0 466.25 114.24
  L 485.24 114.23
  A 1.92 1.91 85.9 0 1 487.13 115.88
  Q 487.25 116.69 487.25 118.11
  Z"
/>
<path fill="#6ab51c" d="
  M 566.75 104.32
  Q 566.25 103.61 566.25 104.47
  L 566.25 143.26
  Q 566.25 145.51 564.00 145.51
  L 560.75 145.51
  Q 558.50 145.51 558.50 143.26
  L 558.50 92.83
  A 2.04 2.03 87.7 0 1 560.37 90.80
  C 563.55 90.54 566.74 90.49 568.82 93.44
  Q 583.28 113.98 594.37 130.15
  Q 595.00 131.07 595.00 129.96
  L 595.00 92.99
  Q 595.00 90.73 597.26 90.73
  L 600.51 90.73
  Q 602.76 90.73 602.76 92.99
  L 602.76 143.48
  A 1.92 1.92 0.0 0 1 601.16 145.37
  Q 598.94 145.75 596.41 145.36
  Q 595.47 145.21 594.56 143.95
  Q 589.46 136.81 566.75 104.32
  Z"
/>
<path fill="#1b1917" d="
  M 255.99 171.97
  L 253.97 171.97
  A 0.53 0.53 0.0 0 1 253.44 171.44
  L 253.44 170.98
  Q 253.44 170.00 254.42 170.00
  L 256.03 170.00
  Q 256.56 170.00 256.56 169.47
  L 256.56 165.26
  Q 256.56 164.00 257.83 164.00
  L 258.18 164.00
  Q 258.81 164.00 258.81 164.63
  L 258.81 169.53
  Q 258.81 170.00 259.28 170.00
  L 263.39 170.00
  A 0.61 0.61 0.0 0 1 264.00 170.61
  L 264.00 171.37
  Q 264.00 171.99 263.38 171.99
  L 259.28 171.99
  Q 258.81 171.99 258.81 172.46
  L 258.81 183.20
  A 1.77 1.77 0.0 0 0 260.52 184.97
  Q 262.69 185.06 262.71 185.06
  Q 265.19 185.41 263.06 186.48
  Q 260.22 187.91 257.79 185.94
  Q 256.44 184.84 256.53 181.90
  Q 256.53 181.69 256.57 172.56
  Q 256.57 171.97 255.99 171.97
  Z"
/>
<path fill="#1b1917" d="
  M 208.44 178.50
  Q 208.44 180.72 209.47 182.06
  Q 213.00 186.63 218.74 184.17
  Q 219.99 183.64 221.00 184.59
  Q 221.38 184.94 220.94 185.20
  Q 215.64 188.36 211.31 186.15
  Q 206.18 183.54 206.18 178.50
  Q 206.18 173.46 211.30 170.85
  Q 215.63 168.64 220.93 171.79
  Q 221.37 172.05 220.99 172.40
  Q 219.99 173.35 218.74 172.82
  Q 212.99 170.37 209.47 174.94
  Q 208.44 176.28 208.44 178.50
  Z"
/>
<path fill="#1b1917" d="
  M 240.0999 178.5313
  A 8.98 8.51 0.2 0 1 231.0903 187.0099
  A 8.98 8.51 0.2 0 1 222.1401 178.4687
  A 8.98 8.51 0.2 0 1 231.1497 169.9901
  A 8.98 8.51 0.2 0 1 240.0999 178.5313
  Z
  M 237.8499 178.5353
  A 6.75 6.53 0.3 0 0 231.1342 171.9701
  A 6.75 6.53 0.3 0 0 224.3501 178.4647
  A 6.75 6.53 0.3 0 0 231.0658 185.0299
  A 6.75 6.53 0.3 0 0 237.8499 178.5353
  Z"
/>
<path fill="#1b1917" d="
  M 244.53 172.69
  A 1.98 1.97 -53.3 0 0 245.01 175.99
  Q 245.70 176.30 248.96 177.56
  C 251.93 178.71 253.41 181.48 251.60 184.34
  C 249.50 187.65 243.95 188.09 241.46 184.73
  A 0.41 0.41 0.0 0 1 241.71 184.09
  C 243.70 183.72 244.85 185.17 246.50 185.10
  C 249.90 184.96 251.92 180.79 247.87 179.35
  C 245.98 178.67 243.73 178.11 242.61 176.89
  C 240.38 174.46 241.79 171.38 244.67 170.31
  Q 247.83 169.14 250.90 171.90
  Q 251.59 172.52 250.72 172.83
  Q 249.53 173.27 248.61 172.69
  C 247.19 171.80 245.76 171.63 244.53 172.69
  Z"
/>
<path fill="#1b1917" d="
  M 278.77 184.91
  Q 275.17 187.90 271.42 186.78
  Q 267.31 185.55 267.03 180.29
  Q 266.79 175.87 266.96 170.47
  Q 266.97 170.00 267.44 170.00
  L 268.72 170.00
  Q 269.23 170.00 269.23 170.51
  L 269.23 180.84
  Q 269.23 185.26 273.64 184.88
  L 274.91 184.77
  Q 279.08 184.40 279.08 180.21
  L 279.08 170.26
  Q 279.08 170.02 279.32 170.02
  L 281.04 170.02
  Q 281.34 170.02 281.34 170.31
  L 281.34 186.45
  Q 281.34 186.97 280.82 186.97
  L 279.70 186.97
  Q 279.14 186.97 279.05 186.42
  Q 278.95 185.85 279.14 185.15
  Q 279.34 184.43 278.77 184.91
  Z"
/>
<path fill="#1b1917" d="
  M 289.06 171.79
  C 289.32 171.53 289.44 171.33 289.70 171.16
  Q 293.89 168.42 297.29 171.63
  Q 297.64 171.97 297.82 172.42
  Q 297.91 172.65 298.06 172.77
  Q 298.33 172.98 298.54 172.71
  Q 301.78 168.62 306.32 170.41
  Q 309.55 171.68 309.73 176.09
  Q 309.90 180.21 309.81 186.47
  Q 309.80 186.99 309.28 186.99
  L 308.02 186.99
  Q 307.56 186.99 307.55 186.52
  L 307.46 175.94
  Q 307.43 172.06 303.41 172.07
  Q 303.33 172.07 303.25 172.07
  Q 299.19 172.37 299.19 176.00
  L 299.20 186.53
  A 0.46 0.45 -0.0 0 1 298.74 186.98
  L 297.50 186.98
  Q 297.01 186.98 297.00 186.49
  L 296.77 175.75
  Q 296.69 171.83 292.81 172.08
  Q 292.73 172.08 292.49 172.10
  Q 288.65 172.39 288.65 176.24
  L 288.65 186.53
  Q 288.65 186.95 288.23 186.95
  L 286.96 186.95
  Q 286.45 186.95 286.45 186.45
  L 286.45 170.53
  Q 286.45 170.03 286.96 170.03
  L 287.96 170.03
  A 0.67 0.66 -4.0 0 1 288.62 170.60
  Q 288.70 171.21 288.61 171.56
  Q 288.35 172.50 289.06 171.79
  Z"
/>
<path fill="#1b1917" d="
  M 315.14 179.13
  Q 314.07 179.22 314.46 180.22
  C 315.95 184.01 319.77 186.14 323.73 184.55
  Q 325.30 183.91 326.26 183.97
  Q 328.80 184.13 326.48 185.46
  Q 321.13 188.51 316.44 185.71
  C 307.62 180.46 313.53 168.66 322.58 170.10
  Q 327.44 170.87 329.48 175.62
  Q 329.88 176.56 329.72 177.45
  C 329.48 178.81 328.27 179.09 327.02 179.05
  Q 319.04 178.82 315.14 179.13
  Z
  M 314.87 177.03
  L 327.37 176.97
  A 0.03 0.03 0.0 0 0 327.40 176.94
  L 327.40 176.87
  A 6.16 4.80 -0.3 0 0 321.22 172.10
  L 320.98 172.10
  A 6.16 4.80 -0.3 0 0 314.84 176.93
  L 314.84 177.00
  A 0.03 0.03 0.0 0 0 314.87 177.03
  Z"
/>
<path fill="#1b1917" d="
  M 357.10 171.81
  Q 360.27 169.48 363.75 170.10
  C 372.44 171.66 373.51 183.91 364.83 186.64
  Q 360.57 187.97 357.12 185.09
  Q 356.66 184.69 356.66 185.31
  L 356.66 192.54
  Q 356.66 192.97 356.22 192.97
  L 354.96 192.97
  Q 354.45 192.97 354.45 192.46
  L 354.45 170.54
  Q 354.45 170.03 354.96 170.03
  L 356.00 170.03
  Q 356.61 170.03 356.67 170.63
  Q 356.72 171.13 356.64 171.51
  Q 356.46 172.28 357.10 171.81
  Z
  M 364.59 184.54
  Q 368.73 182.90 368.55 178.20
  Q 368.35 173.23 363.24 172.03
  Q 360.54 171.40 357.10 173.94
  Q 356.65 174.27 356.65 174.82
  L 356.65 181.48
  Q 356.65 182.01 357.01 182.41
  Q 360.48 186.17 364.59 184.54
  Z"
/>
<path fill="#1b1917" d="
  M 375.25 172.13
  Q 378.35 169.35 382.44 170.12
  A 0.47 0.47 0.0 0 1 382.78 170.78
  L 382.43 171.55
  Q 382.22 172.01 381.72 171.98
  Q 377.63 171.67 375.13 174.88
  Q 374.82 175.28 374.82 175.79
  L 374.82 186.44
  Q 374.82 186.99 374.27 186.99
  L 373.01 186.99
  Q 372.54 186.99 372.54 186.52
  L 372.54 170.48
  Q 372.54 170.01 373.01 170.01
  L 374.01 170.01
  Q 374.63 170.01 374.76 170.62
  Q 374.89 171.24 374.76 171.85
  Q 374.58 172.73 375.25 172.13
  Z"
/>
<path fill="#1b1917" d="
  M 402.0999 178.5313
  A 8.98 8.51 0.2 0 1 393.0903 187.0099
  A 8.98 8.51 0.2 0 1 384.1401 178.4687
  A 8.98 8.51 0.2 0 1 393.1497 169.9901
  A 8.98 8.51 0.2 0 1 402.0999 178.5313
  Z
  M 399.8500 178.5118
  A 6.75 6.54 0.1 0 0 393.1114 171.9600
  A 6.75 6.54 0.1 0 0 386.3500 178.4882
  A 6.75 6.54 0.1 0 0 393.0886 185.0400
  A 6.75 6.54 0.1 0 0 399.8500 178.5118
  Z"
/>
<path fill="#1b1917" d="
  M 408.07 171.85
  Q 412.02 168.96 416.32 170.51
  C 423.73 173.20 423.61 183.76 416.26 186.49
  Q 411.86 188.13 408.06 185.07
  Q 407.66 184.74 407.66 185.26
  L 407.66 192.54
  A 0.44 0.44 0.0 0 1 407.22 192.98
  L 405.96 192.98
  Q 405.45 192.98 405.45 192.47
  L 405.45 170.54
  Q 405.45 170.03 405.96 170.03
  L 407.01 170.03
  Q 407.60 170.03 407.66 170.62
  Q 407.74 171.31 407.60 171.70
  Q 407.35 172.37 408.07 171.85
  Z
  M 415.56 184.54
  Q 419.78 182.87 419.55 178.46
  Q 419.21 171.86 412.24 171.99
  Q 410.66 172.02 408.06 174.01
  Q 407.65 174.33 407.65 174.85
  L 407.65 181.48
  Q 407.65 182.01 408.01 182.40
  Q 411.46 186.16 415.56 184.54
  Z"
/>
<path fill="#1b1917" d="
  M 425.87 174.02
  A 2.02 2.02 0.0 0 0 427.25 176.13
  C 430.08 177.06 435.33 178.67 434.28 182.74
  C 433.08 187.34 426.33 188.68 423.53 184.78
  Q 423.19 184.30 423.75 184.13
  C 425.46 183.60 426.60 184.95 427.76 185.03
  Q 430.39 185.22 431.71 183.31
  A 2.35 2.34 33.9 0 0 431.06 180.01
  C 429.33 178.89 425.75 178.42 424.42 176.68
  C 422.49 174.15 423.92 171.21 426.77 170.28
  Q 430.21 169.17 433.07 172.13
  Q 433.48 172.55 432.93 172.76
  Q 431.36 173.37 430.10 172.37
  Q 429.71 172.07 429.21 172.04
  Q 426.06 171.86 425.87 174.02
  Z"
/>
<path fill="#1b1917" d="
  M 464.46 183.70
  C 466.82 180.06 462.19 179.13 460.06 178.34
  Q 458.06 177.60 457.32 176.56
  C 455.57 174.09 456.92 171.33 459.59 170.35
  Q 462.99 169.09 466.01 172.04
  Q 466.45 172.47 465.88 172.69
  L 465.21 172.94
  Q 464.31 173.28 463.54 172.69
  Q 461.62 171.20 459.70 172.60
  A 1.98 1.98 0.0 0 0 460.07 176.02
  Q 461.28 176.55 463.44 177.34
  C 466.84 178.60 468.82 181.47 466.17 184.88
  C 463.81 187.92 458.88 187.60 456.54 184.86
  Q 456.14 184.40 456.71 184.17
  C 458.50 183.44 459.90 185.31 461.25 185.07
  Q 463.87 184.62 464.46 183.70
  Z"
/>
<path fill="#1b1917" d="
  M 471.44 178.52
  Q 471.44 179.82 471.66 180.31
  Q 474.63 187.05 481.94 184.14
  Q 483.09 183.69 484.00 184.56
  Q 484.38 184.92 483.93 185.19
  Q 478.76 188.30 474.51 186.25
  Q 469.20 183.68 469.18 178.53
  Q 469.17 173.38 474.46 170.78
  Q 478.70 168.70 483.89 171.78
  Q 484.34 172.04 483.96 172.40
  Q 483.06 173.28 481.90 172.84
  Q 474.57 169.98 471.65 176.74
  Q 471.43 177.23 471.44 178.52
  Z"
/>
<path fill="#1b1917" d="
  M 487.95 179.01
  A 0.64 0.64 0.0 0 0 487.34 179.86
  Q 489.08 184.81 494.11 185.06
  Q 495.18 185.11 496.89 184.49
  Q 498.53 183.90 499.77 184.01
  Q 501.37 184.15 500.05 185.06
  Q 495.31 188.34 490.61 186.28
  C 485.14 183.89 483.21 177.61 487.30 172.99
  Q 489.23 170.82 492.15 170.22
  Q 498.97 168.84 502.41 175.40
  Q 503.47 177.42 501.96 178.66
  A 1.56 1.50 24.3 0 1 500.98 179.01
  L 487.95 179.01
  Z
  M 487.87 177.01
  L 500.39 176.99
  A 0.03 0.03 0.0 0 0 500.42 176.96
  L 500.42 176.91
  A 6.16 4.80 -0.1 0 0 494.26 172.12
  L 494.00 172.12
  A 6.16 4.80 -0.1 0 0 487.84 176.93
  L 487.84 176.98
  A 0.03 0.03 0.0 0 0 487.87 177.01
  Z"
/>
<path fill="#1b1917" d="
  M 508.98 172.12
  Q 509.81 171.65 510.93 171.00
  Q 515.62 168.31 519.13 172.10
  Q 520.68 173.77 520.67 177.50
  Q 520.65 181.02 520.68 186.49
  Q 520.68 186.97 520.19 186.97
  L 518.97 186.97
  A 0.55 0.54 -0.0 0 1 518.42 186.43
  L 518.42 176.28
  Q 518.42 171.78 513.93 172.09
  L 513.10 172.15
  Q 508.54 172.47 508.54 177.04
  L 508.54 186.48
  Q 508.54 186.98 508.04 186.98
  L 506.78 186.98
  Q 506.33 186.98 506.33 186.53
  L 506.33 170.48
  Q 506.33 170.03 506.78 170.03
  L 508.00 170.03
  A 0.49 0.48 85.9 0 1 508.48 170.45
  Q 508.59 171.22 508.48 171.76
  Q 508.34 172.48 508.98 172.12
  Z"
/>
<path fill="#1b1917" d="
  M 526.39 179.88
  Q 527.91 184.73 533.09 185.06
  C 535.00 185.18 536.75 183.85 538.82 184.00
  Q 540.21 184.10 539.11 184.96
  C 535.19 188.03 529.47 187.67 526.24 183.91
  C 522.92 180.04 523.61 174.67 527.73 171.76
  Q 531.93 168.78 536.64 170.68
  Q 540.49 172.24 541.72 176.45
  A 2.00 2.00 0.0 0 1 539.80 179.01
  L 527.03 179.01
  A 0.67 0.67 0.0 0 0 526.39 179.88
  Z
  M 527.17 175.43
  Q 525.91 177.03 527.95 177.03
  L 539.05 177.03
  A 0.56 0.56 0.0 0 0 539.54 176.21
  Q 536.89 171.29 531.81 172.12
  A 6.15 6.15 0.0 0 0 528.01 174.36
  L 527.17 175.43
  Z"
/>
<path fill="#1b1917" d="
  M 547.33 172.04
  Q 550.51 169.31 554.34 170.14
  Q 555.03 170.29 554.74 170.94
  L 554.63 171.20
  Q 554.25 172.02 553.35 171.97
  Q 549.56 171.78 547.13 174.88
  Q 546.82 175.28 546.82 175.78
  L 546.82 186.63
  A 0.34 0.34 0.0 0 1 546.48 186.97
  L 545.00 186.97
  Q 544.54 186.97 544.54 186.52
  L 544.54 170.49
  Q 544.54 170.02 545.02 170.02
  L 546.01 170.02
  Q 546.64 170.02 546.75 170.63
  Q 546.88 171.30 546.80 171.75
  Q 546.66 172.61 547.33 172.04
  Z"
/>
<path fill="#1b1917" d="
  M 564.07 183.47
  L 569.78 170.82
  A 1.29 1.28 12.1 0 1 570.95 170.07
  L 571.99 170.07
  Q 572.50 170.07 572.29 170.53
  L 562.63 191.94
  A 1.72 1.72 0.0 0 1 561.07 192.94
  L 560.49 192.94
  Q 559.59 192.94 560.04 192.16
  Q 561.03 190.46 562.29 187.49
  Q 562.90 186.07 562.11 184.67
  Q 561.08 182.83 555.73 170.70
  Q 555.36 169.86 556.23 169.99
  L 557.08 170.11
  A 1.49 1.47 81.4 0 1 558.22 170.96
  L 563.81 183.47
  Q 563.94 183.76 564.07 183.47
  Z"
/>
<circle fill="#6ab51c" cx="340.14" cy="176.90" r="2.92"/>
<circle fill="#6ab51c" cx="445.48" cy="176.92" r="2.91"/>
</svg>
