<?xml version="1.0" encoding="UTF-8" standalone="no"?>
<!DOCTYPE svg PUBLIC "-//W3C//DTD SVG 1.1//EN" "http://www.w3.org/Graphics/SVG/1.1/DTD/svg11.dtd">
<svg xmlns="http://www.w3.org/2000/svg" version="1.1" viewBox="0.00 0.00 896.00 281.00">
<path fill="#000000" d="
  M 44.25 154.59
  Q 53.53 154.77 60.91 150.48
  C 68.09 146.30 72.11 139.40 71.88 130.95
  Q 71.73 125.51 70.51 122.18
  C 68.26 116.03 62.91 112.31 56.89 110.15
  Q 44.80 105.83 30.15 99.64
  C 20.96 95.77 13.34 89.34 11.36 79.13
  Q 7.46 59.02 22.65 46.12
  Q 28.42 41.21 35.80 38.81
  Q 51.49 33.70 65.58 40.90
  C 71.66 44.01 75.99 48.41 81.26 53.98
  A 0.29 0.29 0.0 0 1 81.23 54.41
  C 78.84 56.32 75.68 58.81 72.36 59.14
  Q 67.71 59.60 64.57 57.69
  C 61.44 55.80 58.13 52.18 53.33 51.43
  Q 40.73 49.45 31.48 57.25
  Q 23.07 64.34 25.02 75.48
  C 26.23 82.37 32.18 85.67 38.23 88.01
  Q 46.08 91.05 59.78 96.01
  Q 69.02 99.35 75.64 104.87
  C 83.68 111.58 86.31 122.94 85.87 133.44
  C 85.12 151.74 71.43 164.40 54.29 167.75
  C 33.91 171.73 15.59 165.04 5.16 146.75
  Q 4.96 146.42 5.27 146.18
  Q 11.01 141.68 17.95 143.38
  Q 19.98 143.87 21.86 145.47
  C 27.32 150.10 32.08 154.04 39.52 154.39
  Q 43.13 154.57 44.25 154.59
  Z"
/>
<path fill="#000000" d="
  M 639.63 117.81
  Q 636.28 117.66 631.67 117.79
  Q 627.66 117.89 625.50 116.85
  Q 618.61 113.52 618.45 104.51
  Q 618.44 103.75 619.20 103.75
  L 653.74 103.75
  Q 654.25 103.75 654.25 104.25
  L 654.25 154.03
  Q 654.25 154.57 653.89 154.96
  Q 652.96 155.98 651.85 156.85
  Q 643.59 163.34 632.64 166.13
  Q 623.97 168.34 615.82 168.67
  Q 610.19 168.90 607.85 168.92
  Q 583.94 169.14 565.20 154.09
  C 550.38 142.20 541.00 123.51 540.81 104.14
  Q 540.53 75.56 560.59 55.60
  Q 573.33 42.93 591.31 38.45
  Q 600.43 36.18 611.18 36.79
  Q 635.64 38.19 653.73 55.99
  A 0.52 0.52 0.0 0 1 653.70 56.76
  C 651.74 58.41 650.37 59.97 648.30 60.85
  Q 644.25 62.58 640.70 61.76
  Q 638.92 61.35 634.12 58.41
  C 617.80 48.41 596.88 47.89 580.34 58.06
  Q 558.55 71.46 555.11 97.36
  Q 554.09 105.05 556.08 113.73
  C 560.97 135.05 578.93 151.43 600.76 154.34
  Q 620.80 157.01 639.83 146.20
  Q 640.25 145.96 640.25 145.48
  L 640.25 118.45
  Q 640.25 117.83 639.63 117.81
  Z"
/>
<path fill="#000000" d="
  M 139.30 38.00
  Q 185.17 38.02 187.37 38.12
  Q 187.93 38.15 187.93 38.70
  L 187.93 51.79
  Q 187.93 52.27 187.45 52.27
  L 146.77 52.27
  A 0.51 0.51 0.0 0 0 146.26 52.78
  L 146.26 167.17
  A 0.29 0.29 0.0 0 1 145.97 167.46
  Q 142.65 167.50 139.23 167.50
  Q 135.81 167.50 132.49 167.45
  A 0.29 0.29 0.0 0 1 132.20 167.16
  L 132.32 52.77
  A 0.51 0.51 0.0 0 0 131.81 52.26
  L 91.13 52.22
  Q 90.65 52.22 90.65 51.74
  L 90.67 38.65
  Q 90.67 38.10 91.22 38.07
  Q 93.43 37.97 139.30 38.00
  Z"
/>
<path fill="#000000" d="
  M 728.43 95.24
  Q 755.98 95.24 763.68 95.18
  Q 764.17 95.17 764.17 94.69
  L 764.17 38.54
  Q 764.17 37.99 764.72 37.99
  L 777.40 37.99
  Q 778.05 37.99 778.05 38.65
  L 778.05 166.98
  Q 778.05 167.50 777.53 167.50
  L 764.70 167.50
  Q 764.18 167.50 764.18 166.98
  L 764.18 109.78
  Q 764.18 109.28 763.67 109.28
  Q 746.10 109.25 728.43 109.25
  Q 710.76 109.25 693.18 109.28
  Q 692.68 109.28 692.68 109.78
  L 692.69 166.98
  Q 692.69 167.50 692.17 167.50
  L 679.34 167.51
  Q 678.82 167.51 678.82 166.99
  L 678.80 38.66
  Q 678.80 38.00 679.45 38.00
  L 692.13 37.99
  Q 692.68 37.99 692.68 38.54
  L 692.69 94.69
  Q 692.69 95.17 693.17 95.18
  Q 700.88 95.24 728.43 95.24
  Z"
/>
<path fill="#000000" d="
  M 841.80 38.00
  Q 865.91 38.01 890.16 38.06
  A 0.27 0.27 0.0 0 1 890.43 38.33
  L 890.43 51.66
  Q 890.43 52.27 889.82 52.27
  L 849.02 52.27
  A 0.25 0.25 0.0 0 0 848.77 52.52
  L 848.77 166.99
  A 0.52 0.52 0.0 0 1 848.25 167.51
  Q 844.62 167.50 841.74 167.50
  Q 838.86 167.50 835.22 167.50
  A 0.52 0.52 0.0 0 1 834.71 166.98
  L 834.81 52.51
  A 0.25 0.25 0.0 0 0 834.56 52.26
  L 793.76 52.22
  Q 793.15 52.22 793.16 51.61
  L 793.17 38.28
  A 0.27 0.27 0.0 0 1 793.44 38.01
  Q 817.69 37.99 841.80 38.00
  Z"
/>
<path fill="#000000" d="
  M 230.67 38.24
  Q 233.35 38.24 235.95 38.25
  A 0.73 0.72 78.1 0 1 236.60 38.68
  L 292.71 166.94
  A 0.36 0.36 0.0 0 1 292.39 167.45
  C 286.65 167.56 281.11 168.30 276.72 163.75
  Q 275.31 162.29 273.83 158.92
  Q 269.36 148.72 264.72 137.96
  Q 264.52 137.48 263.99 137.49
  Q 260.65 137.49 230.70 137.50
  Q 200.75 137.51 197.41 137.51
  Q 196.88 137.50 196.68 137.98
  Q 192.05 148.75 187.59 158.95
  Q 186.11 162.32 184.70 163.78
  C 180.31 168.33 174.77 167.60 169.03 167.49
  A 0.36 0.36 0.0 0 1 168.71 166.98
  L 224.74 38.68
  A 0.73 0.72 -78.1 0 1 225.39 38.25
  Q 227.98 38.24 230.67 38.24
  Z
  M 203.30 123.03
  A 0.34 0.34 0.0 0 0 203.61 123.50
  L 257.79 123.50
  A 0.34 0.34 0.0 0 0 258.10 123.03
  L 231.01 60.91
  A 0.34 0.34 0.0 0 0 230.39 60.91
  L 203.30 123.03
  Z"
/>
<path fill="#000000" d="
  M 358.11 111.38
  A 0.41 0.41 0.0 0 0 357.88 112.03
  L 399.12 166.94
  A 0.34 0.34 0.0 0 1 398.86 167.48
  Q 393.90 167.67 389.14 167.35
  Q 381.59 166.86 377.51 161.42
  Q 353.51 129.40 340.52 112.16
  A 1.04 1.03 -18.7 0 0 339.70 111.76
  L 317.50 111.76
  A 0.50 0.49 -0.0 0 0 317.00 112.25
  L 317.00 167.00
  A 0.51 0.50 -90.0 0 1 316.50 167.51
  L 303.50 167.51
  A 0.50 0.50 0.0 0 1 303.00 167.01
  L 303.00 38.70
  A 0.47 0.46 90.0 0 1 303.46 38.23
  Q 338.39 38.28 345.94 38.18
  Q 354.38 38.08 358.93 39.45
  C 383.61 46.90 393.00 74.49 379.63 95.95
  Q 372.07 108.07 358.11 111.38
  Z
  M 317.00 52.75
  L 317.00 97.27
  A 0.52 0.52 0.0 0 0 317.52 97.79
  L 348.55 97.79
  A 23.11 22.78 0.0 0 0 371.66 75.01
  L 371.66 75.01
  A 23.11 22.78 -0.0 0 0 348.55 52.23
  L 317.52 52.23
  A 0.52 0.52 0.0 0 0 317.00 52.75
  Z"
/>
<path fill="#000000" d="
  M 484.25 153.89
  L 484.25 167.09
  A 0.41 0.41 0.0 0 1 483.84 167.50
  L 412.66 167.50
  A 0.41 0.41 0.0 0 1 412.25 167.09
  L 412.25 38.65
  A 0.41 0.41 0.0 0 1 412.66 38.24
  L 425.84 38.24
  A 0.41 0.41 0.0 0 1 426.25 38.65
  L 426.25 153.09
  A 0.41 0.41 0.0 0 0 426.66 153.50
  L 483.84 153.48
  A 0.41 0.41 0.0 0 1 484.25 153.89
  Z"
/>
<rect fill="#000000" x="503.25" y="38.24" width="14.00" height="129.26" rx="0.41"/>
<path fill="#000000" d="
  M 206.28 215.72
  Q 202.58 211.04 203.49 206.51
  Q 204.39 202.00 208.06 199.16
  Q 211.76 196.28 217.11 196.88
  Q 222.85 197.53 226.42 201.99
  Q 226.75 202.40 226.27 202.60
  Q 223.50 203.79 220.85 202.78
  Q 217.53 201.51 217.50 201.50
  Q 211.86 200.42 208.79 205.10
  Q 207.33 207.33 207.73 209.15
  Q 208.19 211.22 209.84 213.20
  C 211.67 215.38 217.01 220.52 221.09 224.25
  Q 222.65 225.67 224.33 227.95
  Q 225.01 228.86 225.68 227.94
  L 229.76 222.37
  A 3.22 3.20 18.0 0 1 232.35 221.06
  L 235.16 221.06
  Q 236.32 221.06 235.64 221.99
  L 228.81 231.32
  A 0.86 0.85 40.6 0 0 228.90 232.43
  L 237.24 240.77
  Q 237.68 241.21 237.06 241.24
  Q 235.02 241.33 233.22 241.12
  Q 231.35 240.90 229.88 239.67
  Q 227.91 238.04 226.31 236.07
  A 0.76 0.76 0.0 0 0 225.21 235.99
  Q 219.62 241.12 212.30 241.25
  Q 206.54 241.35 201.74 236.87
  Q 198.90 234.21 198.22 229.62
  Q 197.64 225.67 199.62 222.15
  C 200.99 219.75 203.54 216.74 206.09 216.24
  Q 206.61 216.13 206.28 215.72
  Z
  M 221.97 231.83
  A 0.39 0.39 0.0 0 0 221.95 231.29
  L 209.99 219.32
  Q 209.60 218.94 209.11 219.17
  Q 205.20 221.03 203.54 224.06
  Q 201.36 228.03 203.25 231.18
  Q 206.97 237.41 213.74 236.61
  Q 215.98 236.34 218.22 234.98
  Q 220.27 233.74 221.97 231.83
  Z"
/>
<path fill="#000000" d="
  M 6.09 198.04
  A 0.29 0.29 0.0 0 1 6.38 197.75
  L 21.91 197.73
  A 21.80 21.34 -0.1 0 1 43.75 219.03
  L 43.75 219.89
  A 21.80 21.34 -0.1 0 1 21.99 241.27
  L 6.46 241.29
  A 0.29 0.29 0.0 0 1 6.17 241.00
  L 6.09 198.04
  Z
  M 10.22 202.83
  L 10.28 236.23
  A 0.57 0.57 0.0 0 0 10.85 236.79
  L 21.59 236.78
  A 17.85 17.01 -0.1 0 0 39.41 219.73
  L 39.41 219.21
  A 17.85 17.01 -0.1 0 0 21.53 202.24
  L 10.79 202.25
  A 0.57 0.57 0.0 0 0 10.22 202.83
  Z"
/>
<path fill="#000000" d="
  M 282.07 235.73
  A 0.14 0.14 0.0 0 0 282.32 235.73
  Q 282.53 235.25 297.59 201.29
  Q 299.56 196.84 304.07 197.87
  Q 304.56 197.99 304.56 198.50
  L 304.56 241.05
  Q 304.56 241.23 304.38 241.23
  L 300.71 241.23
  Q 300.44 241.23 300.44 240.96
  L 300.44 206.25
  A 0.13 0.13 0.0 0 0 300.19 206.20
  L 284.90 240.79
  Q 284.69 241.26 284.17 241.26
  L 280.33 241.26
  Q 279.78 241.26 279.56 240.76
  L 264.84 207.12
  Q 264.25 205.77 264.25 207.24
  L 264.25 241.00
  Q 264.25 241.26 263.99 241.26
  L 260.29 241.26
  Q 260.07 241.26 260.07 241.04
  L 260.07 198.30
  Q 260.07 197.84 260.53 197.78
  Q 263.08 197.47 265.02 198.42
  Q 265.87 198.83 267.18 201.78
  Q 276.00 221.63 282.07 235.73
  Z"
/>
<circle fill="#000000" cx="372.89" cy="201.00" r="3.30"/>
<rect fill="#000000" x="445.75" y="197.75" width="4.18" height="43.52" rx="0.36"/>
<path fill="#000000" d="
  M 489.82 197.75
  Q 497.98 197.75 505.73 197.76
  Q 506.22 197.76 506.22 198.25
  L 506.22 201.75
  Q 506.22 202.25 505.72 202.25
  L 492.44 202.25
  Q 491.87 202.25 491.87 202.82
  L 491.87 240.53
  Q 491.87 241.09 491.31 241.16
  Q 490.57 241.25 489.80 241.25
  Q 489.04 241.25 488.30 241.16
  Q 487.74 241.09 487.74 240.53
  L 487.76 202.82
  Q 487.76 202.25 487.19 202.25
  L 473.91 202.24
  Q 473.41 202.24 473.41 201.74
  L 473.41 198.24
  Q 473.41 197.75 473.90 197.75
  Q 481.65 197.74 489.82 197.75
  Z"
/>
<path fill="#000000" d="
  M 515.95 212.64
  Q 520.68 207.83 528.18 208.96
  C 532.28 209.58 535.20 212.09 536.45 215.83
  C 537.04 217.61 537.64 220.66 537.64 222.51
  Q 537.66 228.88 537.63 240.67
  Q 537.63 241.25 537.05 241.25
  L 533.72 241.25
  Q 533.18 241.25 533.19 240.71
  Q 533.21 235.19 533.20 225.06
  Q 533.20 219.23 532.19 217.14
  Q 530.02 212.67 523.87 213.38
  Q 519.65 213.87 516.77 217.33
  Q 515.59 218.75 515.60 221.03
  Q 515.66 230.83 515.63 240.98
  Q 515.63 241.25 515.36 241.25
  L 511.46 241.25
  A 0.28 0.27 0.0 0 1 511.18 240.98
  L 511.18 198.51
  Q 511.18 197.72 511.98 197.72
  L 514.39 197.72
  A 1.23 1.23 0.0 0 1 515.62 198.95
  L 515.62 212.51
  Q 515.62 212.97 515.95 212.64
  Z"
/>
<path fill="#000000" d="
  M 713.66 210.08
  Q 714.24 213.64 718.53 215.06
  Q 725.96 217.51 729.45 219.39
  Q 733.41 221.52 734.12 226.39
  Q 735.66 236.89 726.06 240.28
  Q 720.54 242.24 714.90 240.37
  Q 710.61 238.96 707.61 234.33
  Q 707.29 233.83 707.81 233.53
  Q 710.86 231.76 713.44 234.16
  Q 716.28 236.80 720.47 236.75
  Q 724.31 236.71 726.75 234.97
  C 730.38 232.37 731.52 227.49 728.53 223.96
  Q 727.33 222.55 723.66 221.17
  Q 715.81 218.21 713.97 217.29
  Q 710.26 215.43 709.34 210.77
  Q 708.73 207.64 710.31 204.37
  Q 711.65 201.59 714.51 199.87
  Q 720.16 196.48 726.38 198.48
  Q 729.46 199.46 732.50 202.58
  Q 732.86 202.95 732.44 203.24
  Q 729.96 204.94 727.50 203.76
  Q 720.53 200.40 715.81 204.61
  Q 713.16 206.98 713.66 210.08
  Z"
/>
<path fill="#000000" d="
  M 774.93 212.64
  Q 779.76 207.83 787.16 208.96
  C 791.30 209.59 794.14 212.05 795.46 215.86
  C 796.06 217.60 796.63 220.68 796.63 222.51
  Q 796.66 231.08 796.62 240.68
  Q 796.62 241.25 796.05 241.25
  L 792.72 241.25
  Q 792.18 241.25 792.18 240.71
  Q 792.21 227.77 792.20 225.06
  Q 792.19 219.24 791.20 217.13
  Q 789.13 212.72 782.86 213.39
  Q 778.76 213.82 775.77 217.33
  Q 774.57 218.72 774.61 221.03
  Q 774.65 223.98 774.64 240.97
  Q 774.64 241.25 774.36 241.25
  L 770.46 241.25
  A 0.28 0.28 0.0 0 1 770.18 240.97
  L 770.18 198.55
  Q 770.18 197.74 770.99 197.74
  L 773.37 197.74
  Q 774.62 197.74 774.62 198.99
  L 774.62 212.51
  Q 774.62 212.95 774.93 212.64
  Z"
/>
<rect fill="#000000" x="879.75" y="197.75" width="4.18" height="43.52" rx="0.36"/>
<path fill="#000000" d="
  M 619.81 213.72
  Q 619.57 217.47 619.74 232.38
  Q 619.76 234.83 620.83 235.77
  Q 622.73 237.44 625.01 236.44
  Q 626.32 235.86 627.47 236.71
  L 629.02 237.84
  Q 630.24 238.73 628.92 239.46
  Q 625.68 241.26 622.51 241.23
  Q 618.92 241.19 616.56 237.96
  Q 615.27 236.21 615.27 232.04
  Q 615.26 227.29 615.28 213.83
  Q 615.29 213.27 614.72 213.27
  L 610.65 213.27
  Q 609.12 213.27 609.33 211.75
  L 609.49 210.61
  Q 609.75 208.80 611.58 208.80
  L 614.76 208.80
  Q 615.27 208.80 615.27 208.29
  L 615.32 201.25
  Q 615.33 198.98 617.49 198.73
  Q 617.63 198.72 617.76 198.69
  Q 619.78 198.31 619.75 200.34
  L 619.65 208.15
  Q 619.64 208.74 620.23 208.74
  L 628.47 208.74
  A 0.47 0.47 0.0 0 1 628.94 209.21
  L 628.94 212.79
  Q 628.94 213.26 628.47 213.26
  L 620.30 213.26
  Q 619.84 213.26 619.81 213.72
  Z"
/>
<path fill="#000000" d="
  M 68.76 237.89
  Q 63.83 241.52 57.55 241.19
  Q 50.72 240.83 48.27 235.79
  Q 46.75 232.66 47.92 229.47
  Q 48.81 227.05 50.65 225.60
  Q 52.18 224.39 54.81 223.70
  Q 60.01 222.32 63.86 222.82
  Q 67.64 223.32 68.73 223.30
  Q 69.25 223.29 69.16 222.78
  Q 68.45 218.84 68.17 218.25
  Q 64.91 211.44 57.32 213.88
  Q 57.29 213.89 55.59 214.66
  Q 52.51 216.05 49.73 213.85
  A 0.36 0.35 -49.0 0 1 49.70 213.32
  Q 53.48 209.58 58.95 208.89
  Q 68.85 207.66 72.25 216.22
  Q 72.71 217.38 72.92 218.87
  C 73.09 220.05 73.59 221.32 73.61 222.43
  Q 73.72 227.74 73.71 240.71
  Q 73.71 241.24 73.18 241.24
  L 70.27 241.24
  A 0.78 0.78 0.0 0 1 69.54 240.74
  Q 69.09 239.59 69.31 238.22
  Q 69.44 237.39 68.76 237.89
  Z
  M 64.42 235.48
  Q 66.67 234.72 68.80 233.78
  Q 69.29 233.57 69.29 233.03
  L 69.29 228.28
  A 0.56 0.55 -85.8 0 0 68.82 227.73
  Q 60.91 226.55 55.56 228.10
  Q 52.95 228.86 51.86 232.11
  Q 51.69 232.62 51.96 233.10
  Q 53.46 235.70 54.63 236.09
  Q 58.59 237.42 64.42 235.48
  Z"
/>
<path fill="#000000" d="
  M 86.11 212.98
  Q 90.35 208.57 96.75 208.87
  Q 104.90 209.25 106.76 217.45
  C 107.05 218.72 107.64 220.59 107.64 222.52
  Q 107.64 228.97 107.64 240.64
  Q 107.64 241.25 107.03 241.25
  L 103.73 241.25
  Q 103.13 241.25 103.13 240.64
  Q 103.31 222.94 103.05 219.98
  Q 102.51 213.93 96.15 213.34
  Q 89.89 212.76 85.96 218.25
  Q 85.64 218.70 85.64 219.26
  L 85.64 241.01
  Q 85.64 241.25 85.40 241.25
  L 81.47 241.25
  Q 81.18 241.25 81.18 240.96
  L 81.18 209.64
  Q 81.18 209.20 81.62 209.20
  L 84.51 209.20
  Q 84.98 209.20 85.18 209.63
  Q 85.85 211.11 85.60 212.73
  Q 85.47 213.65 86.11 212.98
  Z"
/>
<path fill="#000000" d="
  M 118.34 225.03
  Q 118.35 227.88 119.13 229.37
  Q 123.74 238.12 133.37 236.45
  Q 133.57 236.41 136.61 235.16
  Q 139.34 234.04 141.68 236.29
  Q 142.04 236.64 141.66 236.95
  Q 135.73 241.71 129.73 241.23
  Q 118.41 240.32 114.45 229.52
  Q 114.12 228.61 114.12 225.03
  Q 114.11 221.45 114.43 220.55
  Q 118.35 209.73 129.67 208.78
  Q 135.66 208.27 141.61 213.01
  Q 141.99 213.32 141.64 213.67
  Q 139.30 215.93 136.57 214.82
  Q 133.52 213.58 133.32 213.54
  Q 123.69 211.91 119.11 220.68
  Q 118.33 222.17 118.34 225.03
  Z"
/>
<path fill="#000000" d="
  M 148.92 226.29
  Q 146.73 226.31 147.55 228.35
  Q 151.12 237.19 160.73 236.71
  Q 162.18 236.63 167.24 234.79
  Q 168.98 234.15 171.30 235.98
  Q 171.72 236.30 171.31 236.64
  Q 164.95 241.88 157.78 241.16
  Q 150.32 240.41 145.86 234.37
  Q 142.55 229.88 142.96 223.76
  Q 143.39 217.40 148.13 213.13
  Q 153.32 208.44 160.18 208.79
  Q 168.00 209.18 172.66 215.56
  Q 175.06 218.84 175.31 221.74
  Q 175.57 224.83 173.43 225.79
  Q 172.32 226.28 169.50 226.26
  Q 159.97 226.19 148.92 226.29
  Z
  M 159.39 221.75
  Q 165.09 221.74 170.74 221.75
  A 0.24 0.23 -10.5 0 0 170.96 221.44
  Q 168.07 214.02 160.00 213.25
  Q 159.94 213.24 159.36 213.25
  Q 158.79 213.25 158.73 213.25
  Q 150.66 214.07 147.81 221.50
  A 0.24 0.23 10.2 0 0 148.04 221.82
  Q 153.68 221.77 159.39 221.75
  Z"
/>
<path fill="#000000" d="
  M 335.05 238.70
  Q 329.12 242.77 324.25 242.28
  Q 316.21 241.48 314.26 233.72
  C 313.78 231.77 313.34 230.52 313.33 228.66
  Q 313.29 220.97 313.32 209.26
  Q 313.32 208.77 313.81 208.77
  L 317.27 208.77
  Q 317.77 208.77 317.77 209.27
  Q 317.58 223.98 317.92 230.11
  Q 317.97 231.09 319.29 234.46
  Q 320.53 237.63 325.51 237.71
  Q 330.69 237.79 334.03 233.78
  Q 335.63 231.86 335.41 228.99
  Q 335.34 228.03 335.37 209.16
  A 0.40 0.39 -0.0 0 1 335.77 208.77
  L 339.41 208.77
  Q 339.81 208.77 339.81 209.17
  L 339.81 240.72
  Q 339.81 241.25 339.28 241.25
  L 336.31 241.25
  Q 335.80 241.25 335.62 240.78
  Q 335.29 239.93 335.47 238.97
  Q 335.60 238.32 335.05 238.70
  Z"
/>
<path fill="#000000" d="
  M 359.49 228.85
  Q 357.90 227.11 355.10 226.18
  Q 352.66 225.37 350.48 224.51
  Q 348.02 223.54 346.56 221.69
  Q 345.00 219.72 345.05 216.55
  Q 345.10 213.51 346.81 211.82
  Q 350.37 208.30 355.31 208.86
  Q 359.22 209.30 362.79 213.24
  A 0.52 0.51 48.5 0 1 362.75 213.97
  C 361.29 215.25 359.86 215.73 357.97 214.66
  Q 356.57 213.88 355.83 213.63
  Q 353.24 212.78 351.12 214.20
  C 348.24 216.13 349.40 219.52 352.35 220.67
  C 357.31 222.60 360.58 223.29 363.14 226.35
  Q 364.79 228.31 364.89 231.10
  Q 364.98 233.99 363.36 236.54
  Q 361.99 238.70 359.26 239.96
  Q 350.85 243.82 344.19 236.63
  A 0.59 0.59 0.0 0 1 344.33 235.72
  Q 346.89 234.24 349.30 235.25
  Q 352.39 236.56 352.50 236.57
  Q 356.99 237.18 359.89 233.68
  Q 360.22 233.29 360.25 232.79
  Q 360.34 231.66 360.28 230.71
  Q 360.22 229.64 359.49 228.85
  Z"
/>
<path fill="#000000" d="
  M 386.34 225.01
  Q 386.34 227.87 387.13 229.36
  Q 391.74 238.10 401.34 236.45
  Q 401.50 236.42 404.64 235.16
  Q 407.26 234.11 409.59 236.26
  Q 409.96 236.61 409.58 236.95
  Q 404.66 241.31 398.11 241.23
  Q 392.75 241.16 388.67 238.07
  Q 383.98 234.52 382.46 229.41
  Q 382.12 228.25 382.12 225.02
  Q 382.11 221.79 382.45 220.63
  Q 383.96 215.52 388.64 211.95
  Q 392.71 208.86 398.07 208.77
  Q 404.62 208.68 409.55 213.03
  Q 409.93 213.37 409.56 213.72
  Q 407.24 215.87 404.62 214.83
  Q 401.47 213.58 401.31 213.55
  Q 391.71 211.92 387.12 220.66
  Q 386.34 222.16 386.34 225.01
  Z"
/>
<path fill="#000000" d="
  M 432.89 237.97
  Q 428.61 240.87 423.27 241.21
  Q 419.20 241.47 415.79 239.63
  Q 413.30 238.28 412.02 235.21
  Q 410.90 232.53 411.83 229.74
  Q 412.67 227.24 414.58 225.65
  Q 416.06 224.42 418.92 223.67
  Q 424.02 222.33 427.87 222.83
  Q 431.41 223.29 432.73 223.29
  Q 433.26 223.29 433.16 222.78
  Q 432.31 218.26 431.99 217.71
  Q 428.25 211.29 420.81 214.07
  Q 420.77 214.08 419.71 214.59
  Q 416.72 216.01 413.89 214.04
  A 0.56 0.56 0.0 0 1 413.82 213.18
  Q 417.62 209.55 422.94 208.89
  Q 432.84 207.67 436.25 216.21
  Q 436.72 217.39 436.92 218.87
  C 437.07 220.01 437.59 221.31 437.61 222.43
  Q 437.72 227.76 437.71 240.72
  Q 437.71 241.24 437.19 241.24
  L 434.25 241.24
  A 0.76 0.74 77.7 0 1 433.57 240.79
  Q 433.04 239.58 433.33 238.26
  Q 433.48 237.57 432.89 237.97
  Z
  M 428.41 235.47
  Q 431.19 234.50 432.86 233.77
  Q 433.29 233.58 433.29 233.12
  L 433.29 228.32
  Q 433.29 227.81 432.79 227.73
  Q 426.82 226.77 421.25 227.66
  Q 419.20 227.99 417.96 228.93
  Q 416.59 229.98 415.88 232.02
  Q 415.66 232.67 416.01 233.26
  C 417.03 234.96 417.96 236.06 419.95 236.44
  Q 423.63 237.15 428.41 235.47
  Z"
/>
<path fill="#000000" d="
  M 550.09 226.25
  Q 547.78 226.26 548.63 228.40
  Q 552.02 236.92 561.17 236.71
  Q 562.71 236.67 568.31 234.88
  Q 570.37 234.22 572.36 236.02
  A 0.41 0.40 47.0 0 1 572.35 236.64
  Q 564.02 243.30 555.07 240.38
  Q 547.62 237.95 544.57 229.97
  C 544.06 228.66 544.34 227.37 543.97 226.06
  Q 543.77 225.32 543.83 224.49
  Q 544.43 216.34 550.59 211.92
  Q 555.94 208.08 562.57 208.90
  C 568.74 209.65 573.66 213.77 575.88 219.83
  Q 576.74 222.17 576.16 223.68
  Q 575.15 226.28 572.51 226.27
  Q 555.89 226.22 550.09 226.25
  Z
  M 560.39 221.75
  Q 566.09 221.74 571.74 221.76
  A 0.23 0.23 0.0 0 0 571.95 221.44
  Q 569.07 214.02 561.00 213.25
  Q 560.90 213.24 560.36 213.24
  Q 559.83 213.25 559.73 213.26
  Q 551.66 214.07 548.82 221.50
  A 0.23 0.23 0.0 0 0 549.04 221.82
  Q 554.68 221.77 560.39 221.75
  Z"
/>
<path fill="#000000" d="
  M 600.69 237.98
  Q 595.95 241.41 589.82 241.20
  Q 582.71 240.95 580.23 235.68
  Q 578.71 232.47 579.95 229.42
  Q 581.55 225.48 584.64 224.42
  Q 591.27 222.15 595.77 222.73
  Q 600.11 223.30 600.72 223.23
  Q 601.24 223.18 601.15 222.67
  Q 600.54 219.22 600.22 218.45
  Q 597.48 212.09 590.61 213.48
  Q 590.57 213.49 587.47 214.76
  Q 584.38 216.03 581.90 213.86
  Q 581.49 213.50 581.89 213.13
  Q 586.31 208.98 592.52 208.75
  Q 601.38 208.42 604.36 216.55
  Q 604.58 217.17 604.93 219.04
  C 605.13 220.11 605.59 221.31 605.61 222.37
  Q 605.72 228.17 605.71 240.69
  Q 605.70 241.24 605.15 241.24
  L 602.18 241.24
  A 0.70 0.70 0.0 0 1 601.49 240.63
  L 601.21 238.23
  Q 601.14 237.65 600.69 237.98
  Z
  M 596.41 235.47
  Q 599.20 234.49 600.86 233.77
  Q 601.29 233.58 601.29 233.12
  L 601.29 228.31
  Q 601.29 227.81 600.80 227.73
  Q 594.82 226.77 589.25 227.66
  Q 587.23 227.98 585.96 228.94
  Q 584.59 229.98 583.88 232.02
  Q 583.66 232.67 584.01 233.26
  C 585.04 234.97 585.96 236.06 587.95 236.44
  Q 591.63 237.15 596.41 235.47
  Z"
/>
<path fill="#000000" d="
  M 638.11 213.34
  Q 643.61 207.52 651.88 209.12
  Q 653.25 209.38 652.68 210.65
  L 652.05 212.08
  A 1.99 1.98 -76.7 0 1 650.15 213.26
  Q 643.54 212.93 639.37 217.86
  Q 638.66 218.71 638.61 219.37
  Q 638.56 220.01 638.17 220.51
  A 1.45 1.44 -26.4 0 0 637.87 221.39
  L 637.87 240.95
  Q 637.87 241.25 637.56 241.25
  L 634.09 241.25
  Q 633.65 241.25 633.65 240.81
  L 633.65 209.67
  Q 633.65 209.26 634.07 209.26
  L 637.25 209.26
  Q 637.85 209.26 637.85 209.86
  L 637.85 213.24
  Q 637.85 213.62 638.11 213.34
  Z"
/>
<path fill="#000000" d="
  M 659.02 226.24
  Q 656.81 226.25 657.59 228.31
  Q 660.75 236.64 669.71 236.74
  Q 671.94 236.77 677.29 234.85
  Q 679.25 234.14 681.36 236.03
  Q 681.74 236.36 681.34 236.67
  Q 673.00 243.26 664.07 240.38
  Q 656.71 238.01 653.56 229.97
  C 653.06 228.69 653.34 227.36 652.98 226.06
  Q 652.78 225.35 652.84 224.50
  Q 653.41 216.37 659.60 211.92
  Q 664.94 208.08 671.57 208.90
  C 677.74 209.66 682.66 213.77 684.88 219.83
  Q 685.74 222.16 685.16 223.68
  Q 684.16 226.25 681.52 226.25
  Q 669.08 226.23 659.02 226.24
  Z
  M 669.39 221.75
  Q 675.09 221.73 680.74 221.75
  A 0.23 0.23 0.0 0 0 680.95 221.44
  Q 678.07 214.02 670.00 213.25
  Q 669.93 213.25 669.36 213.25
  Q 668.80 213.25 668.73 213.26
  Q 660.66 214.07 657.82 221.50
  A 0.23 0.23 0.0 0 0 658.04 221.82
  Q 663.68 221.77 669.39 221.75
  Z"
/>
<path fill="#000000" d="
  M 742.34 225.02
  Q 742.35 227.88 743.13 229.37
  Q 747.74 238.12 757.37 236.44
  Q 757.61 236.40 760.60 235.16
  Q 763.30 234.05 765.70 236.31
  Q 766.05 236.64 765.67 236.95
  Q 759.76 241.66 753.72 241.24
  Q 743.27 240.52 738.82 230.55
  Q 738.39 229.59 738.27 227.87
  Q 738.12 225.76 738.12 225.03
  Q 738.11 224.31 738.26 222.20
  Q 738.37 220.47 738.80 219.51
  Q 743.21 209.52 753.65 208.76
  Q 759.69 208.32 765.62 213.00
  Q 766.00 213.31 765.65 213.64
  Q 763.26 215.91 760.56 214.81
  Q 757.56 213.59 757.32 213.55
  Q 747.69 211.91 743.11 220.68
  Q 742.33 222.17 742.34 225.02
  Z"
/>
<path fill="#000000" d="
  M 834.96 230.48
  Q 834.29 232.56 833.67 233.42
  Q 826.11 243.83 814.03 240.37
  Q 809.20 238.99 805.64 234.04
  Q 802.77 230.06 803.03 224.37
  Q 803.52 213.62 814.04 209.59
  Q 816.93 208.49 821.17 208.87
  Q 824.81 209.20 827.74 210.92
  Q 834.40 214.83 835.71 222.57
  Q 836.33 226.25 834.96 230.48
  Z
  M 816.96 236.39
  Q 818.62 236.93 820.27 236.74
  Q 827.38 235.93 830.56 229.51
  Q 831.27 228.07 831.37 225.83
  Q 831.49 222.93 831.19 222.01
  Q 830.01 218.43 826.77 215.79
  Q 823.85 213.41 819.98 213.30
  Q 814.22 213.15 810.49 217.08
  Q 807.03 220.72 807.37 225.77
  Q 807.83 232.72 815.08 236.06
  C 815.64 236.32 816.34 236.18 816.96 236.39
  Z"
/>
<path fill="#000000" d="
  M 872.8598 224.9139
  A 16.45 16.34 -0.3 0 1 856.4956 241.3398
  A 16.45 16.34 -0.3 0 1 839.9602 225.0861
  A 16.45 16.34 -0.3 0 1 856.3244 208.6602
  A 16.45 16.34 -0.3 0 1 872.8598 224.9139
  Z
  M 854.09 236.41
  Q 858.07 237.34 861.42 235.65
  Q 868.64 232.01 868.42 224.27
  Q 868.35 221.67 867.08 219.56
  Q 865.77 217.39 863.72 215.73
  Q 860.92 213.46 857.05 213.31
  Q 851.34 213.09 847.56 217.01
  Q 844.08 220.61 844.35 225.64
  Q 844.72 232.40 851.66 235.88
  C 852.49 236.29 853.30 236.22 854.09 236.41
  Z"
/>
<rect fill="#000000" x="370.75" y="209.22" width="4.12" height="32.04" rx="0.28"/>
</svg>
