<?xml version="1.0" encoding="UTF-8" standalone="no"?>
<!DOCTYPE svg PUBLIC "-//W3C//DTD SVG 1.1//EN" "http://www.w3.org/Graphics/SVG/1.1/DTD/svg11.dtd">
<svg xmlns="http://www.w3.org/2000/svg" version="1.1" viewBox="0.00 0.00 629.00 220.00">
<path fill="#ffffff" d="
  M 0.00 115.99
  L 0.00 114.53
  Q 0.32 112.42 0.97 110.39
  Q 1.92 107.43 1.95 106.30
  C 2.02 103.17 1.83 99.95 2.17 96.84
  Q 2.21 96.49 2.92 94.07
  Q 3.41 92.40 3.50 89.75
  Q 3.57 87.68 5.41 82.93
  Q 5.94 81.55 7.98 77.45
  Q 9.28 74.83 10.06 71.84
  C 11.08 67.98 11.84 64.20 14.58 61.78
  Q 19.12 57.76 21.16 51.53
  C 21.64 50.04 23.19 47.92 24.37 46.99
  Q 28.07 44.07 28.59 43.33
  Q 31.00 39.87 33.45 36.46
  Q 34.37 35.18 36.20 33.94
  Q 36.80 33.53 39.49 32.28
  Q 42.56 30.85 44.83 28.36
  Q 47.59 25.34 48.67 24.66
  Q 51.28 23.02 54.12 22.36
  Q 56.78 21.75 58.13 20.65
  C 60.63 18.61 61.69 17.44 64.45 16.17
  Q 65.78 15.57 72.66 15.22
  Q 73.51 15.17 77.03 13.06
  Q 79.78 11.41 81.33 10.95
  Q 84.09 10.12 86.61 10.39
  Q 89.65 10.70 90.79 10.40
  Q 96.98 8.73 102.20 10.31
  Q 104.49 11.01 106.72 10.95
  Q 110.92 10.85 113.70 11.92
  Q 117.92 13.53 119.17 13.79
  A 0.22 0.22 0.0 0 0 119.40 13.45
  C 117.23 10.07 115.13 5.45 116.19 1.79
  C 117.25 -1.88 125.82 2.22 128.39 3.47
  C 152.81 15.35 177.19 34.18 183.30 61.81
  Q 184.43 66.96 183.79 71.60
  Q 183.47 73.96 180.90 75.35
  Q 177.72 77.08 172.83 76.20
  Q 167.39 75.22 164.05 74.50
  Q 160.79 73.81 155.15 73.77
  Q 146.89 73.70 144.26 73.77
  C 111.27 74.68 75.53 90.15 59.13 120.36
  Q 47.71 141.42 52.84 165.78
  Q 56.01 180.82 67.83 190.00
  Q 82.79 201.62 102.35 199.86
  Q 114.52 198.76 124.64 191.96
  Q 132.84 186.45 137.47 177.00
  Q 144.77 162.10 140.88 146.27
  Q 139.34 140.02 133.21 133.88
  Q 123.48 124.13 108.30 124.72
  Q 96.95 125.16 88.18 131.42
  C 77.43 139.10 73.31 155.81 85.31 164.51
  Q 92.01 169.37 99.78 169.62
  Q 106.33 169.83 111.68 165.22
  Q 117.07 160.56 116.18 153.62
  A 0.37 0.37 0.0 0 0 115.53 153.44
  C 114.01 155.37 112.14 157.00 109.55 157.05
  C 106.63 157.10 104.75 154.91 104.55 152.18
  Q 104.03 145.04 110.50 143.58
  Q 116.17 142.29 120.16 147.20
  Q 120.84 148.04 121.53 152.20
  C 122.57 158.49 119.05 165.90 114.91 169.90
  Q 108.56 176.02 98.70 176.61
  Q 84.96 177.43 75.41 168.58
  C 63.73 157.75 63.80 139.65 72.34 127.09
  C 77.51 119.48 85.75 114.02 95.01 111.75
  C 110.77 107.89 127.43 111.28 139.95 121.63
  Q 154.08 133.32 156.70 152.53
  C 159.45 172.74 150.33 192.69 133.94 204.92
  Q 116.71 217.78 94.31 219.06
  Q 93.37 219.12 82.75 219.51
  Q 81.80 219.55 74.99 218.23
  Q 72.33 217.72 69.12 217.41
  Q 64.80 217.00 63.32 215.92
  Q 59.57 213.19 52.73 211.53
  Q 49.80 210.82 47.00 208.06
  Q 45.57 206.66 43.83 205.69
  C 39.87 203.50 36.64 200.54 33.17 197.83
  Q 30.71 195.91 25.09 188.22
  Q 23.74 186.37 21.52 184.20
  Q 18.32 181.07 17.52 179.46
  Q 13.54 171.41 10.68 166.01
  Q 9.69 164.13 9.16 159.40
  Q 8.95 157.50 7.79 155.45
  Q 7.05 154.12 6.52 153.01
  Q 5.99 151.90 5.70 150.42
  Q 4.28 143.32 1.91 136.82
  Q 1.47 135.61 1.49 132.75
  Q 1.54 124.29 0.00 115.99
  Z
  M 159.15 48.11
  A 8.55 8.55 0.0 0 0 150.60 39.56
  A 8.55 8.55 0.0 0 0 142.05 48.11
  A 8.55 8.55 0.0 0 0 150.60 56.66
  A 8.55 8.55 0.0 0 0 159.15 48.11
  Z"
/>
<path fill="#ffffff" d="
  M 153.30 48.03
  Q 153.45 49.13 154.76 49.59
  Q 155.22 49.75 155.64 49.50
  L 156.58 48.96
  Q 157.23 48.58 157.10 49.32
  Q 156.91 50.44 155.92 51.14
  C 153.26 53.02 149.51 52.28 149.00 48.63
  C 148.49 44.98 151.90 43.24 154.98 44.33
  Q 156.12 44.73 156.60 45.76
  Q 156.93 46.43 156.20 46.24
  L 155.15 45.98
  Q 154.68 45.86 154.28 46.14
  Q 153.15 46.93 153.30 48.03
  Z"
/>
<path fill="#ffffff" d="
  M 272.25 61.28
  A 1.68 1.68 0.0 0 0 273.43 63.72
  Q 274.36 63.89 276.81 64.52
  Q 281.31 65.70 280.52 70.49
  C 280.22 72.34 278.30 73.80 276.39 73.93
  Q 272.38 74.21 269.76 73.31
  A 1.08 1.06 9.6 0 1 269.03 72.30
  L 269.03 70.46
  Q 269.03 69.68 269.68 70.12
  Q 271.51 71.36 274.87 71.48
  Q 276.46 71.54 277.16 70.11
  Q 277.35 69.75 277.35 69.64
  Q 277.39 67.45 275.55 67.23
  Q 269.17 66.45 268.93 62.56
  Q 268.77 59.85 270.81 58.46
  Q 272.89 57.04 275.83 57.37
  Q 276.86 57.49 279.23 58.18
  Q 279.85 58.36 279.85 59.00
  L 279.85 60.73
  A 0.50 0.49 12.9 0 1 279.14 61.17
  C 276.94 60.09 273.58 58.79 272.25 61.28
  Z"
/>
<path fill="#ffffff" d="
  M 350.67 71.21
  Q 351.40 71.09 351.40 70.35
  L 351.40 68.31
  Q 351.40 67.61 350.70 67.61
  L 348.75 67.61
  Q 348.11 67.61 348.11 66.97
  L 348.11 65.57
  Q 348.11 65.06 348.61 65.06
  L 353.80 65.06
  Q 354.25 65.06 354.25 65.51
  L 354.25 71.78
  Q 354.25 72.33 353.75 72.58
  C 352.20 73.35 351.50 73.92 350.02 73.95
  C 347.58 73.99 345.65 74.22 343.89 73.17
  Q 340.27 71.02 340.09 66.27
  C 339.93 62.17 341.57 58.76 345.72 57.68
  Q 349.76 56.62 353.72 58.91
  Q 353.94 59.04 353.94 59.30
  L 353.94 62.11
  A 0.15 0.15 0.0 0 1 353.70 62.23
  Q 351.57 60.64 350.03 60.18
  C 346.71 59.18 343.97 60.76 343.35 64.24
  Q 342.66 68.10 344.97 70.63
  Q 345.32 71.01 345.83 71.12
  Q 348.26 71.62 350.67 71.21
  Z"
/>
<path fill="#ffffff" d="
  M 440.64 65.74
  Q 440.64 67.94 441.45 69.28
  Q 443.37 72.44 447.59 71.10
  Q 448.43 70.84 450.19 69.62
  Q 450.87 69.15 450.87 69.97
  L 450.87 71.78
  Q 450.87 72.50 450.24 72.84
  C 445.44 75.42 439.06 74.23 437.86 68.14
  Q 437.76 67.64 437.76 65.74
  Q 437.76 63.85 437.86 63.34
  C 439.07 57.26 445.45 56.07 450.25 58.66
  Q 450.88 59.00 450.88 59.72
  L 450.87 61.53
  Q 450.87 62.35 450.19 61.88
  Q 448.44 60.66 447.60 60.39
  Q 443.38 59.05 441.46 62.21
  Q 440.64 63.55 440.64 65.74
  Z"
/>
<path fill="#ffffff" d="
  M 482.77 67.61
  L 480.74 67.61
  Q 480.11 67.61 480.11 66.97
  L 480.11 65.57
  Q 480.11 65.06 480.61 65.06
  L 486.12 65.06
  Q 486.63 65.06 486.63 65.58
  L 486.63 71.68
  A 0.85 0.85 0.0 0 1 486.23 72.40
  Q 482.94 74.44 478.52 73.94
  C 472.25 73.23 470.87 65.98 473.20 61.20
  C 475.48 56.53 481.79 56.65 485.73 58.88
  Q 485.94 59.00 485.94 59.24
  L 485.94 62.01
  Q 485.94 62.35 485.66 62.16
  Q 482.79 60.30 482.27 60.18
  Q 476.33 58.83 475.34 64.56
  C 474.90 67.12 475.73 70.83 478.78 71.30
  Q 480.52 71.57 482.90 71.17
  Q 483.39 71.09 483.39 70.59
  L 483.39 68.23
  Q 483.39 67.61 482.77 67.61
  Z"
/>
<path fill="#ffffff" d="
  M 517.9776 67.1813
  A 6.78 6.78 0.0 0 1 511.2332 73.9967
  L 510.0133 74.0031
  A 6.78 6.78 0.0 0 1 503.1979 67.2587
  L 503.1824 64.2987
  A 6.78 6.78 0.0 0 1 509.9268 57.4833
  L 511.1467 57.4769
  A 6.78 6.78 0.0 0 1 517.9621 64.2213
  L 517.9776 67.1813
  Z
  M 510.5287 71.6098
  A 5.88 4.58 90.5 0 0 515.1598 65.7700
  A 5.88 4.58 90.5 0 0 510.6313 59.8502
  A 5.88 4.58 90.5 0 0 506.0002 65.6900
  A 5.88 4.58 90.5 0 0 510.5287 71.6098
  Z"
/>
<path fill="#ffffff" d="
  M 225.87 57.75
  Q 232.00 57.78 232.25 57.78
  A 0.54 0.42 0.4 0 1 232.79 58.21
  L 232.77 59.77
  Q 232.76 60.27 232.26 60.27
  L 227.76 60.27
  Q 227.29 60.27 227.29 60.74
  L 227.24 73.22
  A 0.69 0.64 -5.8 0 1 226.69 73.84
  Q 226.46 73.89 225.80 73.89
  Q 225.14 73.89 224.91 73.83
  A 0.69 0.64 6.3 0 1 224.36 73.21
  L 224.42 60.73
  Q 224.43 60.26 223.96 60.25
  L 219.46 60.21
  Q 218.96 60.21 218.95 59.71
  L 218.95 58.15
  A 0.54 0.42 0.2 0 1 219.49 57.73
  Q 219.74 57.73 225.87 57.75
  Z"
/>
<path fill="#ffffff" d="
  M 240.26 64.07
  Q 242.67 64.08 242.96 64.06
  Q 243.50 64.04 243.50 63.60
  L 243.51 58.24
  Q 243.51 57.77 244.01 57.77
  L 246.05 57.77
  A 0.48 0.48 0.0 0 1 246.53 58.25
  L 246.53 73.34
  Q 246.53 73.87 246.01 73.87
  L 244.07 73.87
  Q 243.50 73.87 243.50 73.30
  L 243.50 67.07
  A 0.43 0.43 0.0 0 0 243.07 66.64
  Q 241.72 66.63 240.26 66.63
  Q 238.79 66.63 237.44 66.63
  A 0.43 0.43 0.0 0 0 237.01 67.06
  L 237.00 73.29
  Q 237.00 73.86 236.43 73.86
  L 234.49 73.86
  Q 233.97 73.86 233.97 73.33
  L 234.00 58.24
  A 0.48 0.48 0.0 0 1 234.48 57.76
  L 236.52 57.76
  Q 237.02 57.76 237.02 58.23
  L 237.02 63.59
  Q 237.02 64.03 237.55 64.06
  Q 237.84 64.07 240.26 64.07
  Z"
/>
<path fill="#ffffff" d="
  M 253.00 64.10
  L 259.66 64.04
  A 0.36 0.36 0.0 0 1 260.02 64.43
  L 259.88 66.31
  A 0.36 0.36 0.0 0 1 259.52 66.64
  L 252.98 66.62
  A 0.36 0.36 0.0 0 0 252.62 66.98
  L 252.63 70.77
  A 0.36 0.36 0.0 0 0 252.99 71.13
  L 260.20 71.13
  A 0.36 0.36 0.0 0 1 260.56 71.49
  L 260.55 73.51
  A 0.36 0.36 0.0 0 1 260.19 73.87
  L 250.12 73.88
  A 0.36 0.36 0.0 0 1 249.76 73.52
  L 249.75 58.11
  A 0.36 0.36 0.0 0 1 250.11 57.75
  L 259.89 57.75
  A 0.36 0.36 0.0 0 1 260.25 58.11
  L 260.23 59.88
  A 0.36 0.36 0.0 0 1 259.87 60.24
  L 252.96 60.26
  A 0.36 0.36 0.0 0 0 252.60 60.62
  L 252.64 63.74
  A 0.36 0.36 0.0 0 0 253.00 64.10
  Z"
/>
<path fill="#ffffff" d="
  M 287.75 57.75
  Q 291.05 57.77 293.95 57.78
  Q 294.55 57.78 294.55 58.38
  L 294.55 59.56
  Q 294.55 60.27 293.83 60.27
  L 289.74 60.27
  Q 289.26 60.27 289.26 60.75
  L 289.26 73.36
  Q 289.26 73.83 288.79 73.85
  Q 288.10 73.88 287.67 73.88
  Q 287.24 73.88 286.55 73.84
  Q 286.08 73.81 286.09 73.34
  L 286.21 60.73
  Q 286.22 60.25 285.74 60.25
  L 281.65 60.21
  Q 280.93 60.20 280.94 59.49
  L 280.95 58.31
  Q 280.95 57.71 281.55 57.72
  Q 284.45 57.74 287.75 57.75
  Z"
/>
<path fill="#ffffff" d="
  M 299.75 57.75
  Q 300.18 57.75 300.86 57.86
  Q 301.38 57.94 301.57 58.43
  L 307.16 73.17
  A 0.53 0.53 0.0 0 1 306.67 73.89
  L 304.95 73.89
  Q 304.31 73.89 304.09 73.30
  L 302.97 70.31
  Q 302.83 69.95 302.33 69.88
  Q 302.29 69.88 299.74 69.88
  Q 297.19 69.88 297.15 69.88
  Q 296.65 69.95 296.51 70.31
  L 295.39 73.30
  Q 295.17 73.89 294.53 73.89
  L 292.81 73.88
  A 0.53 0.53 0.0 0 1 292.32 73.16
  L 297.92 58.43
  Q 298.11 57.94 298.63 57.86
  Q 299.32 57.75 299.75 57.75
  Z
  M 301.48 67.44
  A 0.35 0.35 0.0 0 0 301.81 66.96
  L 299.98 62.32
  A 0.35 0.35 0.0 0 0 299.32 62.34
  L 297.77 66.93
  A 0.35 0.35 0.0 0 0 298.10 67.39
  L 301.48 67.44
  Z"
/>
<path fill="#ffffff" d="
  M 311.63 67.57
  L 311.63 73.04
  Q 311.63 73.89 310.78 73.89
  L 309.23 73.89
  A 0.86 0.86 0.0 0 1 308.37 73.03
  L 308.37 58.41
  Q 308.37 57.87 308.91 57.83
  Q 314.35 57.42 316.97 58.26
  Q 318.38 58.71 318.92 60.46
  Q 320.04 64.10 317.73 65.87
  Q 317.38 66.14 317.60 66.52
  L 321.54 73.34
  A 0.39 0.36 -13.7 0 1 321.18 73.88
  L 318.59 73.88
  Q 318.39 73.88 318.31 73.72
  L 315.58 68.42
  A 1.24 1.11 -4.2 0 0 314.84 67.85
  L 312.20 67.14
  A 0.45 0.45 0.0 0 0 311.63 67.57
  Z
  M 311.63 60.59
  L 311.63 64.41
  A 0.33 0.33 0.0 0 0 311.96 64.74
  L 312.98 64.74
  A 3.11 1.80 0.1 0 0 316.09 62.94
  L 316.09 62.06
  A 3.11 1.80 0.1 0 0 312.98 60.26
  L 311.96 60.26
  A 0.33 0.33 0.0 0 0 311.63 60.59
  Z"
/>
<path fill="#ffffff" d="
  M 326.38 71.15
  L 333.09 71.11
  A 0.47 0.47 0.0 0 1 333.56 71.58
  L 333.56 73.41
  A 0.47 0.47 0.0 0 1 333.09 73.88
  L 323.61 73.86
  A 0.47 0.47 0.0 0 1 323.14 73.39
  L 323.11 58.25
  A 0.47 0.47 0.0 0 1 323.57 57.78
  L 325.46 57.72
  A 0.47 0.47 0.0 0 1 325.95 58.19
  L 325.91 70.68
  A 0.47 0.47 0.0 0 0 326.38 71.15
  Z"
/>
<rect fill="#ffffff" x="335.07" y="57.75" width="2.80" height="16.10" rx="0.39"/>
<path fill="#ffffff" d="
  M 363.55 64.07
  Q 366.22 64.07 366.48 64.05
  Q 366.99 64.02 366.99 63.54
  L 366.94 58.28
  Q 366.93 57.75 367.47 57.75
  L 369.50 57.75
  Q 369.93 57.75 369.93 58.19
  L 369.93 73.18
  Q 369.93 73.87 369.25 73.87
  L 367.41 73.87
  Q 366.99 73.87 366.99 73.44
  L 366.97 67.26
  Q 366.97 66.77 366.46 66.67
  Q 366.24 66.62 363.56 66.63
  Q 360.88 66.63 360.65 66.68
  Q 360.14 66.78 360.15 67.27
  L 360.14 73.45
  Q 360.14 73.88 359.72 73.88
  L 357.88 73.88
  Q 357.20 73.88 357.20 73.19
  L 357.17 58.20
  Q 357.17 57.76 357.60 57.76
  L 359.63 57.76
  Q 360.17 57.76 360.16 58.29
  L 360.12 63.55
  Q 360.12 64.03 360.63 64.06
  Q 360.89 64.08 363.55 64.07
  Z"
/>
<path fill="#ffffff" d="
  M 377.87 57.75
  Q 381.23 57.77 384.20 57.79
  Q 384.80 57.79 384.80 58.39
  L 384.80 59.57
  Q 384.80 60.28 384.09 60.28
  L 379.76 60.28
  Q 379.30 60.28 379.30 60.73
  L 379.23 73.21
  A 0.70 0.65 -6.3 0 1 378.69 73.84
  Q 378.45 73.89 377.79 73.89
  Q 377.13 73.89 376.90 73.83
  A 0.70 0.65 6.9 0 1 376.36 73.20
  L 376.42 60.72
  Q 376.42 60.27 375.96 60.26
  L 371.63 60.22
  Q 370.92 60.21 370.93 59.50
  L 370.94 58.32
  Q 370.95 57.72 371.55 57.72
  Q 374.52 57.73 377.87 57.75
  Z"
/>
<path fill="#ffffff" d="
  M 392.74 58.15
  A 0.40 0.40 0.0 0 1 393.14 57.75
  L 399.07 57.74
  A 7.19 6.84 -0.1 0 1 406.27 64.57
  L 406.27 66.97
  A 7.19 6.84 -0.1 0 1 399.09 73.82
  L 393.16 73.83
  A 0.40 0.40 0.0 0 1 392.76 73.43
  L 392.74 58.15
  Z
  M 395.63 60.58
  L 395.61 70.86
  A 0.28 0.28 0.0 0 0 395.89 71.14
  L 398.71 71.15
  A 4.42 4.19 0.1 0 0 403.14 66.97
  L 403.14 64.51
  A 4.42 4.19 0.1 0 0 398.73 60.31
  L 395.91 60.30
  A 0.28 0.28 0.0 0 0 395.63 60.58
  Z"
/>
<path fill="#ffffff" d="
  M 413.95 57.75
  Q 414.15 57.75 415.06 57.82
  Q 415.56 57.86 415.74 58.33
  L 421.39 73.22
  Q 421.63 73.87 420.93 73.87
  L 418.99 73.87
  A 0.83 0.83 0.0 0 1 418.17 73.18
  Q 417.87 71.54 417.10 70.34
  Q 416.83 69.91 416.31 69.88
  Q 416.18 69.87 413.96 69.88
  Q 411.74 69.88 411.61 69.89
  Q 411.09 69.91 410.82 70.34
  Q 410.05 71.55 409.75 73.19
  A 0.83 0.83 0.0 0 1 408.93 73.88
  L 406.99 73.88
  Q 406.29 73.88 406.53 73.23
  L 412.16 58.33
  Q 412.34 57.86 412.84 57.83
  Q 413.75 57.75 413.95 57.75
  Z
  M 411.98 66.92
  A 0.35 0.35 0.0 0 0 412.31 67.38
  L 415.62 67.38
  A 0.35 0.35 0.0 0 0 415.95 66.91
  L 414.28 62.27
  A 0.35 0.35 0.0 0 0 413.62 62.28
  L 411.98 66.92
  Z"
/>
<path fill="#ffffff" d="
  M 430.28 65.24
  Q 430.94 66.57 432.07 68.44
  Q 432.38 68.96 432.38 68.36
  L 432.38 58.39
  Q 432.38 57.74 433.03 57.74
  L 434.74 57.74
  A 0.51 0.51 0.0 0 1 435.25 58.25
  L 435.25 73.42
  Q 435.25 73.86 434.82 73.86
  L 432.26 73.86
  Q 431.73 73.86 431.48 73.39
  Q 428.82 68.51 427.73 66.35
  Q 427.07 65.02 425.94 63.15
  Q 425.63 62.63 425.63 63.23
  L 425.63 73.20
  Q 425.63 73.85 424.98 73.85
  L 423.27 73.85
  A 0.51 0.51 0.0 0 1 422.76 73.34
  L 422.76 58.17
  Q 422.76 57.73 423.19 57.73
  L 425.75 57.73
  Q 426.28 57.73 426.53 58.19
  Q 429.20 63.08 430.28 65.24
  Z"
/>
<path fill="#ffffff" d="
  M 455.91 60.63
  L 455.93 63.74
  A 0.37 0.37 0.0 0 0 456.30 64.11
  L 462.92 64.04
  A 0.37 0.37 0.0 0 1 463.29 64.43
  L 463.20 66.27
  A 0.37 0.37 0.0 0 1 462.83 66.62
  L 456.28 66.62
  A 0.37 0.37 0.0 0 0 455.91 66.99
  L 455.93 70.76
  A 0.37 0.37 0.0 0 0 456.30 71.13
  L 463.48 71.13
  A 0.37 0.37 0.0 0 1 463.85 71.50
  L 463.83 73.50
  A 0.37 0.37 0.0 0 1 463.46 73.87
  L 453.50 73.86
  A 0.37 0.37 0.0 0 1 453.13 73.49
  L 453.12 58.12
  A 0.37 0.37 0.0 0 1 453.49 57.75
  L 463.49 57.77
  A 0.37 0.37 0.0 0 1 463.86 58.14
  L 463.86 59.87
  A 0.37 0.37 0.0 0 1 463.49 60.24
  L 456.28 60.26
  A 0.37 0.37 0.0 0 0 455.91 60.63
  Z"
/>
<path fill="#ffffff" d="
  M 498.55 66.68
  L 502.41 73.35
  Q 502.70 73.86 502.11 73.86
  L 499.89 73.86
  Q 499.27 73.86 498.99 73.31
  Q 497.61 70.59 497.07 69.61
  Q 496.15 67.94 495.24 67.70
  Q 494.01 67.37 492.93 67.20
  Q 492.25 67.09 492.25 67.77
  L 492.25 73.29
  Q 492.25 73.88 491.67 73.88
  L 490.01 73.88
  A 0.64 0.64 0.0 0 1 489.37 73.24
  L 489.37 58.43
  Q 489.37 57.94 489.86 57.91
  Q 495.10 57.59 496.22 57.81
  Q 500.71 58.69 499.95 63.54
  Q 499.73 64.97 498.75 65.72
  Q 498.23 66.11 498.55 66.68
  Z
  M 492.26 60.56
  L 492.24 64.44
  A 0.33 0.33 0.0 0 0 492.56 64.78
  L 493.26 64.78
  A 3.75 2.12 0.4 0 0 497.03 62.69
  L 497.03 62.39
  A 3.75 2.12 0.4 0 0 493.30 60.24
  L 492.60 60.24
  A 0.33 0.33 0.0 0 0 492.26 60.56
  Z"
/>
<path fill="#ffffff" d="
  M 526.56 71.64
  Q 529.87 71.65 529.95 67.34
  Q 530.03 62.71 529.99 58.21
  Q 529.99 57.76 530.43 57.76
  L 532.51 57.76
  A 0.44 0.43 89.3 0 1 532.94 58.19
  Q 532.99 67.47 532.88 69.01
  C 532.73 71.12 530.83 73.90 528.28 73.92
  Q 527.61 73.93 526.56 73.93
  Q 525.51 73.93 524.83 73.92
  C 522.28 73.89 520.39 71.11 520.25 69.00
  Q 520.14 67.46 520.21 58.18
  A 0.44 0.43 -89.2 0 1 520.64 57.75
  L 522.72 57.75
  Q 523.16 57.75 523.16 58.20
  Q 523.11 62.70 523.18 67.33
  Q 523.25 71.64 526.56 71.64
  Z"
/>
<path fill="#ffffff" d="
  M 538.88 68.22
  L 538.88 73.35
  Q 538.88 73.86 538.36 73.86
  L 536.44 73.86
  Q 536.07 73.86 536.07 73.48
  L 536.07 58.27
  Q 536.07 57.81 536.53 57.79
  C 538.18 57.71 542.58 57.32 544.70 58.54
  C 546.77 59.73 547.04 62.99 546.18 65.01
  C 545.05 67.63 541.68 67.96 539.26 67.86
  A 0.36 0.36 0.0 0 0 538.88 68.22
  Z
  M 538.87 64.41
  A 0.86 0.86 0.0 0 0 539.92 65.25
  L 542.54 64.67
  A 0.86 0.86 0.0 0 0 543.21 63.84
  L 543.23 61.58
  A 0.86 0.86 0.0 0 0 542.57 60.74
  L 539.95 60.11
  A 0.86 0.86 0.0 0 0 538.89 60.94
  L 538.87 64.41
  Z"
/>
<path fill="#ffffff" d="
  M 552.27 118.14
  A 28.08 28.08 0.0 0 1 524.19 146.22
  A 28.08 28.08 0.0 0 1 496.11 118.14
  A 28.08 28.08 0.0 0 1 524.19 90.06
  A 28.08 28.08 0.0 0 1 552.27 118.14
  Z
  M 544.36 118.15
  A 20.17 20.17 0.0 0 0 524.19 97.98
  A 20.17 20.17 0.0 0 0 504.02 118.15
  A 20.17 20.17 0.0 0 0 524.19 138.32
  A 20.17 20.17 0.0 0 0 544.36 118.15
  Z"
/>
<path fill="#ffffff" d="
  M 171.75 118.25
  C 171.82 132.63 186.70 142.50 199.79 136.68
  C 203.36 135.10 207.08 131.92 210.92 135.35
  A 2.28 2.27 38.0 0 1 211.29 138.32
  Q 210.58 139.37 208.99 140.52
  C 199.45 147.40 187.47 148.07 177.43 142.21
  Q 167.55 136.44 164.47 123.99
  C 163.99 122.04 164.01 120.40 164.00 118.29
  C 163.99 116.18 163.95 114.54 164.41 112.59
  Q 167.37 100.11 177.19 94.24
  C 187.17 88.28 199.16 88.83 208.77 95.62
  Q 210.37 96.75 211.09 97.79
  A 2.28 2.27 -38.6 0 1 210.75 100.77
  C 206.94 104.23 203.19 101.09 199.61 99.54
  C 186.46 93.86 171.67 103.87 171.75 118.25
  Z"
/>
<path fill="#ffffff" d="
  M 239.12 113.98
  Q 249.41 113.98 252.17 113.90
  A 0.61 0.60 -0.7 0 0 252.76 113.30
  L 252.76 92.48
  A 1.88 1.88 0.0 0 1 254.36 90.62
  Q 256.91 90.23 258.96 90.69
  A 1.95 1.94 6.3 0 1 260.48 92.58
  Q 260.50 95.85 260.50 117.86
  Q 260.50 139.87 260.48 143.14
  A 1.95 1.94 -6.3 0 1 258.96 145.03
  Q 256.91 145.49 254.36 145.10
  A 1.88 1.88 0.0 0 1 252.76 143.24
  L 252.76 122.42
  A 0.61 0.60 0.7 0 0 252.17 121.82
  Q 249.41 121.74 239.12 121.74
  Q 228.84 121.73 226.08 121.82
  A 0.61 0.60 -0.7 0 0 225.49 122.42
  L 225.49 143.24
  A 1.88 1.88 0.0 0 1 223.89 145.10
  Q 221.34 145.49 219.29 145.03
  A 1.95 1.94 6.3 0 1 217.77 143.14
  Q 217.75 139.86 217.75 117.86
  Q 217.75 95.85 217.77 92.58
  A 1.95 1.94 -6.3 0 1 219.29 90.69
  Q 221.34 90.23 223.89 90.62
  A 1.88 1.88 0.0 0 1 225.49 92.48
  L 225.49 113.30
  A 0.61 0.60 0.7 0 0 226.08 113.90
  Q 228.84 113.98 239.12 113.98
  Z"
/>
<path fill="#ffffff" d="
  M 288.40 90.73
  C 290.58 90.73 291.71 91.34 292.63 93.44
  Q 304.11 119.57 313.82 142.01
  Q 315.34 145.51 311.51 145.51
  L 310.81 145.51
  A 6.06 6.05 -12.0 0 1 305.28 141.93
  L 301.68 133.91
  Q 301.44 133.37 300.86 133.34
  Q 299.45 133.25 288.40 133.25
  Q 277.35 133.25 275.94 133.34
  Q 275.36 133.37 275.12 133.91
  L 271.52 141.93
  A 6.06 6.05 12.0 0 1 265.99 145.51
  L 265.29 145.51
  Q 261.46 145.51 262.98 142.01
  Q 272.68 119.57 284.16 93.44
  C 285.09 91.34 286.21 90.73 288.40 90.73
  Z
  M 279.04 124.93
  A 0.40 0.40 0.0 0 0 279.40 125.49
  L 297.37 125.52
  A 0.40 0.40 0.0 0 0 297.74 124.96
  L 288.79 103.60
  A 0.40 0.40 0.0 0 0 288.06 103.60
  L 279.04 124.93
  Z"
/>
<path fill="#ffffff" d="
  M 344.37 134.15
  Q 344.41 134.15 344.45 134.14
  Q 344.52 134.12 344.55 134.03
  Q 351.59 118.34 360.93 96.97
  C 362.81 92.65 364.85 90.02 370.09 90.83
  Q 371.24 91.01 371.98 92.12
  Q 372.47 92.84 372.47 94.10
  Q 372.49 119.79 372.51 143.02
  Q 372.51 145.51 370.02 145.51
  L 367.51 145.51
  Q 364.74 145.51 364.74 142.74
  L 364.74 109.38
  Q 364.74 108.03 364.20 109.26
  Q 356.71 126.27 349.30 142.99
  Q 348.83 144.06 348.23 144.53
  C 346.84 145.64 346.29 145.50 344.37 145.50
  C 342.46 145.51 341.91 145.64 340.52 144.53
  Q 339.92 144.06 339.45 142.99
  Q 332.02 126.28 324.52 109.28
  Q 323.98 108.05 323.98 109.40
  L 324.01 142.76
  Q 324.01 145.53 321.24 145.53
  L 318.73 145.53
  Q 316.24 145.53 316.24 143.04
  Q 316.24 119.81 316.24 94.12
  Q 316.24 92.86 316.73 92.14
  Q 317.47 91.03 318.62 90.85
  C 323.86 90.04 325.90 92.66 327.78 96.98
  Q 337.14 118.35 344.19 134.03
  Q 344.22 134.12 344.29 134.14
  Q 344.33 134.15 344.37 134.15
  Z"
/>
<path fill="#ffffff" d="
  M 410.77 118.12
  Q 410.77 119.01 410.75 119.36
  A 2.79 2.76 -88.3 0 1 407.99 121.99
  L 389.75 121.99
  A 0.25 0.25 0.0 0 0 389.50 122.24
  L 389.50 137.24
  Q 389.50 137.74 390.00 137.74
  L 413.38 137.74
  Q 415.77 137.74 415.77 140.14
  L 415.77 143.11
  Q 415.77 145.49 413.39 145.49
  L 384.54 145.49
  Q 381.82 145.49 381.81 142.78
  Q 381.75 130.58 381.75 118.12
  Q 381.75 105.66 381.81 93.46
  Q 381.82 90.74 384.54 90.74
  L 413.39 90.75
  Q 415.77 90.75 415.77 93.13
  L 415.77 96.10
  Q 415.77 98.50 413.38 98.50
  L 390.00 98.49
  Q 389.50 98.49 389.50 98.99
  L 389.50 113.99
  A 0.25 0.25 0.0 0 0 389.75 114.24
  L 407.99 114.25
  A 2.79 2.76 88.3 0 1 410.75 116.87
  Q 410.77 117.23 410.77 118.12
  Z"
/>
<path fill="#ffffff" d="
  M 430.74 137.75
  L 450.38 137.75
  Q 453.81 137.75 453.81 141.18
  L 453.81 142.25
  Q 453.81 145.51 450.55 145.51
  L 425.27 145.51
  A 2.76 2.76 0.0 0 1 422.51 142.75
  L 422.48 94.49
  Q 422.48 90.44 426.32 90.74
  Q 426.49 90.75 426.60 90.74
  Q 430.27 90.51 430.26 94.49
  L 430.24 137.24
  Q 430.24 137.75 430.74 137.75
  Z"
/>
<path fill="#ffffff" d="
  M 487.25 118.12
  Q 487.25 119.54 487.12 120.37
  A 1.91 1.91 0.0 0 1 485.24 121.99
  L 466.25 121.99
  A 0.25 0.25 0.0 0 0 466.00 122.24
  L 466.00 137.24
  Q 466.00 137.74 466.50 137.74
  L 490.00 137.74
  Q 492.26 137.74 492.26 140.00
  L 492.26 143.25
  Q 492.26 145.50 490.01 145.50
  L 460.94 145.50
  Q 458.26 145.50 458.26 142.82
  Q 458.25 136.13 458.24 118.12
  Q 458.24 100.12 458.24 93.43
  Q 458.25 90.75 460.93 90.75
  L 490.00 90.73
  Q 492.25 90.73 492.25 92.98
  L 492.25 96.23
  Q 492.25 98.49 489.99 98.49
  L 466.49 98.50
  Q 465.99 98.51 465.99 99.01
  L 466.00 114.01
  A 0.25 0.25 0.0 0 0 466.25 114.26
  L 485.24 114.25
  A 1.91 1.91 0.0 0 1 487.12 115.87
  Q 487.25 116.69 487.25 118.12
  Z"
/>
<path fill="#ffffff" d="
  M 566.76 104.30
  Q 566.25 103.57 566.25 104.46
  L 566.25 143.26
  Q 566.25 145.51 564.00 145.51
  L 560.71 145.51
  Q 558.50 145.51 558.50 143.30
  Q 558.50 116.12 558.51 93.75
  Q 558.51 92.03 558.99 91.50
  Q 559.59 90.84 560.93 90.77
  C 564.26 90.58 566.87 90.68 568.79 93.44
  Q 568.80 93.45 594.51 130.15
  Q 595.00 130.84 595.00 130.00
  L 595.00 93.00
  Q 595.00 90.75 597.25 90.75
  L 600.51 90.75
  Q 602.75 90.75 602.75 92.99
  L 602.75 143.49
  A 1.87 1.87 0.0 0 1 601.28 145.32
  C 599.40 145.72 595.84 145.93 594.53 144.05
  Q 575.82 117.25 566.76 104.30
  Z"
/>
<path fill="#ffffff" d="
  M 259.27 170.01
  L 263.39 170.01
  Q 263.98 170.01 263.98 170.60
  L 263.98 171.36
  Q 263.98 171.99 263.35 171.99
  L 259.28 171.99
  Q 258.81 171.99 258.81 172.46
  L 258.81 183.14
  A 1.81 1.80 2.0 0 0 260.49 184.94
  L 262.79 185.11
  Q 265.27 185.29 263.08 186.42
  Q 260.06 187.99 257.71 185.89
  Q 256.49 184.79 256.51 181.91
  Q 256.56 175.98 256.57 172.54
  A 0.57 0.57 0.0 0 0 256.00 171.97
  L 254.08 171.97
  Q 253.46 171.97 253.46 171.35
  L 253.46 170.92
  Q 253.46 170.01 254.37 170.01
  L 256.05 170.01
  A 0.52 0.52 0.0 0 0 256.57 169.49
  L 256.57 165.17
  Q 256.57 164.14 257.59 164.02
  Q 257.85 163.99 257.93 163.98
  Q 258.81 163.86 258.81 164.75
  L 258.81 169.55
  Q 258.81 170.01 259.27 170.01
  Z"
/>
<path fill="#ffffff" d="
  M 208.44 178.51
  C 208.44 183.17 213.24 186.27 217.49 184.60
  C 218.66 184.14 220.02 183.60 221.01 184.59
  Q 221.37 184.95 220.93 185.22
  Q 215.72 188.29 211.51 186.25
  Q 206.18 183.66 206.18 178.51
  Q 206.17 173.35 211.50 170.76
  Q 215.71 168.71 220.92 171.77
  Q 221.36 172.04 221.00 172.40
  C 220.01 173.39 218.65 172.86 217.48 172.40
  C 213.23 170.74 208.44 173.84 208.44 178.51
  Z"
/>
<path fill="#ffffff" d="
  M 240.1000 178.5157
  A 8.98 8.52 0.1 0 1 231.1051 187.0200
  A 8.98 8.52 0.1 0 1 222.1400 178.4843
  A 8.98 8.52 0.1 0 1 231.1349 169.9800
  A 8.98 8.52 0.1 0 1 240.1000 178.5157
  Z
  M 237.8500 178.4882
  A 6.75 6.53 -0.1 0 0 231.0886 171.9700
  A 6.75 6.53 -0.1 0 0 224.3500 178.5118
  A 6.75 6.53 -0.1 0 0 231.1114 185.0300
  A 6.75 6.53 -0.1 0 0 237.8500 178.4882
  Z"
/>
<path fill="#ffffff" d="
  M 243.86 174.06
  A 2.08 2.06 10.8 0 0 245.28 176.14
  C 247.23 176.79 249.92 177.65 251.25 179.07
  C 253.46 181.44 252.20 184.51 249.85 186.08
  Q 247.03 187.98 242.60 186.02
  A 1.33 1.18 37.3 0 1 242.18 183.88
  Q 242.37 183.75 245.09 184.70
  Q 247.56 185.57 249.44 183.73
  Q 249.71 183.46 249.72 183.45
  Q 250.90 181.01 248.66 179.77
  C 246.87 178.77 243.62 178.34 242.30 176.52
  C 240.62 174.22 241.80 171.61 244.32 170.46
  Q 247.46 169.02 250.73 171.74
  Q 251.74 172.58 250.46 172.91
  Q 249.31 173.20 247.91 172.29
  Q 247.48 172.02 246.98 172.01
  Q 243.97 171.99 243.86 174.06
  Z"
/>
<path fill="#ffffff" d="
  M 278.74 184.87
  Q 275.21 188.06 271.07 186.65
  C 268.13 185.64 267.02 182.72 266.97 179.83
  Q 266.88 174.59 266.94 170.37
  Q 266.94 170.01 267.30 170.01
  L 268.76 170.01
  Q 269.23 170.01 269.23 170.48
  L 269.23 180.87
  Q 269.23 185.34 273.68 184.90
  L 274.90 184.78
  Q 279.08 184.37 279.08 180.17
  L 279.08 170.22
  Q 279.08 170.02 279.27 170.02
  L 281.06 170.02
  Q 281.34 170.02 281.34 170.30
  L 281.34 186.45
  Q 281.34 186.97 280.81 186.97
  L 279.71 186.97
  Q 279.14 186.97 279.07 186.41
  Q 279.00 185.90 279.16 185.11
  Q 279.30 184.36 278.74 184.87
  Z"
/>
<path fill="#ffffff" d="
  M 289.05 171.65
  Q 294.35 167.66 298.04 172.59
  Q 298.34 173.00 298.66 172.60
  Q 301.65 168.78 306.12 170.33
  Q 309.59 171.54 309.74 176.29
  Q 309.89 180.91 309.80 186.65
  Q 309.79 186.96 309.49 186.96
  L 307.82 186.96
  Q 307.55 186.96 307.55 186.69
  L 307.46 175.95
  Q 307.43 171.97 303.36 172.06
  Q 303.27 172.07 303.20 172.07
  Q 299.19 172.38 299.19 176.01
  L 299.19 186.53
  Q 299.19 186.98 298.73 186.98
  L 297.47 186.98
  Q 296.95 186.98 296.94 186.46
  L 296.84 175.86
  Q 296.81 171.88 292.78 172.07
  Q 292.64 172.07 292.62 172.07
  Q 288.64 172.41 288.65 176.00
  L 288.67 186.54
  A 0.42 0.42 0.0 0 1 288.25 186.96
  L 286.84 186.96
  Q 286.45 186.96 286.45 186.57
  L 286.45 170.53
  Q 286.45 170.00 286.99 170.00
  L 287.85 170.00
  Q 288.42 170.00 288.56 170.55
  Q 288.68 170.98 288.61 171.38
  Q 288.50 172.07 289.05 171.65
  Z"
/>
<path fill="#ffffff" d="
  M 315.40 179.01
  Q 313.96 179.02 314.51 180.35
  C 316.04 184.03 319.84 186.13 323.71 184.57
  Q 325.29 183.93 326.12 183.98
  Q 328.89 184.14 326.35 185.53
  Q 320.28 188.83 315.35 184.96
  C 311.15 181.65 311.08 175.86 315.02 172.28
  C 316.80 170.66 319.61 169.70 322.16 170.03
  Q 327.60 170.73 329.58 175.96
  Q 330.06 177.25 329.55 178.07
  Q 328.95 179.03 327.27 179.02
  Q 318.14 178.98 315.40 179.01
  Z
  M 314.83 177.03
  L 327.41 176.99
  A 0.01 0.01 0.0 0 0 327.42 176.98
  L 327.42 176.92
  A 6.18 4.83 -0.2 0 0 321.22 172.11
  L 320.98 172.11
  A 6.18 4.83 -0.2 0 0 314.82 176.96
  L 314.82 177.02
  A 0.01 0.01 0.0 0 0 314.83 177.03
  Z"
/>
<path fill="#ffffff" d="
  M 357.08 171.76
  Q 362.85 168.09 367.78 171.91
  Q 371.04 174.44 370.75 179.23
  Q 370.44 184.19 365.63 186.34
  Q 361.23 188.30 357.06 185.07
  Q 356.65 184.76 356.65 185.27
  L 356.65 192.54
  Q 356.65 192.97 356.23 192.97
  L 354.96 192.97
  Q 354.45 192.97 354.45 192.45
  L 354.45 170.49
  Q 354.45 170.01 354.93 170.01
  L 356.02 170.01
  Q 356.54 170.01 356.63 170.52
  Q 356.75 171.26 356.59 171.55
  Q 356.14 172.36 357.08 171.76
  Z
  M 364.11 172.26
  Q 360.29 171.22 357.05 173.98
  Q 356.66 174.32 356.66 174.83
  L 356.66 181.71
  A 1.11 1.09 -68.0 0 0 356.98 182.49
  C 360.22 185.80 365.37 186.09 367.76 181.82
  C 369.71 178.33 368.23 173.39 364.11 172.26
  Z"
/>
<path fill="#ffffff" d="
  M 375.23 172.20
  Q 378.15 169.36 382.25 170.10
  Q 383.04 170.24 382.71 170.97
  L 382.56 171.31
  Q 382.24 172.01 381.47 171.97
  Q 377.57 171.75 375.11 174.91
  Q 374.81 175.30 374.81 175.79
  L 374.81 186.58
  Q 374.81 186.96 374.43 186.96
  L 372.88 186.96
  Q 372.54 186.96 372.54 186.62
  L 372.54 170.50
  Q 372.54 170.02 373.01 170.02
  L 374.12 170.02
  Q 374.77 170.02 374.77 170.67
  L 374.77 172.01
  Q 374.77 172.65 375.23 172.20
  Z"
/>
<path fill="#ffffff" d="
  M 402.1000 178.5157
  A 8.98 8.52 0.1 0 1 393.1051 187.0200
  A 8.98 8.52 0.1 0 1 384.1400 178.4843
  A 8.98 8.52 0.1 0 1 393.1349 169.9800
  A 8.98 8.52 0.1 0 1 402.1000 178.5157
  Z
  M 399.8500 178.4882
  A 6.75 6.53 -0.1 0 0 393.0886 171.9700
  A 6.75 6.53 -0.1 0 0 386.3500 178.5118
  A 6.75 6.53 -0.1 0 0 393.1114 185.0300
  A 6.75 6.53 -0.1 0 0 399.8500 178.4882
  Z"
/>
<path fill="#ffffff" d="
  M 408.03 171.81
  Q 413.79 168.05 418.86 171.98
  Q 421.89 174.34 421.76 178.82
  Q 421.60 184.36 416.25 186.49
  Q 412.00 188.18 408.08 185.07
  Q 407.65 184.73 407.65 185.27
  L 407.65 192.55
  A 0.41 0.41 0.0 0 1 407.24 192.96
  L 405.84 192.96
  Q 405.46 192.96 405.46 192.57
  L 405.46 170.53
  Q 405.46 170.01 405.98 170.01
  L 407.03 170.01
  A 0.62 0.61 84.9 0 1 407.63 170.52
  Q 407.74 171.22 407.63 171.49
  A 0.27 0.27 0.0 0 0 408.03 171.81
  Z
  M 415.03 172.25
  Q 411.69 171.11 408.05 173.98
  Q 407.65 174.29 407.65 174.80
  L 407.65 181.55
  A 1.46 1.43 -66.5 0 0 408.02 182.52
  C 410.27 184.99 413.99 185.94 416.89 183.89
  Q 419.31 182.18 419.54 179.27
  Q 419.95 173.91 415.03 172.25
  Z"
/>
<path fill="#ffffff" d="
  M 425.86 174.05
  A 2.38 2.11 11.2 0 0 427.52 176.23
  Q 429.05 176.72 431.22 177.68
  C 434.17 178.98 435.52 181.99 433.35 184.66
  Q 430.55 188.12 425.92 186.57
  Q 424.25 186.01 423.53 184.71
  Q 423.23 184.18 423.84 184.08
  C 425.74 183.76 426.71 185.11 428.19 185.06
  Q 431.32 184.96 432.08 182.41
  A 2.50 2.08 21.4 0 0 430.63 179.77
  Q 430.14 179.55 427.08 178.33
  Q 424.61 177.35 423.95 176.05
  C 422.83 173.82 423.97 171.55 426.22 170.50
  Q 429.66 168.90 433.01 172.02
  A 0.47 0.46 58.1 0 1 432.83 172.81
  Q 431.33 173.27 429.99 172.33
  Q 429.56 172.03 429.03 172.02
  Q 425.98 171.96 425.86 174.05
  Z"
/>
<path fill="#ffffff" d="
  M 458.88 173.83
  A 2.10 2.09 14.6 0 0 460.22 176.10
  Q 463.84 177.44 464.60 177.86
  C 468.71 180.08 467.98 184.46 464.31 186.38
  C 461.97 187.60 458.06 187.17 456.44 184.62
  A 0.36 0.35 69.4 0 1 456.68 184.08
  Q 457.90 183.89 459.22 184.44
  Q 460.94 185.16 461.50 185.08
  Q 463.57 184.80 464.47 183.69
  Q 465.99 181.84 464.53 180.40
  C 462.63 178.54 458.91 178.80 457.34 176.59
  Q 456.03 174.75 456.86 172.74
  Q 457.48 171.25 459.36 170.43
  Q 462.74 168.97 466.01 172.02
  A 0.47 0.47 0.0 0 1 465.83 172.81
  Q 464.34 173.28 462.98 172.33
  Q 462.56 172.02 462.03 172.01
  Q 459.16 171.96 458.88 173.83
  Z"
/>
<path fill="#ffffff" d="
  M 471.44 178.51
  C 471.44 183.19 476.21 186.23 480.50 184.59
  C 481.70 184.13 483.14 183.60 484.02 184.60
  Q 484.36 185.00 483.90 185.26
  Q 475.49 190.04 470.01 182.26
  Q 469.18 181.08 469.18 178.51
  Q 469.17 175.94 470.00 174.76
  Q 475.47 166.97 483.89 171.73
  Q 484.35 171.99 484.01 172.39
  C 483.13 173.39 481.69 172.87 480.49 172.41
  C 476.19 170.77 471.44 173.82 471.44 178.51
  Z"
/>
<path fill="#ffffff" d="
  M 487.43 179.62
  Q 487.62 181.48 489.23 183.05
  C 491.22 184.98 494.03 185.55 496.71 184.57
  Q 498.54 183.90 499.05 183.93
  Q 501.92 184.11 499.35 185.51
  Q 493.26 188.82 488.40 185.01
  C 484.99 182.32 484.04 177.67 486.51 174.05
  Q 489.51 169.63 495.11 170.03
  A 8.22 8.18 77.0 0 1 501.62 174.11
  L 502.23 175.16
  Q 504.44 178.99 500.01 178.99
  L 488.00 178.99
  Q 487.37 178.99 487.43 179.62
  Z
  M 487.83 177.02
  L 500.41 176.98
  A 0.01 0.01 0.0 0 0 500.42 176.97
  L 500.42 176.90
  A 6.18 4.82 -0.2 0 0 494.22 172.10
  L 493.98 172.10
  A 6.18 4.82 -0.2 0 0 487.82 176.94
  L 487.82 177.01
  A 0.01 0.01 0.0 0 0 487.83 177.02
  Z"
/>
<path fill="#ffffff" d="
  M 508.96 172.09
  Q 509.98 171.60 510.79 171.12
  Q 515.73 168.21 519.25 172.25
  Q 520.70 173.91 520.68 178.00
  Q 520.65 181.49 520.67 186.57
  A 0.38 0.38 0.0 0 1 520.29 186.95
  L 518.84 186.95
  Q 518.43 186.95 518.43 186.54
  L 518.43 176.31
  Q 518.43 171.72 513.86 172.10
  L 513.05 172.17
  Q 508.54 172.55 508.54 177.07
  L 508.54 186.59
  Q 508.54 186.96 508.16 186.96
  L 506.75 186.96
  A 0.42 0.42 0.0 0 1 506.33 186.54
  L 506.33 170.45
  A 0.44 0.44 0.0 0 1 506.77 170.01
  L 508.01 170.01
  Q 508.36 170.01 508.46 170.35
  Q 508.62 170.88 508.48 171.73
  Q 508.37 172.37 508.96 172.09
  Z"
/>
<path fill="#ffffff" d="
  M 528.00 179.04
  Q 525.49 179.03 526.82 181.16
  C 528.95 184.54 532.20 185.97 535.76 184.49
  Q 537.31 183.84 537.88 183.89
  Q 541.16 184.17 538.18 185.63
  Q 531.21 189.06 526.37 184.03
  Q 524.03 181.61 524.15 178.22
  C 524.29 174.35 526.91 171.56 530.51 170.36
  Q 532.20 169.79 534.05 170.01
  Q 539.24 170.63 541.35 175.36
  Q 541.96 176.72 541.67 177.70
  Q 541.23 179.16 539.24 179.07
  Q 538.82 179.04 528.00 179.04
  Z
  M 526.83 177.02
  L 539.41 176.98
  A 0.01 0.01 0.0 0 0 539.42 176.97
  L 539.42 176.91
  A 6.18 4.83 -0.2 0 0 533.22 172.10
  L 532.98 172.10
  A 6.18 4.83 -0.2 0 0 526.82 176.95
  L 526.82 177.01
  A 0.01 0.01 0.0 0 0 526.83 177.02
  Z"
/>
<path fill="#ffffff" d="
  M 547.21 172.19
  Q 550.12 169.41 554.22 170.07
  A 0.65 0.65 0.0 0 1 554.71 170.98
  L 554.54 171.35
  A 1.07 1.06 13.7 0 1 553.51 171.97
  Q 549.58 171.75 547.12 174.90
  Q 546.81 175.30 546.81 175.80
  L 546.81 186.58
  Q 546.81 186.96 546.44 186.96
  L 544.89 186.96
  Q 544.54 186.96 544.54 186.62
  L 544.54 170.50
  Q 544.54 170.02 545.02 170.02
  L 546.13 170.02
  Q 546.76 170.02 546.76 170.64
  L 546.76 171.99
  Q 546.76 172.62 547.21 172.19
  Z"
/>
<path fill="#ffffff" d="
  M 564.06 183.47
  L 569.73 170.93
  Q 570.12 170.05 571.09 170.05
  L 572.05 170.05
  Q 572.51 170.05 572.32 170.47
  L 562.66 191.87
  Q 562.17 192.94 561.00 192.94
  L 560.48 192.94
  Q 559.66 192.94 560.04 192.22
  Q 560.86 190.70 562.31 187.49
  Q 562.91 186.19 562.18 184.85
  Q 561.06 182.80 555.68 170.57
  Q 555.44 170.04 556.03 170.04
  L 556.82 170.04
  Q 557.80 170.04 558.19 170.93
  L 563.81 183.47
  Q 563.94 183.75 564.06 183.47
  Z"
/>
<circle fill="#ffffff" cx="340.14" cy="176.90" r="2.92"/>
<circle fill="#ffffff" cx="445.48" cy="176.92" r="2.91"/>
</svg>
