
<svg version="1.1" id="Layer_1" xmlns="http://www.w3.org/2000/svg" x="0" y="0" viewBox="0 0 629 220" style="enable-background:new 0 0 629 220" xml:space="preserve"><style>.st0{fill:#6ab51c}.st1{fill:#fff}</style><path class="st0" d="M0 116v-1.5c.2-1.4.6-2.9 1-4.3.6-2 .9-3.4 1-4.2v-7.1c0-1.7.2-3.1.7-4.2.6-1.4.9-2.7.9-3.9C3.5 86.6 6 81.4 8.2 77c1.7-3.3 2.4-8.1 3.6-11.1.6-1.5 1.4-2.9 2.6-4.1 2.1-2.1 3.2-3.3 3.3-3.4 2.1-2.8 2.9-6.1 4.3-8.7.6-1 1.6-2.1 3.1-3.3 2.9-2.3 5.5-5.5 7.9-9.5.8-1.3 2.6-2.7 5.4-4.1 2.4-1.2 4.5-2.7 6.3-4.5 2-2 3.2-3.2 3.6-3.5 1.7-1.1 3.6-1.9 5.7-2.5 1.7-.5 3.1-1 4-1.7.1-.1 1.2-1 3.4-2.9 2.4-2 5.6-2.2 9.9-2.5 1.9-.1 3.8-.9 5.3-1.9 3.2-2.3 6.5-3.3 9.6-3 2.3.2 3.8.2 4.5 0 4.1-1.2 8-1.2 11.7 0 1.3.4 2.7.6 4.2.5 3.3-.1 6.8.6 10.3 2.3.4.2 1.1.4 2.1.4.3 0 .4-.1.2-.3-2-3.4-4.1-7.6-3.2-11.3.3-1.1 1.3-1.9 2.4-1.8 2.1.2 4.4.8 6.9 1.8 4.3 1.9 9.3 4.5 15.1 7.9 20.5 12.2 41.1 31.7 43.4 56.5.2 2.5.1 4.4-.3 5.6-1.4 4.2-7 4.7-10.9 4-4.6-.9-7.5-1.4-8.7-1.6-2.9-.5-5.7-.8-8.6-.8h-8.7c-33.8.2-70.8 15.7-87.6 46.6-7.6 14-9.7 29.2-6.3 45.4 4.9 23.1 26.8 36.2 49.5 34.1 7.8-.7 15.1-3.3 21.9-7.6 5.4-3.4 9.7-8.4 13-14.8 5.2-10.1 6.3-20.6 3.5-31.6-1-4-3.4-7.9-7.3-11.8-6.6-6.7-15-9.8-25.2-9.4-15 .7-29.7 9.5-30.2 25.5-.2 5.3 1.9 9.7 6.1 13.2 4.8 4.1 10.3 6.1 16.6 6.1 3.9 0 7.6-1.5 11-4.4 3.6-3.2 5.1-7.1 4.4-11.7 0-.2-.2-.3-.3-.2-.1 0-.1 0-.2.1-1.8 2.2-4.1 4.1-7.1 3.6-4.3-.7-4.8-6.2-3.3-9.5 1.3-2.8 3.6-4.2 7-4.2 3.5 0 6.2 1.4 8 4.1.5.8 1 2.5 1.3 5 .3 1.9.2 3.6-.2 5.1-2.7 11.5-10.1 17.8-22.3 19.1-3.5.4-7.1 0-10.8-1-13.6-3.7-21.7-14.6-22.1-28.9-.3-11.6 6-22.6 15.8-29.3 12.8-8.8 30.6-9.2 44.6-3.7 6.3 2.5 11.9 6.1 16.6 10.8 7.9 7.9 12.5 17.9 13.7 29.9.6 5.7.2 11.4-1.1 17.2-4.2 18.2-17 32.7-33.9 40.5-9.1 4.2-18.3 6.5-27.7 6.9-.9 0-4.7.2-11.4.5-.6 0-3.3-.4-8-1.3-1.9-.4-3.9-.6-5.8-.8-2.8-.3-4.7-.8-5.8-1.5-2.8-1.9-6.1-3.3-10-4.2-2.2-.5-4.2-1.7-6.1-3.5-1.1-1.1-2.2-1.9-3.2-2.4-1.1-.5-2.2-1.3-3.5-2.2-6.1-4.4-11.2-9.5-15.3-15.4-1.3-1.8-2.6-3.3-3.8-4.4-1.9-1.7-3.5-3.8-4.7-6.4-1.9-4-3.6-7.4-5.2-10.1-1.1-1.9-1.8-5-2.2-9.5 0-.3-.1-.6-.3-.9-1.6-2.4-2.5-4.2-2.8-5.6-.9-4.4-1.8-7.9-3.3-12.4-.8-2.4-1.2-4.1-1.2-5.2.1-5.7-.3-11.5-1.4-17.3zm159.1-67.9c0-4.7-3.8-8.5-8.5-8.5s-8.6 3.8-8.6 8.5 3.8 8.5 8.6 8.5c4.7.1 8.5-3.8 8.5-8.5z"/><path class="st1" d="M153.3 48c.1.7.6 1.2 1.4 1.5.4.1.7.1 1.1-.1l.8-.5c.5-.3.7-.1.5.4-.2.7-.5 1.2-.9 1.5-2.7 2.1-6.7 1.6-7.2-2.3s3.2-5.5 6.3-4.1c.5.2 1 .6 1.3 1.2.3.5.1.7-.4.5l-.9-.2c-.4-.1-.7 0-1 .2-.8.6-1.1 1.2-1 1.9zM272.3 61.1c-.5.8-.2 1.9.6 2.4.2.1.4.2.5.2 1.8.4 3 .6 3.5.8 3.6.9 4.9 5.4 2.4 8-.8.8-2 1.3-3.6 1.4-2.2.1-4.2-.1-6-.7-.5-.2-.8-.5-.8-1v-1.8c0-.2.2-.4.4-.4.1 0 .2 0 .2.1 1.3.9 3.3 1.4 5.9 1.4.9 0 1.4-.5 1.6-1.5l.1-.5c.3-1.4-.3-2.1-1.7-2.3-4.4-.5-6.6-2.1-6.6-4.8 0-1.8.6-3.1 2-4s3-1.2 4.9-1c.8.1 2 .4 3.7.9.3.1.4.3.4.5v1.9c0 .3-.2.5-.5.5h-.2c-1.4-.6-2.4-1-2.9-1.1-1.9-.5-3.2-.1-3.9 1zm78.5 6.5h-2.2c-.3 0-.5-.2-.5-.5v-1.7c0-.2.2-.4.4-.4h5.3c.3 0 .5.2.5.4v6.2c0 .4-.2.7-.5.8-1.6.8-2.6 1.2-3.2 1.3-7.2.8-10.6-2.2-10.4-9.1.1-1.9.7-3.6 1.9-5 1-1.2 2.5-2 4.4-2.3 2.4-.4 4.8 0 7 1.2.4.2.5.5.5.9v2c0 .5-.2.6-.6.3-.7-.6-1.5-1-2.2-1.4-3.7-1.7-7.3-.3-7.9 3.9-.3 2.6.2 4.6 1.7 6.1.2.2.5.4.8.5 1.8.4 3.5.4 5 .1.3-.1.5-.3.5-.6V68c.1-.2-.1-.4-.5-.4zm89.8-1.9c0 1 .1 1.7.3 2.3 1.2 3.3 3.5 4.2 6.8 2.9 1.1-.4 1.9-.9 2.6-1.4.3-.2.4-.1.4.2v2.1c0 .4-.2.7-.5.9-1.1.7-2.4 1.1-4 1.3-3.9.4-6.7-1.1-8.1-4.6-.3-.7-.4-1.9-.4-3.7 0-1.8.2-3.1.5-3.8 1.5-3.4 4.3-4.9 8.2-4.5 1.6.2 3 .6 4 1.3.3.2.5.5.5.9v2.1c0 .4-.2.4-.4.2-.7-.5-1.5-1-2.6-1.4-3.4-1.4-5.7-.4-6.9 2.8-.2.7-.4 1.4-.4 2.4zm42.1 1.9h-2.1c-.3 0-.5-.2-.5-.5v-1.7c0-.2.1-.4.4-.4h5.5c.4 0 .6.2.6.7v6c0 .4-.2.6-.5.8-3.2 1.5-5.9 2-8.1 1.4-4.2-1.1-6.1-4.1-5.8-8.8.3-4.4 2.5-6.9 6.6-7.6 2.3-.4 4.6.1 7 1.4.1.1.2.2.2.3v2.9c0 .1-.1.2-.2.2h-.1c-1.8-1.3-3-2-3.6-2.1-3.8-.7-6.1.7-6.7 4.4-.4 2.3.4 6.2 3.2 6.7 1.3.2 2.8.2 4.3-.1.3-.1.5-.3.5-.6v-2.3c0-.5-.2-.7-.7-.7zm35.3-.4c0 3.7-3 6.8-6.7 6.8h-1.2c-3.7 0-6.8-3-6.8-6.7v-3c0-3.7 3-6.8 6.7-6.8h1.2c3.7 0 6.8 3 6.8 6.7v3zm-7.5 4.4c2.5 0 4.6-2.6 4.6-5.8 0-3.2-2-5.9-4.5-5.9s-4.6 2.6-4.6 5.8c0 3.2 2 5.9 4.5 5.9zM225.9 57.8h6.4c.3 0 .6.2.6.5v1.4c0 .3-.3.6-.6.6h-4.5c-.3 0-.5.2-.5.5l-.1 12.5c0 .3-.2.6-.6.6h-1.8c-.3 0-.6-.3-.6-.7l.1-12.5c0-.3-.2-.5-.5-.5h-4.5c-.3 0-.6-.3-.6-.6v-1.4c0-.3.3-.5.6-.5.6 0 2.7 0 6.6.1zm14.3 6.3h2.8c.3 0 .5-.2.5-.5v-5.2c0-.4.2-.5.5-.5h2c.3 0 .5.2.5.5v15c0 .4-.2.6-.6.6h-1.8c-.4 0-.6-.2-.6-.6v-6.2c0-.2-.2-.4-.4-.4h-5.6c-.2 0-.4.2-.4.4v6.2c0 .4-.2.6-.6.6h-1.8c-.4 0-.6-.2-.6-.6v-15c0-.3.2-.5.5-.5h2c.4 0 .5.2.5.5v5.2c0 .3.2.5.5.5h2.6zm12.8 0 6.7-.1c.2 0 .4.2.4.4l-.2 1.9c0 .2-.2.3-.4.3H253c-.2 0-.4.2-.4.4v3.8c0 .2.2.4.4.4h7.2c.2 0 .4.2.4.4v2c0 .2-.2.4-.4.4h-10.1c-.2 0-.4-.2-.4-.4V58.2c0-.2.2-.4.4-.4h9.8c.2 0 .4.2.4.4V60c0 .2-.2.4-.4.4H253c-.2 0-.4.2-.4.4v3.1s.2.2.4.2zm34.8-6.3h6.1c.5 0 .7.2.7.7v1.1c0 .4-.2.7-.7.7h-4.1c-.3 0-.5.2-.5.5v12.5c0 .3-.3.6-.6.6h-2c-.3 0-.6-.3-.6-.7l.1-12.4c0-.3-.1-.5-.5-.5h-4.1c-.4 0-.7-.2-.7-.7v-1.1c0-.5.2-.7.7-.7.6-.1 2.6-.1 6.2 0zm12-.1c.6 0 1 0 1.2.1.3.1.5.3.6.6l5.5 14.6c.2.5 0 .8-.5.8H305c-.5 0-.8-.2-1-.7l-1-2.8c-.1-.4-.4-.5-.8-.5h-5c-.4 0-.7.2-.8.6l-1 2.8c-.2.5-.5.7-1 .7h-1.6c-.5 0-.7-.2-.5-.8l5.6-14.6c.1-.3.3-.5.6-.6.3-.1.7-.2 1.3-.2zm0 9.7h1.5c.4 0 .6-.2.5-.4-.6-1.7-1.2-3.3-2-4.9 0-.1-.1-.1-.1-.1s-.1 0-.1.1c-.7 1.6-1.3 3.3-1.8 5-.1.3.1.4.5.4.1-.1.6-.1 1.5-.1zm17.8-.9 4 6.9c.2.3.1.4-.2.4h-2.7c-.2 0-.3-.1-.4-.2-.7-1.3-1.4-2.6-2-4-1-2.1-2.1-2.1-4-2.4-.4-.1-.6.1-.6.5v5.4c0 .4-.3.7-.7.7h-1.7c-.5 0-.9-.4-.9-.8V58.5c0-.4.2-.5.5-.6 3.6-.2 5.9-.2 6.9 0 2.5.5 3.6 2.2 3.5 4.9-.1 1.5-.6 2.5-1.5 3.1-.3.1-.4.3-.2.6zm-6-5.8v3.7c0 .2.2.4.4.4h1c1.7 0 3.1-.9 3.1-2v-.6c0-1.1-1.4-2-3.1-2h-1c-.2 0-.4.2-.4.5zm14.8 10.4h6.7c.3 0 .5.2.5.5v1.8c0 .3-.2.5-.5.5h-9.5c-.3 0-.5-.2-.5-.5V58.3c0-.3.2-.5.5-.5l1.9-.1c.3 0 .5.2.5.4v12.5c-.1.3.1.5.4.5zm9-13.3h2.1c.2 0 .4.2.4.4v15.4c0 .2-.2.4-.4.4h-2.1c-.2 0-.4-.2-.4-.4V58.1c.1-.2.2-.3.4-.3zm28.1 6.3h2.9c.3 0 .5-.2.5-.5v-5.3c0-.3.2-.5.5-.5h1.9c.3 0 .5.2.5.5v15c0 .4-.2.7-.7.7h-1.7c-.4 0-.6-.2-.6-.6v-6c0-.4-.2-.6-.5-.6-.4-.1-1.3-.1-2.9-.1-1.5 0-2.5 0-2.9.1s-.5.3-.5.6v6c0 .4-.2.6-.6.6h-1.7c-.4 0-.7-.2-.7-.7v-15c0-.3.2-.5.5-.5h1.9c.3 0 .5.2.5.5v5.3c0 .3.2.5.5.5h3.1zm14.4-6.3h6.3c.4 0 .7.2.7.7v1.3c0 .4-.2.5-.5.5h-4.5c-.3 0-.5.2-.5.5v12.4c0 .4-.2.6-.5.7h-1c-.5 0-.8 0-1-.1-.3-.1-.5-.3-.5-.7l.1-12.4c0-.3-.2-.5-.5-.5h-4.5c-.4 0-.5-.2-.5-.6v-1.3c0-.4.2-.7.7-.7.4.1 2.5.1 6.2.2zm14.8.3c0-.2.2-.4.4-.4h5.9c4 0 7.2 3 7.2 6.7V67c0 3.7-3.2 6.7-7.2 6.7h-5.9c-.2 0-.4-.2-.4-.4V58.1zm2.9 2.6v10.2c0 .2.2.3.3.3h2.8c2.4 0 4.4-1.9 4.4-4.2v-2.5c0-2.3-2-4.2-4.4-4.2H396c-.2 0-.4.2-.4.4zm18.4-3c.3 0 .7 0 1.1.1s.6.3.8.6l5.5 14.7c.2.5 0 .8-.5.8H419c-.4 0-.8-.3-.9-.7-.1-.9-.5-1.9-1.1-2.9-.1-.3-.4-.4-.6-.4h-5c-.3 0-.5.1-.7.4-.6 1-.9 2-1.1 2.9-.1.4-.4.7-.9.7h-1.8c-.5 0-.7-.3-.5-.8l5.6-14.7c.1-.4.4-.6.8-.6.5 0 .8-.1 1.2-.1zm-2 9.2c-.1.2 0 .4.2.4h3.4c.2 0 .4-.2.4-.3v-.1l-1.7-4.6c-.1-.2-.3-.3-.5-.2-.1 0-.2.1-.2.2l-1.6 4.6zm18.3-1.7c.5 1 1.1 2 1.8 3.1.2.3.3.3.3-.1v-9.8c0-.5.2-.7.7-.7h1.4c.5 0 .8.2.8.8v14.8c0 .3-.3.6-.6.6H432c-.2 0-.4-.3-.6-.6-.4-.6-1.6-2.9-3.6-6.9-.5-1-1.1-2-1.8-3.1-.2-.3-.3-.3-.3.1v9.8c0 .5-.2.7-.7.7h-1.4c-.5 0-.8-.2-.8-.8V58.3c0-.3.3-.6.6-.6h2.7c.2 0 .4.3.7.6.3.7 1.4 3 3.5 6.9zm25.6 1.8v3.8c0 .2.2.4.4.4h7.2c.2 0 .4.2.4.4v2c0 .2-.2.4-.4.4h-10c-.2 0-.4-.2-.4-.4V58.2c0-.2.2-.4.4-.4h10c.2 0 .4.2.4.4V60c0 .2-.2.4-.4.4h-7.2c-.2 0-.4.2-.4.4v3.1c0 .2.2.4.4.4h6.6c.2 0 .4.2.4.4l-.1 1.9c0 .2-.2.3-.4.3h-6.6c-.1-.3-.3-.1-.3.1zm42.7-.2 3.8 6.6c.2.3.1.5-.3.5h-2.3c-.4 0-.7-.2-.8-.5-.6-1.1-1.2-2.3-1.9-3.5-1.1-2.1-2.2-2.4-4.3-2.6-.4-.1-.7.1-.7.6v5.4c0 .5-.2.7-.7.7H490c-.4 0-.6-.2-.6-.6V58.5c0-.3.2-.5.5-.6 1-.1 2.2-.2 3.4-.2 2 0 3.1.1 3.4.1 1.5.3 2.5 1.1 3 2.6.7 2.1.4 3.9-1 5.3-.3.3-.3.7-.1 1.1zm-6.4-6.1v3.5c0 .3.2.5.5.5h.6c2.1 0 3.7-.9 3.8-2.1v-.3c0-1.2-1.6-2.1-3.7-2.1h-.6c-.3 0-.5.2-.6.5zm34.3 10.9c2.2 0 3.3-1.4 3.4-4.2.1-3.2.1-6.3 0-9.3 0-.3.1-.5.5-.5h2.1c.2 0 .4.2.4.4v10.2c0 2.2-1 3.9-2.8 5-1.1.7-1.9.5-3.5.5s-2.4.2-3.5-.5c-1.8-1.1-2.7-2.8-2.8-5.1-.1-3.4-.1-6.8 0-10.2 0-.2.2-.4.4-.4h2.1c.3 0 .5.2.5.5v9.3c-.1 3 1.1 4.3 3.2 4.3zm12.4-3.1v5c0 .3-.1.4-.4.4h-2c-.2 0-.4-.2-.4-.4V58.3c0-.3.2-.5.5-.5 2.6-.1 4.6 0 6.1.1 2.1.2 3.4 1.4 3.8 3.4.7 3.6-.6 5.7-4 6.3-.5.1-1.5.2-3.1.4-.4 0-.5.2-.5.5zm0-4.2c0 .5.4.9.9.9h.2l2.4-.5c.4-.1.7-.4.7-.9l.1-2.2c0-.5-.3-.9-.7-1L540 60c-.5-.1-1 .2-1.1.7v3.6z"/><path class="st0" d="M552.3 118.1c0 15.5-12.6 28.1-28.1 28.1s-28.1-12.6-28.1-28.1S508.7 90 524.2 90c15.5.1 28.1 12.6 28.1 28.1zm-7.9.1c0-11.1-9-20.2-20.2-20.2s-20.2 9-20.2 20.2c0 11.1 9 20.2 20.2 20.2 11.1-.1 20.2-9.1 20.2-20.2zm-372.6 0c.1 15.3 16.5 25.1 29.9 17.5 1.7-1 2.9-1.5 3.6-1.6 2.7-.5 4.7.1 6 1.8.7.9.6 2.2-.3 3-9.6 8.5-23.1 9.8-34 3.1-6.4-3.9-10.6-10-12.6-18.2-.4-1.8-.4-3.6-.4-5.5 0-2-.1-3.7.4-5.5 1.9-8.2 6-14.3 12.4-18.3 10.8-6.8 24.3-5.7 34 2.8.9.8 1 2.1.3 3-1.3 1.7-3.3 2.3-6 1.8-.7-.1-1.8-.6-3.6-1.6-13.5-7.5-29.8 2.5-29.7 17.7zm67.3-4.1c6.9 0 11.3 0 13.2-.1.3 0 .5-.2.5-.5V92.6c0-.9.7-1.7 1.6-1.9 1.7-.3 3.3-.3 4.6.1.9.2 1.5 1 1.5 1.9v50.6c0 .9-.6 1.7-1.5 1.9-1.4.3-2.9.4-4.6.1-.9-.2-1.6-1-1.6-1.9v-20.9c0-.3-.2-.5-.5-.5-1.8-.1-6.2-.1-13.1-.1-6.9 0-11.3 0-13.2.1-.3 0-.5.2-.5.5v20.9c0 .9-.7 1.7-1.6 1.9-1.7.3-3.2.3-4.6-.1-.9-.2-1.5-1-1.5-1.9V92.7c0-.9.6-1.7 1.5-1.9 1.4-.3 2.9-.4 4.6-.1.9.2 1.6 1 1.6 1.9v20.9c0 .3.2.5.5.5 1.8 0 6.2.1 13.1.1zm49.3-23.4c2.2 0 3.3.6 4.2 2.7 6.5 14.8 13.6 31 21.2 48.6 1 2.3.2 3.5-2.3 3.5h-.7c-2.6 0-4.5-1.2-5.5-3.6l-3.6-8c-.2-.3-.4-.5-.8-.6-.9-.1-5-.1-12.5-.1s-11.6 0-12.5.1c-.4 0-.6.2-.8.5l-3.6 8c-1.1 2.4-2.9 3.6-5.5 3.6h-.7c-2.5 0-3.3-1.2-2.3-3.5 7.6-17.6 14.7-33.8 21.2-48.6.9-2 2-2.6 4.2-2.6zm-9.4 34.2c-.1.2 0 .4.2.5h18.2c.2 0 .4-.2.4-.4v-.2l-8.9-21.4c-.1-.2-.3-.3-.5-.2-.1 0-.2.1-.2.2l-9.2 21.5zm85.4-15.9c-4.5 9.9-9.6 21.5-15.3 34.6-.2.5-.8 1-1.6 1.5-1.3.7-4.1.5-5.2.3-1.2-.2-2.1-.9-2.6-2-6.4-14.2-11.4-25.4-14.8-33.5-.6-1.4-.9-1.3-.9.2v32.7c0 1.8-.9 2.8-2.8 2.8h-2.5c-1.7 0-2.5-.8-2.5-2.5V93.7c0-1.4 1-2.6 2.3-2.8 3.9-.8 6.8.7 8.5 4.6 4 8.9 9.6 21.7 17 38.4.1.2.3.3.5.2.1 0 .1-.1.2-.2 4.5-10.3 9.6-21.8 15.3-34.7 1.4-3.2 2.5-5.2 3.1-6 1.7-2.1 4-2.8 7.1-2.3 1.4.3 2.4 1.4 2.4 2.8v49.2c0 1.8-.9 2.6-2.6 2.6h-2.4c-1.8 0-2.7-.9-2.7-2.7V109c-.1-.5-.3-.5-.5 0zm46.4 9.1c0 1.6.1 2.4-1.1 3.3-.6.4-1.6.6-2.9.6h-16.7c-.3 0-.5.2-.5.5v14.7c0 .3.2.5.5.5h23.5c1.5 0 2.3.8 2.3 2.3v3.1c0 1.6-.8 2.4-2.4 2.4h-29.2c-1.3 0-2.4-1.1-2.4-2.4v-50c0-1.3 1.1-2.4 2.4-2.4h29.2c1.6 0 2.4.8 2.4 2.4v3.1c0 1.5-.8 2.3-2.3 2.3h-23.5c-.3 0-.5.2-.5.5v14.7c0 .3.2.5.5.5 5 .1 10.6.1 16.7 0 1.3 0 2.3.2 2.9.6 1.2.9 1.1 1.7 1.1 3.3zm19.7 19.6h19.9c2.3 0 3.4 1.1 3.4 3.4v1.1c0 2.2-1.1 3.3-3.3 3.3h-25.3c-1.5 0-2.8-1.2-2.8-2.8V94.4c0-2.7 1.3-4 3.9-3.8h.2c2.5-.2 3.7 1.1 3.7 3.8v43c0 .2.1.3.3.3zm56.7-19.6c0 .9 0 1.7-.1 2.2-.1.9-.9 1.6-1.9 1.7h-19c-.1 0-.2.1-.2.2v15c0 .3.2.5.5.5H490c1.5 0 2.3.8 2.3 2.3v3.2c0 1.5-.7 2.2-2.2 2.2h-29.5c-1.2 0-2.3-1-2.3-2.3V92.9c0-1.2 1-2.3 2.3-2.2h29.5c1.5 0 2.2.8 2.2 2.2v3.2c0 1.5-.8 2.3-2.3 2.3h-23.5c-.3 0-.5.2-.5.5v15c0 .1.1.2.2.2h19c1 0 1.8.7 1.9 1.6.1.7.1 1.5.1 2.4zm79.6-13.8c-.3-.5-.5-.4-.5.2v38.8c0 1.5-.8 2.2-2.2 2.2h-3.2c-1.5 0-2.2-.8-2.2-2.2V92.8c0-1.1.8-1.9 1.9-2 3.2-.3 6.4-.3 8.5 2.6 9.6 13.7 18.2 25.9 25.5 36.7.4.6.6.6.6-.2V93c0-1.5.8-2.3 2.3-2.3h3.2c1.5 0 2.2.8 2.2 2.3v50.5c0 .9-.7 1.7-1.6 1.9-1.5.3-3.1.2-4.8 0-.6-.1-1.2-.6-1.8-1.4-3.5-4.8-12.8-18-27.9-39.7z"/><path class="st1" d="M256 172h-2c-.3 0-.5-.2-.5-.5v-.5c0-.7.3-1 1-1h1.6c.4 0 .5-.2.5-.5v-4.2c0-.8.4-1.3 1.3-1.3h.4c.4 0 .6.2.6.6v4.9c0 .3.2.5.5.5h4.1c.3 0 .6.3.6.6v.8c0 .4-.2.6-.6.6h-4.1c-.3 0-.5.2-.5.5v10.7c0 1 .8 1.7 1.7 1.8 1.4.1 2.2.1 2.2.1 1.7.2 1.8.7.4 1.4-1.9 1-3.6.8-5.3-.5-.9-.7-1.3-2.1-1.3-4v-9.3c0-.5-.2-.7-.6-.7zm-47.6 6.5c0 1.5.3 2.7 1 3.6 2.4 3 5.4 3.8 9.3 2.1.8-.4 1.6-.2 2.3.4.3.2.2.4-.1.6-3.5 2.1-6.7 2.4-9.6.9-3.4-1.7-5.1-4.3-5.1-7.6s1.7-5.9 5.1-7.6c2.9-1.5 6.1-1.2 9.6.9.3.2.3.4.1.6-.7.6-1.4.8-2.2.4-3.8-1.6-6.9-.9-9.3 2.1-.7.9-1.1 2.1-1.1 3.6zm31.7 0c0 4.7-4.1 8.5-9 8.5-5 0-9-3.8-9-8.5s4.1-8.5 9-8.5c5 0 9 3.8 9 8.5zm-2.3 0c0-3.6-3-6.5-6.7-6.6-3.7 0-6.8 2.9-6.8 6.5s3 6.5 6.7 6.6c3.8 0 6.8-2.9 6.8-6.5zm6.7-5.8c-.8.7-.9 2-.2 2.8.2.2.4.4.7.5.5.2 1.8.7 4 1.6 3 1.2 4.4 3.9 2.6 6.8-2.1 3.3-7.7 3.8-10.1.4-.1-.2-.1-.4.1-.6 0 0 .1-.1.2-.1 2-.4 3.1 1.1 4.8 1 3.4-.1 5.4-4.3 1.4-5.8-1.9-.7-4.1-1.2-5.3-2.5-2.2-2.4-.8-5.5 2.1-6.6 2.1-.8 4.2-.2 6.2 1.6.5.4.4.7-.2.9-.8.3-1.5.2-2.1-.1-1.5-.8-2.9-1-4.2.1zm34.3 12.2c-2.4 2-4.8 2.6-7.3 1.9-2.7-.8-4.2-3-4.4-6.5-.2-2.9-.2-6.2-.1-9.8 0-.3.2-.5.5-.5h1.3c.3 0 .5.2.5.5v10.3c0 2.9 1.5 4.3 4.4 4l1.3-.1c2.8-.2 4.2-1.8 4.2-4.6v-10c0-.2.1-.2.2-.2h1.7c.2 0 .3.1.3.3v16.1c0 .3-.2.5-.5.5h-1.1c-.4 0-.6-.2-.7-.6-.1-.4 0-.8.1-1.3.1-.2-.1-.3-.4 0zm10.3-13.1c.3-.3.4-.5.6-.6 2.8-1.8 5.3-1.7 7.6.5.2.2.4.5.5.8.1.2.1.3.2.4.2.1.3.1.5-.1 2.2-2.7 4.8-3.5 7.8-2.3 2.2.8 3.3 2.7 3.4 5.7.1 2.7.1 6.2.1 10.4 0 .3-.2.5-.5.5H308c-.3 0-.5-.2-.5-.5l-.1-10.6c0-2.6-1.4-3.9-4-3.9h-.2c-2.7.2-4.1 1.5-4.1 3.9v10.5c0 .2-.2.4-.5.4h-1.2c-.3 0-.5-.2-.5-.5l-.2-10.7c-.1-2.6-1.4-3.8-4-3.7h-.3c-2.6.2-3.8 1.6-3.8 4.1v10.3c0 .3-.1.4-.4.4H287c-.3 0-.5-.2-.5-.5v-15.9c0-.3.2-.5.5-.5h1c.3 0 .6.2.7.6.1.4.1.7 0 1-.3.7-.1.8.4.3zm26 7.3c-.7.1-.9.4-.7 1.1 1.5 3.8 5.3 5.9 9.3 4.3 1-.4 1.9-.6 2.5-.6 1.7.1 1.8.6.2 1.5-3.6 2-6.9 2.1-10 .2-8.8-5.2-2.9-17.1 6.1-15.6 3.2.5 5.5 2.4 6.9 5.5.3.6.3 1.2.2 1.8-.2 1.4-1.5 1.6-2.7 1.6-5.2 0-9.2 0-11.8.2zm-.2-2.1 12.5-.1v-.1c0-2.7-2.8-4.8-6.2-4.8h-.2c-3.4 0-6.2 2.2-6.1 4.8v.2c-.1 0 0 0 0 0zm42.2-5.2c2.1-1.6 4.3-2.1 6.6-1.7 8.7 1.6 9.8 13.8 1.1 16.5-2.8.9-5.4.4-7.7-1.6-.3-.3-.5-.2-.5.2v7.2c0 .3-.1.4-.4.4H355c-.3 0-.5-.2-.5-.5v-21.9c0-.3.2-.5.5-.5h1c.4 0 .6.2.7.6v.9c-.2.6 0 .7.4.4zm7.5 12.7c2.8-1.1 4.1-3.2 4-6.3-.1-3.3-1.9-5.4-5.3-6.2-1.8-.4-3.8.2-6.1 1.9-.3.2-.5.5-.5.9v6.7c0 .4.1.7.4.9 2.2 2.5 4.8 3.2 7.5 2.1z"/><path class="st1" d="M375.2 172.1c2.1-1.9 4.5-2.5 7.2-2 .3 0 .4.3.4.5v.1l-.4.8c-.1.3-.4.4-.7.4-2.7-.2-4.9.8-6.6 2.9-.2.3-.3.6-.3.9v10.7c0 .4-.2.6-.6.6H373c-.3 0-.5-.2-.5-.5v-16c0-.3.2-.5.5-.5h1c.4 0 .7.2.8.6.1.4.1.8 0 1.2-.2.6 0 .7.4.3zm26.9 6.4c0 4.7-4.1 8.5-9 8.5-5 0-9-3.8-9-8.5s4.1-8.5 9-8.5c5 0 9 3.8 9 8.5zm-2.2 0c0-3.6-3-6.5-6.7-6.6-3.7 0-6.8 2.9-6.8 6.5s3 6.5 6.7 6.6c3.7 0 6.7-2.9 6.8-6.5zm8.2-6.6c2.6-1.9 5.4-2.4 8.2-1.3 7.4 2.7 7.3 13.2-.1 16-2.9 1.1-5.7.6-8.2-1.4-.3-.2-.4-.2-.4.2v7.3c0 .2-.2.4-.4.4H406c-.3 0-.5-.2-.5-.5v-21.9c0-.3.2-.5.5-.5h1.1c.4 0 .6.2.6.6.1.5 0 .8-.1 1.1-.2.2 0 .3.5 0zm7.5 12.6c2.8-1.1 4.1-3.1 4-6.1-.2-4.4-2.7-6.6-7.3-6.5-1.1 0-2.4.7-4.2 2-.3.2-.4.5-.4.8v6.6c0 .4.1.7.4.9 2.2 2.7 4.7 3.4 7.5 2.3z"/><path class="st1" d="M425.9 174c-.1.9.5 1.8 1.4 2.1 2.8.9 8.1 2.5 7 6.6-1.2 4.6-8 5.9-10.8 2-.2-.3-.2-.5.2-.6 1.7-.5 2.9.8 4 .9 1.8.1 3.1-.4 3.9-1.7.7-1.1.5-2.5-.6-3.3h-.1c-1.7-1.1-5.3-1.6-6.6-3.3-1.9-2.5-.5-5.5 2.3-6.4 2.3-.7 4.4-.1 6.3 1.9.3.3.2.5-.1.6-1 .4-2 .3-2.8-.4-.3-.2-.6-.3-.9-.3-2-.2-3.1.5-3.2 1.9zm38.6 9.7c2.4-3.6-2.3-4.6-4.4-5.4-1.3-.5-2.2-1.1-2.7-1.8-1.8-2.5-.4-5.2 2.3-6.2 2.3-.8 4.4-.3 6.4 1.7.3.3.2.5-.1.7l-.7.2c-.6.2-1.2.1-1.7-.2-1.3-1-2.6-1-3.8-.1-.9.6-1.1 1.9-.4 2.8.2.3.5.5.8.7.8.4 1.9.8 3.4 1.3 3.4 1.3 5.4 4.1 2.7 7.5-2.4 3-7.3 2.7-9.6 0-.3-.3-.2-.5.2-.7 1.8-.7 3.2 1.1 4.5.9 1.6-.3 2.7-.8 3.1-1.4zm6.9-5.2c0 .9.1 1.5.2 1.8 2 4.5 5.4 5.8 10.3 3.8.8-.3 1.5-.2 2.1.4.3.2.2.5-.1.6-3.4 2.1-6.6 2.4-9.4 1.1-3.5-1.7-5.3-4.3-5.3-7.7s1.8-6 5.3-7.8c2.8-1.4 6-1.1 9.4 1 .3.2.3.4.1.6-.6.6-1.3.7-2.1.4-4.9-1.9-8.3-.6-10.2 3.9-.2.5-.3 1.1-.3 1.9zm16.6.5c-.4 0-.6.3-.6.6v.2c1.2 3.3 3.4 5 6.8 5.2.7 0 1.6-.2 2.8-.6 1.1-.4 2.1-.6 2.9-.5 1.1.1 1.2.4.3 1.1-3.2 2.2-6.3 2.6-9.4 1.2-5.5-2.4-7.4-8.7-3.3-13.3 1.3-1.4 2.9-2.4 4.9-2.8 4.5-.9 8 .8 10.3 5.2.7 1.3.6 2.4-.5 3.3-.3.2-.6.3-1 .3H488v.1zm-.1-2h12.5v-.1c0-2.6-2.8-4.8-6.2-4.8h-.2c-3.4 0-6.2 2.2-6.1 4.9-.1-.1-.1-.1 0 0-.1 0 0 0 0 0zm21.1-4.9c.6-.3 1.2-.7 1.9-1.1 3.1-1.8 5.9-1.4 8.2 1.1 1 1.1 1.5 2.9 1.5 5.4v9c0 .3-.2.5-.5.5H519c-.3 0-.5-.2-.5-.5v-10.1c0-3-1.5-4.4-4.5-4.2l-.8.1c-3 .2-4.6 1.8-4.6 4.9v9.4c0 .3-.2.5-.5.5h-1.3c-.3 0-.5-.1-.5-.4v-16.1c0-.3.1-.4.5-.4h1.2c.2 0 .4.2.5.4.1.5.1 1 0 1.3s.1.5.5.2zm17.4 7.8c1 3.2 3.2 5 6.7 5.2 1.9.1 3.7-1.2 5.7-1.1.9.1 1 .4.3 1-3.9 3.1-9.6 2.7-12.9-1.1-3.3-3.9-2.6-9.2 1.5-12.2 2.8-2 5.8-2.3 8.9-1.1 2.6 1 4.3 3 5.1 5.8.3 1.1-.3 2.2-1.4 2.5-.2.1-.4.1-.6.1H527c-.4 0-.7.3-.7.7.1 0 .1.1.1.2zm.8-4.5c-.8 1.1-.6 1.6.8 1.6h11c.3 0 .6-.3.6-.6 0-.1 0-.2-.1-.3-1.8-3.3-4.3-4.6-7.7-4.1-1.5.3-2.9 1-3.8 2.2l-.8 1.2zm20.1-3.4c2.1-1.8 4.5-2.5 7-1.9.5.1.6.4.4.8l-.1.3c-.3.5-.7.8-1.3.8-2.5-.1-4.6.8-6.2 2.9-.2.3-.3.6-.3.9v10.9c0 .2-.2.3-.3.3H545c-.3 0-.5-.1-.5-.4v-16c0-.3.2-.5.5-.5h1c.4 0 .7.2.7.6.1.4.1.8 0 1.1 0 .5.2.6.6.2zm16.8 11.5 5.7-12.6c.2-.5.7-.7 1.2-.8h1c.3 0 .4.2.3.5l-9.7 21.4c-.3.6-.9 1-1.6 1h-.6c-.6 0-.8-.3-.5-.8.7-1.1 1.4-2.7 2.2-4.7.4-.9.3-1.9-.2-2.8-.7-1.2-2.8-5.9-6.4-14-.2-.6-.1-.8.5-.7l.9.1c.5.1.9.4 1.1.9l5.6 12.5c.3.2.4.2.5 0z"/><circle class="st0" cx="340.1" cy="176.9" r="2.9"/><circle class="st0" cx="445.5" cy="176.9" r="2.9"/></svg>