<?xml version="1.0" encoding="UTF-8" standalone="no"?>
<!DOCTYPE svg PUBLIC "-//W3C//DTD SVG 1.1//EN" "http://www.w3.org/Graphics/SVG/1.1/DTD/svg11.dtd">
<svg xmlns="http://www.w3.org/2000/svg" version="1.1" viewBox="0.00 0.00 896.00 265.00">
<path fill="#ffffff" d="
  M 71.91 121.53
  Q 72.25 105.96 58.13 100.69
  Q 43.05 95.06 30.65 89.89
  Q 27.11 88.41 22.69 85.59
  Q 14.73 80.50 12.14 71.80
  Q 6.82 53.91 18.57 40.11
  Q 24.60 33.04 34.15 29.44
  Q 53.46 22.15 70.64 33.99
  Q 74.09 36.37 81.11 43.84
  Q 81.42 44.18 81.06 44.46
  Q 76.65 48.01 74.81 48.59
  C 68.22 50.68 64.41 47.79 59.38 43.92
  Q 56.24 41.50 50.75 41.10
  Q 39.53 40.27 31.27 47.47
  Q 22.21 55.37 25.46 67.27
  Q 26.14 69.79 28.21 72.04
  Q 30.54 74.60 35.24 76.84
  Q 37.14 77.74 44.78 80.45
  Q 55.27 84.17 65.87 88.64
  C 73.68 91.94 80.55 98.19 83.48 106.41
  Q 86.94 116.12 85.54 126.87
  C 82.63 149.19 60.91 160.07 40.07 158.72
  Q 16.93 157.22 5.14 136.77
  A 0.55 0.55 0.0 0 1 5.30 136.04
  Q 15.28 129.29 23.57 136.78
  Q 26.07 139.03 26.08 139.04
  Q 32.81 144.72 43.80 144.63
  Q 53.90 144.56 60.79 140.57
  Q 71.63 134.30 71.91 121.53
  Z"
/>
<path fill="#ffffff" d="
  M 639.66 107.81
  Q 636.97 107.62 631.67 107.82
  Q 627.90 107.96 625.59 106.86
  Q 618.31 103.37 618.51 94.26
  Q 618.52 93.75 619.04 93.75
  L 653.74 93.75
  Q 654.24 93.75 654.24 94.25
  L 654.24 144.27
  A 1.19 1.17 69.8 0 1 653.84 145.16
  Q 644.74 153.09 632.64 156.16
  Q 621.82 158.90 607.74 158.95
  Q 586.90 159.02 570.11 147.73
  C 552.39 135.81 541.68 116.56 540.84 95.26
  C 540.04 75.15 548.48 55.65 563.91 42.53
  Q 580.74 28.21 602.47 26.81
  C 621.99 25.55 639.94 32.20 653.83 46.10
  A 0.39 0.38 -42.9 0 1 653.80 46.65
  Q 653.73 46.71 651.16 48.96
  C 647.11 52.51 641.13 52.97 637.03 50.19
  Q 625.52 42.39 612.80 41.00
  C 582.02 37.66 555.92 61.09 554.83 91.56
  Q 554.53 99.99 557.59 109.08
  C 562.75 124.42 575.28 136.49 590.36 141.88
  Q 599.47 145.13 609.96 144.84
  Q 625.82 144.40 639.89 136.12
  A 0.73 0.73 0.0 0 0 640.25 135.49
  L 640.25 108.44
  Q 640.25 107.85 639.66 107.81
  Z"
/>
<path fill="#ffffff" d="
  M 139.30 28.00
  Q 184.70 28.02 187.32 28.12
  Q 187.92 28.14 187.92 28.74
  L 187.92 41.66
  Q 187.92 42.26 187.31 42.26
  L 146.76 42.26
  Q 146.26 42.26 146.26 42.77
  L 146.26 156.93
  Q 146.26 157.42 145.76 157.44
  Q 144.08 157.51 139.23 157.50
  Q 134.37 157.50 132.69 157.43
  Q 132.19 157.41 132.20 156.92
  L 132.32 42.76
  Q 132.32 42.25 131.82 42.25
  L 91.27 42.21
  Q 90.66 42.21 90.66 41.61
  L 90.67 28.69
  Q 90.67 28.09 91.27 28.07
  Q 93.89 27.98 139.30 28.00
  Z"
/>
<path fill="#ffffff" d="
  M 728.43 85.25
  Q 746.20 85.25 763.89 85.24
  Q 764.17 85.24 764.17 84.96
  L 764.17 28.54
  Q 764.17 28.00 764.71 28.00
  L 777.40 28.00
  Q 778.05 28.00 778.05 28.65
  L 778.05 156.98
  Q 778.05 157.50 777.53 157.50
  L 764.70 157.50
  Q 764.17 157.50 764.17 156.97
  L 764.17 99.56
  A 0.26 0.26 0.0 0 0 763.91 99.30
  Q 746.22 99.25 728.43 99.25
  Q 710.63 99.25 692.94 99.30
  A 0.26 0.26 0.0 0 0 692.68 99.56
  L 692.69 156.97
  Q 692.69 157.50 692.16 157.50
  L 679.33 157.50
  Q 678.81 157.50 678.81 156.98
  L 678.80 28.65
  Q 678.80 28.00 679.45 28.00
  L 692.14 28.00
  Q 692.68 28.00 692.68 28.54
  L 692.68 84.96
  Q 692.68 85.24 692.96 85.24
  Q 710.65 85.25 728.43 85.25
  Z"
/>
<path fill="#ffffff" d="
  M 841.80 28.00
  Q 887.23 28.02 889.86 28.11
  Q 890.43 28.13 890.43 28.69
  L 890.43 41.66
  Q 890.43 42.26 889.82 42.26
  L 849.02 42.26
  A 0.25 0.25 0.0 0 0 848.77 42.51
  L 848.77 157.17
  A 0.29 0.29 0.0 0 1 848.48 157.46
  Q 845.16 157.51 841.74 157.51
  Q 838.32 157.51 835.00 157.45
  A 0.29 0.29 0.0 0 1 834.71 157.16
  L 834.81 42.50
  A 0.25 0.25 0.0 0 0 834.56 42.25
  L 793.76 42.22
  Q 793.15 42.22 793.15 41.62
  L 793.16 28.65
  Q 793.16 28.09 793.73 28.07
  Q 796.37 27.98 841.80 28.00
  Z"
/>
<path fill="#ffffff" d="
  M 230.69 28.25
  Q 233.44 28.25 236.10 28.30
  A 0.56 0.55 -10.7 0 1 236.60 28.63
  L 292.66 156.82
  Q 292.89 157.36 292.31 157.40
  Q 288.83 157.64 285.28 157.47
  Q 280.40 157.24 277.23 154.26
  Q 275.26 152.40 273.06 147.27
  Q 268.91 137.57 264.72 127.93
  Q 264.56 127.57 264.16 127.56
  Q 247.49 127.49 230.71 127.49
  Q 213.93 127.49 197.25 127.58
  Q 196.85 127.58 196.69 127.94
  Q 192.51 137.58 188.36 147.29
  Q 186.16 152.42 184.19 154.28
  Q 181.03 157.26 176.15 157.49
  Q 172.60 157.66 169.12 157.42
  Q 168.54 157.38 168.77 156.84
  L 224.78 28.63
  A 0.56 0.55 10.7 0 1 225.27 28.30
  Q 227.93 28.25 230.69 28.25
  Z
  M 203.29 113.03
  A 0.34 0.34 0.0 0 0 203.60 113.50
  L 257.80 113.50
  A 0.34 0.34 0.0 0 0 258.11 113.03
  L 231.01 50.91
  A 0.34 0.34 0.0 0 0 230.39 50.91
  L 203.29 113.03
  Z"
/>
<path fill="#ffffff" d="
  M 357.84 101.47
  A 0.22 0.21 -25.7 0 0 357.72 101.81
  L 399.08 156.89
  Q 399.50 157.44 398.80 157.46
  Q 393.88 157.59 390.06 157.46
  Q 385.53 157.31 381.83 155.29
  Q 379.42 153.98 376.02 149.43
  Q 358.31 125.78 340.42 102.04
  A 0.73 0.72 71.2 0 0 339.84 101.75
  L 317.50 101.75
  Q 317.00 101.75 317.00 102.25
  L 317.00 157.00
  Q 317.00 157.51 316.49 157.51
  L 303.51 157.51
  Q 303.00 157.51 303.00 157.00
  L 303.00 28.79
  Q 303.00 28.29 303.50 28.28
  Q 317.46 28.24 346.32 28.21
  Q 354.79 28.20 359.02 29.48
  C 382.96 36.72 392.66 63.22 380.40 84.67
  Q 372.83 97.92 357.84 101.47
  Z
  M 317.00 42.73
  L 317.00 87.29
  A 0.50 0.50 0.0 0 0 317.50 87.79
  L 348.50 87.79
  A 23.18 22.78 0.0 0 0 371.68 65.01
  L 371.68 65.01
  A 23.18 22.78 -0.0 0 0 348.50 42.23
  L 317.50 42.23
  A 0.50 0.50 0.0 0 0 317.00 42.73
  Z"
/>
<path fill="#ffffff" d="
  M 426.62 143.48
  L 483.86 143.51
  A 0.38 0.38 0.0 0 1 484.24 143.89
  L 484.25 157.13
  A 0.38 0.38 0.0 0 1 483.87 157.51
  L 412.62 157.51
  A 0.38 0.38 0.0 0 1 412.24 157.13
  L 412.25 28.63
  A 0.38 0.38 0.0 0 1 412.63 28.25
  L 425.86 28.24
  A 0.38 0.38 0.0 0 1 426.24 28.62
  L 426.24 143.10
  A 0.38 0.38 0.0 0 0 426.62 143.48
  Z"
/>
<rect fill="#ffffff" x="503.25" y="28.25" width="14.00" height="129.26" rx="0.38"/>
<path fill="#ffffff" d="
  M 206.27 205.58
  Q 201.32 199.80 204.68 193.21
  Q 207.74 187.22 215.04 186.78
  Q 221.28 186.41 226.51 191.90
  Q 226.91 192.32 226.37 192.53
  Q 223.05 193.85 220.57 192.63
  Q 213.35 189.08 209.04 194.73
  Q 206.08 198.62 209.53 202.67
  Q 213.11 206.86 221.44 214.67
  Q 222.42 215.58 224.80 218.32
  A 0.42 0.42 0.0 0 0 225.46 218.29
  L 229.90 212.14
  A 2.65 2.64 17.8 0 1 232.05 211.04
  L 235.36 211.04
  Q 236.27 211.04 235.74 211.78
  L 228.88 221.28
  Q 228.41 221.94 228.98 222.52
  L 236.76 230.29
  Q 238.18 231.71 236.18 231.44
  L 233.08 231.03
  Q 230.84 230.73 229.23 229.12
  L 226.04 225.93
  Q 225.72 225.61 225.37 225.91
  Q 217.32 232.93 208.34 230.69
  Q 203.36 229.45 200.18 224.86
  Q 197.37 220.81 198.34 215.80
  Q 199.62 209.22 206.17 206.09
  Q 206.55 205.90 206.27 205.58
  Z
  M 209.82 209.16
  Q 209.64 208.98 209.42 209.08
  C 205.69 210.59 202.16 214.16 202.45 218.43
  Q 202.64 221.07 204.77 223.36
  Q 209.19 228.09 216.25 226.05
  Q 218.22 225.48 221.89 221.96
  Q 222.26 221.60 221.89 221.23
  L 209.82 209.16
  Z"
/>
<path fill="#ffffff" d="
  M 6.13 187.99
  A 0.26 0.26 0.0 0 1 6.39 187.73
  L 22.01 187.73
  A 21.76 21.43 -0.0 0 1 43.77 209.16
  L 43.77 209.84
  A 21.76 21.43 -0.0 0 1 22.01 231.27
  L 6.39 231.27
  A 0.26 0.26 0.0 0 1 6.13 231.01
  L 6.13 187.99
  Z
  M 10.25 192.59
  L 10.25 226.43
  A 0.35 0.35 0.0 0 0 10.60 226.78
  L 21.62 226.78
  A 17.79 17.00 0.0 0 0 39.41 209.78
  L 39.41 209.24
  A 17.79 17.00 0.0 0 0 21.62 192.24
  L 10.60 192.24
  A 0.35 0.35 0.0 0 0 10.25 192.59
  Z"
/>
<path fill="#ffffff" d="
  M 281.93 225.27
  A 0.32 0.31 -44.6 0 0 282.51 225.27
  L 298.61 189.06
  Q 298.85 188.52 299.41 188.34
  Q 301.80 187.56 304.08 187.78
  Q 304.56 187.83 304.56 188.31
  L 304.56 230.97
  Q 304.56 231.23 304.30 231.23
  L 300.71 231.23
  Q 300.44 231.23 300.44 230.96
  L 300.44 196.27
  Q 300.44 195.74 300.23 196.22
  L 284.92 230.66
  A 1.02 1.00 -77.7 0 1 284.00 231.26
  L 280.32 231.26
  Q 279.77 231.26 279.55 230.75
  L 264.94 197.33
  Q 264.25 195.75 264.25 197.48
  L 264.25 230.99
  Q 264.25 231.24 264.00 231.24
  L 260.27 231.24
  Q 260.07 231.24 260.07 231.04
  L 260.07 188.29
  Q 260.07 187.84 260.52 187.79
  C 264.16 187.35 265.60 188.17 267.19 191.77
  Q 273.56 206.19 281.93 225.27
  Z"
/>
<circle fill="#ffffff" cx="372.90" cy="191.00" r="3.31"/>
<rect fill="#ffffff" x="445.75" y="187.75" width="4.18" height="43.50" rx="0.32"/>
<path fill="#ffffff" d="
  M 489.82 187.75
  Q 498.32 187.75 505.76 187.77
  Q 506.22 187.77 506.22 188.22
  L 506.22 191.75
  Q 506.22 192.25 505.73 192.25
  L 492.45 192.25
  Q 491.87 192.25 491.87 192.82
  L 491.87 230.66
  Q 491.87 231.12 491.42 231.17
  Q 490.83 231.25 489.80 231.25
  Q 488.78 231.25 488.19 231.17
  Q 487.74 231.12 487.74 230.66
  L 487.76 192.82
  Q 487.76 192.25 487.18 192.25
  L 473.90 192.24
  Q 473.41 192.24 473.41 191.74
  L 473.41 188.21
  Q 473.41 187.76 473.87 187.76
  Q 481.31 187.74 489.82 187.75
  Z"
/>
<path fill="#ffffff" d="
  M 516.12 202.68
  Q 517.55 200.68 519.72 199.91
  Q 526.24 197.60 530.99 199.75
  Q 534.81 201.47 536.44 205.74
  Q 536.85 206.80 537.32 209.56
  Q 537.66 211.60 537.65 213.59
  Q 537.62 222.33 537.64 230.82
  Q 537.64 231.23 537.22 231.23
  L 533.53 231.23
  Q 533.19 231.23 533.19 230.89
  Q 533.22 221.56 533.20 214.76
  Q 533.18 209.10 532.11 206.95
  Q 530.00 202.70 523.87 203.38
  Q 519.77 203.84 516.76 207.34
  Q 515.64 208.63 515.64 211.03
  Q 515.62 224.49 515.64 231.03
  Q 515.64 231.24 515.42 231.24
  L 511.40 231.24
  A 0.21 0.21 0.0 0 1 511.19 231.03
  L 511.19 188.43
  Q 511.19 187.75 511.87 187.75
  L 514.55 187.75
  Q 515.63 187.75 515.63 188.82
  L 515.63 202.52
  Q 515.63 203.37 516.12 202.68
  Z"
/>
<path fill="#ffffff" d="
  M 714.55 202.33
  Q 715.64 203.63 716.14 203.94
  Q 717.84 205.01 722.07 206.31
  Q 727.04 207.84 730.21 209.87
  Q 733.46 211.95 734.13 216.42
  Q 735.25 223.79 730.58 227.79
  Q 726.79 231.04 720.56 231.24
  Q 712.87 231.48 708.12 225.18
  Q 706.73 223.34 708.86 223.01
  L 709.52 222.91
  A 4.70 3.57 -21.5 0 1 713.32 223.98
  Q 716.57 227.44 722.57 226.58
  Q 725.58 226.14 727.56 224.30
  C 730.55 221.52 731.28 217.31 728.57 214.07
  Q 727.28 212.53 723.88 211.26
  Q 717.38 208.84 714.63 207.61
  C 711.62 206.27 709.31 203.19 709.23 199.82
  Q 709.11 194.37 712.49 191.43
  Q 718.53 186.16 726.26 188.45
  Q 729.35 189.37 732.56 192.64
  A 0.39 0.39 0.0 0 1 732.50 193.23
  Q 729.94 194.94 727.50 193.76
  Q 719.64 189.96 714.71 195.79
  C 713.56 197.15 713.56 198.63 713.70 200.36
  Q 713.79 201.42 714.55 202.33
  Z"
/>
<path fill="#ffffff" d="
  M 775.11 202.63
  Q 776.96 200.41 779.04 199.76
  Q 785.52 197.75 789.91 199.68
  Q 793.77 201.39 795.37 205.63
  C 796.01 207.34 796.65 210.68 796.65 212.81
  Q 796.64 221.91 796.63 230.85
  Q 796.63 231.23 796.25 231.23
  L 792.51 231.23
  Q 792.17 231.23 792.17 230.90
  Q 792.18 229.87 792.20 214.74
  Q 792.21 209.04 791.09 206.99
  Q 788.70 202.62 782.88 203.37
  Q 778.67 203.92 775.76 207.35
  Q 774.56 208.75 774.60 211.03
  Q 774.65 213.91 774.63 231.00
  Q 774.63 231.24 774.39 231.24
  L 770.40 231.24
  A 0.22 0.21 -0.0 0 1 770.18 231.03
  L 770.18 188.52
  Q 770.18 187.73 770.97 187.73
  L 773.39 187.73
  Q 774.62 187.73 774.62 188.97
  L 774.62 202.46
  Q 774.62 203.21 775.11 202.63
  Z"
/>
<rect fill="#ffffff" x="879.75" y="187.75" width="4.18" height="43.50" rx="0.32"/>
<path fill="#ffffff" d="
  M 614.73 203.26
  L 610.72 203.26
  Q 609.43 203.26 609.43 201.97
  L 609.43 200.74
  Q 609.43 198.81 611.36 198.81
  L 614.80 198.81
  Q 615.31 198.81 615.31 198.30
  L 615.31 191.29
  Q 615.31 188.88 617.47 188.74
  Q 617.64 188.73 617.80 188.70
  Q 619.81 188.29 619.77 190.47
  L 619.65 198.21
  Q 619.64 198.75 620.19 198.75
  L 628.60 198.75
  Q 628.94 198.75 628.94 199.09
  L 628.94 202.91
  Q 628.94 203.25 628.59 203.25
  L 620.24 203.25
  A 0.58 0.57 -90.0 0 0 619.67 203.83
  Q 619.72 216.13 619.68 222.32
  Q 619.66 224.70 620.92 225.81
  Q 622.78 227.42 625.11 226.43
  Q 626.09 226.01 627.05 226.49
  Q 628.46 227.21 629.26 228.05
  Q 629.97 228.79 629.10 229.32
  Q 625.61 231.46 621.79 231.16
  Q 618.16 230.87 616.05 227.11
  Q 615.17 225.54 615.25 220.75
  Q 615.35 214.65 615.24 203.77
  Q 615.24 203.26 614.73 203.26
  Z"
/>
<path fill="#ffffff" d="
  M 69.31 227.84
  A 0.15 0.15 0.0 0 0 69.08 227.70
  Q 62.79 232.18 55.72 231.00
  Q 50.85 230.19 48.56 226.36
  Q 45.74 221.64 49.66 216.48
  Q 51.11 214.57 55.63 213.45
  Q 61.09 212.09 68.70 213.38
  A 0.43 0.42 3.9 0 0 69.20 212.95
  Q 69.10 210.79 68.17 208.51
  Q 65.24 201.35 57.54 203.95
  Q 55.93 204.49 53.54 205.17
  Q 52.09 205.59 49.86 203.96
  Q 49.38 203.61 49.81 203.20
  Q 55.29 198.09 63.02 198.85
  Q 68.48 199.39 71.30 204.22
  Q 72.39 206.09 73.00 209.05
  Q 73.67 212.31 73.68 214.08
  Q 73.71 221.29 73.68 230.75
  Q 73.68 231.24 73.19 231.24
  L 70.29 231.24
  Q 69.84 231.24 69.65 230.84
  Q 69.07 229.62 69.31 227.84
  Z
  M 69.28 217.99
  A 0.15 0.14 -85.6 0 0 69.16 217.84
  Q 61.67 216.49 55.57 218.06
  Q 52.85 218.76 51.83 222.46
  Q 51.68 222.99 52.03 223.43
  C 53.40 225.15 53.89 226.11 56.04 226.46
  Q 59.85 227.07 64.08 225.59
  Q 66.58 224.72 68.84 223.79
  Q 69.28 223.61 69.28 223.14
  L 69.28 217.99
  Z"
/>
<path fill="#ffffff" d="
  M 86.08 203.00
  Q 88.49 200.51 91.56 199.59
  Q 101.86 196.47 106.15 205.32
  Q 106.68 206.40 107.00 208.33
  C 107.25 209.78 107.65 210.74 107.64 212.43
  Q 107.63 221.75 107.63 230.82
  Q 107.63 231.23 107.22 231.23
  L 103.54 231.23
  Q 103.18 231.23 103.18 230.87
  Q 103.19 213.88 103.20 212.25
  Q 103.22 208.10 100.85 205.26
  Q 99.25 203.34 95.80 203.28
  Q 90.43 203.19 86.94 206.91
  Q 85.54 208.41 85.61 210.51
  Q 85.64 211.58 85.63 230.89
  Q 85.63 231.25 85.27 231.25
  L 81.45 231.25
  A 0.27 0.27 0.0 0 1 81.18 230.98
  L 81.18 199.52
  Q 81.18 199.01 81.68 199.13
  Q 82.99 199.43 84.39 199.19
  A 0.73 0.72 -15.9 0 1 85.19 199.63
  Q 85.80 201.13 85.60 202.77
  Q 85.50 203.60 86.08 203.00
  Z"
/>
<path fill="#ffffff" d="
  M 118.34 215.01
  Q 118.34 217.66 118.85 218.75
  Q 123.14 227.91 133.01 226.53
  Q 133.62 226.44 136.41 225.24
  Q 139.19 224.04 141.58 226.30
  Q 141.94 226.64 141.57 226.97
  Q 136.62 231.32 130.09 231.23
  Q 124.74 231.15 120.66 228.06
  Q 115.98 224.52 114.47 219.41
  Q 114.12 218.23 114.11 215.01
  Q 114.11 211.79 114.46 210.61
  Q 115.97 205.50 120.64 201.96
  Q 124.72 198.86 130.07 198.77
  Q 136.60 198.68 141.56 203.02
  Q 141.93 203.35 141.57 203.69
  Q 139.18 205.95 136.40 204.76
  Q 133.61 203.56 133.00 203.47
  Q 123.12 202.10 118.84 211.27
  Q 118.34 212.36 118.34 215.01
  Z"
/>
<path fill="#ffffff" d="
  M 148.97 216.23
  Q 146.79 216.24 147.59 218.27
  Q 151.03 227.00 160.26 226.70
  Q 162.83 226.62 167.32 224.80
  Q 169.26 224.01 171.32 225.95
  Q 171.67 226.28 171.30 226.60
  Q 166.21 231.04 159.83 231.23
  Q 153.75 231.41 148.94 227.60
  Q 143.40 223.23 142.97 216.00
  Q 142.61 209.96 145.82 205.72
  Q 149.82 200.43 155.27 199.28
  Q 166.88 196.83 173.44 206.66
  Q 174.16 207.73 175.00 210.19
  C 176.07 213.28 174.79 216.28 171.25 216.27
  Q 156.09 216.21 148.97 216.23
  Z
  M 159.38 211.75
  Q 170.04 211.73 170.51 211.72
  Q 171.05 211.70 170.86 211.25
  Q 167.83 203.73 159.50 203.23
  Q 159.42 203.23 159.37 203.23
  Q 159.32 203.23 159.24 203.23
  Q 150.90 203.76 147.90 211.30
  Q 147.72 211.75 148.26 211.76
  Q 148.73 211.77 159.38 211.75
  Z"
/>
<path fill="#ffffff" d="
  M 334.91 228.58
  Q 330.38 232.33 324.97 232.24
  Q 317.21 232.12 314.59 224.91
  Q 314.05 223.41 313.60 221.18
  Q 313.32 219.80 313.32 217.32
  Q 313.30 207.06 313.32 199.19
  A 0.43 0.43 0.0 0 1 313.75 198.76
  L 317.30 198.76
  Q 317.77 198.76 317.76 199.23
  Q 317.75 202.05 317.69 217.53
  Q 317.68 220.76 318.88 223.65
  Q 320.64 227.87 325.54 227.76
  Q 330.55 227.65 333.83 224.08
  Q 335.19 222.60 335.30 220.52
  Q 335.40 218.63 335.36 199.14
  A 0.38 0.37 0.0 0 1 335.74 198.77
  L 339.54 198.77
  Q 339.81 198.77 339.81 199.04
  L 339.81 230.72
  Q 339.81 231.25 339.28 231.25
  L 336.30 231.25
  Q 335.81 231.25 335.65 230.78
  Q 335.35 229.96 335.38 228.80
  Q 335.39 228.18 334.91 228.58
  Z"
/>
<path fill="#ffffff" d="
  M 352.38 226.56
  Q 355.80 227.12 358.40 225.17
  Q 360.47 223.61 360.39 221.23
  Q 360.29 218.30 357.23 217.12
  Q 352.88 215.44 351.61 214.93
  Q 347.72 213.38 346.52 211.69
  Q 345.00 209.53 345.05 206.38
  Q 345.10 203.43 347.02 201.61
  Q 350.58 198.24 355.56 198.88
  Q 359.20 199.34 362.79 203.23
  Q 363.13 203.61 362.76 203.95
  C 359.34 207.10 358.14 203.77 355.21 203.42
  Q 352.52 203.11 350.85 204.39
  Q 349.21 205.65 349.53 207.50
  Q 349.92 209.75 352.19 210.61
  Q 357.63 212.66 359.32 213.45
  Q 364.13 215.69 364.79 220.21
  Q 365.37 224.11 362.79 227.27
  Q 360.30 230.33 355.77 231.06
  Q 348.83 232.17 344.30 226.63
  Q 343.88 226.11 344.43 225.75
  Q 346.91 224.14 349.13 225.15
  Q 352.10 226.51 352.38 226.56
  Z"
/>
<path fill="#ffffff" d="
  M 386.34 215.01
  Q 386.34 217.67 386.85 218.75
  Q 391.15 227.92 401.03 226.52
  Q 401.63 226.44 404.41 225.24
  Q 407.19 224.04 409.58 226.30
  Q 409.95 226.64 409.57 226.97
  Q 404.63 231.32 398.09 231.23
  Q 392.74 231.15 388.66 228.06
  Q 383.98 224.52 382.47 219.41
  Q 382.12 218.23 382.11 215.02
  Q 382.11 211.80 382.46 210.62
  Q 383.96 205.51 388.64 201.96
  Q 392.71 198.86 398.06 198.77
  Q 404.60 198.67 409.55 203.02
  Q 409.93 203.35 409.56 203.69
  Q 407.18 205.95 404.39 204.75
  Q 401.61 203.56 401.01 203.48
  Q 391.13 202.10 386.84 211.28
  Q 386.34 212.35 386.34 215.01
  Z"
/>
<path fill="#ffffff" d="
  M 433.32 227.81
  A 0.16 0.16 0.0 0 0 433.07 227.65
  Q 426.46 232.62 418.33 230.67
  C 413.10 229.42 409.86 223.86 412.24 218.68
  Q 414.05 214.75 419.22 213.52
  Q 425.44 212.05 432.73 213.40
  A 0.41 0.41 0.0 0 0 433.21 212.96
  Q 432.95 209.97 431.75 207.54
  Q 429.20 202.41 423.20 203.43
  Q 421.85 203.67 419.13 204.71
  Q 417.31 205.41 416.24 205.12
  Q 414.91 204.76 413.87 203.97
  Q 413.41 203.62 413.82 203.22
  Q 418.34 198.84 425.06 198.74
  Q 432.58 198.63 435.71 205.03
  Q 436.79 207.21 437.30 210.45
  Q 437.67 212.78 437.68 216.08
  Q 437.71 226.59 437.70 230.71
  Q 437.70 231.23 437.18 231.23
  L 434.26 231.23
  Q 433.64 231.23 433.49 230.64
  Q 433.12 229.07 433.32 227.81
  Z
  M 415.94 223.29
  Q 416.69 224.36 417.66 225.39
  Q 418.40 226.18 419.97 226.44
  Q 423.74 227.08 427.90 225.65
  Q 430.49 224.76 432.77 223.83
  Q 433.29 223.62 433.29 223.06
  L 433.29 218.26
  Q 433.29 217.83 432.87 217.76
  Q 426.87 216.75 421.38 217.66
  Q 419.05 218.04 417.86 219.00
  Q 416.35 220.21 415.80 222.52
  A 0.98 0.95 -56.0 0 0 415.94 223.29
  Z"
/>
<path fill="#ffffff" d="
  M 548.46 216.86
  Q 548.94 220.40 550.98 222.55
  Q 555.34 227.13 561.52 226.71
  Q 563.19 226.59 568.32 224.83
  Q 570.27 224.15 572.31 225.97
  Q 572.67 226.28 572.31 226.59
  Q 567.14 231.08 560.72 231.24
  Q 554.60 231.38 549.77 227.47
  Q 544.52 223.22 543.98 216.30
  Q 543.51 210.23 546.73 205.86
  Q 550.70 200.47 556.27 199.28
  Q 567.88 196.82 574.44 206.66
  Q 575.17 207.75 576.00 210.19
  C 577.07 213.29 575.81 216.26 572.25 216.25
  Q 554.75 216.23 548.97 216.28
  Q 548.39 216.28 548.46 216.86
  Z
  M 560.38 211.75
  Q 571.15 211.73 571.50 211.72
  Q 572.01 211.71 571.82 211.23
  Q 568.84 203.71 560.50 203.23
  Q 560.38 203.23 560.37 203.23
  Q 560.35 203.23 560.23 203.24
  Q 551.89 203.75 548.94 211.28
  Q 548.76 211.76 549.27 211.77
  Q 549.61 211.77 560.38 211.75
  Z"
/>
<path fill="#ffffff" d="
  M 601.31 227.79
  A 0.17 0.16 -16.6 0 0 601.04 227.65
  Q 596.44 231.30 589.97 231.23
  Q 587.52 231.20 585.22 230.32
  Q 582.96 229.46 581.42 227.55
  Q 577.21 222.35 581.70 216.46
  Q 583.17 214.54 587.63 213.44
  Q 593.07 212.10 600.74 213.39
  A 0.42 0.42 0.0 0 0 601.22 212.93
  Q 600.92 209.90 599.75 207.55
  Q 597.20 202.42 591.20 203.44
  Q 589.86 203.67 587.14 204.71
  Q 585.31 205.41 584.25 205.12
  Q 582.86 204.74 581.87 203.97
  Q 581.41 203.61 581.82 203.21
  Q 586.23 198.88 593.01 198.76
  Q 600.66 198.64 603.84 205.21
  Q 604.41 206.39 605.10 209.38
  Q 605.65 211.82 605.67 213.69
  Q 605.72 220.68 605.68 230.75
  Q 605.68 231.24 605.19 231.24
  L 602.26 231.24
  A 0.76 0.76 0.0 0 1 601.54 230.73
  Q 601.13 229.56 601.31 227.79
  Z
  M 601.28 217.99
  A 0.14 0.14 0.0 0 0 601.16 217.85
  Q 593.67 216.49 587.57 218.06
  Q 584.88 218.75 583.83 222.46
  Q 583.68 222.99 584.03 223.43
  C 585.41 225.17 585.89 226.11 588.03 226.46
  Q 591.85 227.07 596.08 225.59
  Q 598.66 224.69 600.84 223.80
  Q 601.28 223.62 601.28 223.14
  L 601.28 217.99
  Z"
/>
<path fill="#ffffff" d="
  M 638.13 203.58
  Q 639.34 201.92 640.27 201.30
  Q 645.71 197.72 652.30 199.23
  Q 652.79 199.35 652.75 199.85
  Q 652.60 201.66 651.75 202.66
  Q 651.25 203.25 649.18 203.26
  Q 643.50 203.28 639.71 207.47
  Q 638.74 208.53 638.64 209.27
  Q 638.54 209.99 638.10 210.59
  Q 637.87 210.90 637.87 211.95
  Q 637.85 224.18 637.88 230.93
  Q 637.88 231.25 637.57 231.25
  L 633.95 231.25
  Q 633.65 231.25 633.65 230.94
  L 633.65 199.68
  Q 633.65 199.27 634.06 199.27
  L 637.44 199.27
  A 0.43 0.42 -90.0 0 1 637.86 199.70
  L 637.86 203.49
  Q 637.86 203.96 638.13 203.58
  Z"
/>
<path fill="#ffffff" d="
  M 657.54 216.83
  Q 657.59 218.47 657.84 219.01
  Q 661.45 227.05 670.52 226.73
  Q 671.91 226.69 677.31 224.80
  Q 679.27 224.11 681.31 225.96
  Q 681.67 226.28 681.30 226.60
  Q 676.14 231.08 669.72 231.24
  Q 663.59 231.39 658.76 227.46
  Q 653.46 223.14 652.97 216.25
  Q 652.55 210.15 655.73 205.82
  Q 658.15 202.53 661.65 200.62
  Q 664.91 198.85 669.06 198.79
  Q 677.53 198.67 682.55 205.43
  Q 685.39 209.26 685.35 212.29
  Q 685.31 216.12 681.30 216.15
  Q 659.62 216.30 658.02 216.32
  Q 657.52 216.33 657.54 216.83
  Z
  M 669.38 211.75
  Q 680.31 211.73 680.52 211.72
  Q 681.04 211.69 680.84 211.21
  Q 677.80 203.73 669.50 203.23
  Q 669.40 203.23 669.36 203.23
  Q 669.33 203.23 669.23 203.24
  Q 660.93 203.76 657.92 211.26
  Q 657.72 211.74 658.25 211.76
  Q 658.46 211.77 669.38 211.75
  Z"
/>
<path fill="#ffffff" d="
  M 742.34 215.01
  Q 742.34 217.67 742.85 218.75
  Q 747.14 227.92 757.01 226.53
  Q 757.59 226.44 760.43 225.24
  Q 763.34 223.99 765.67 226.35
  Q 766.01 226.69 765.63 227.00
  Q 759.53 231.78 753.50 231.22
  Q 742.35 230.18 738.46 219.52
  Q 738.12 218.59 738.11 215.01
  Q 738.11 211.44 738.45 210.51
  Q 742.32 199.84 753.47 198.78
  Q 759.50 198.21 765.61 202.98
  Q 765.99 203.29 765.65 203.63
  Q 763.33 206.00 760.41 204.75
  Q 757.57 203.56 756.99 203.47
  Q 747.12 202.09 742.84 211.28
  Q 742.34 212.36 742.34 215.01
  Z"
/>
<path fill="#ffffff" d="
  M 835.8700 214.9713
  A 16.46 16.34 -0.1 0 1 819.4385 231.3400
  A 16.46 16.34 -0.1 0 1 802.9500 215.0287
  A 16.46 16.34 -0.1 0 1 819.3815 198.6600
  A 16.46 16.34 -0.1 0 1 835.8700 214.9713
  Z
  M 816.58 226.27
  Q 820.24 227.41 823.70 225.93
  Q 829.92 223.26 831.19 217.42
  Q 832.34 212.12 828.94 207.91
  Q 825.08 203.15 819.09 203.29
  Q 813.83 203.42 810.22 207.39
  Q 807.02 210.90 807.37 215.82
  Q 807.88 222.93 815.35 226.16
  Q 815.71 226.31 816.10 226.28
  Q 816.49 226.24 816.58 226.27
  Z"
/>
<path fill="#ffffff" d="
  M 872.8500 215.0287
  A 16.45 16.34 0.1 0 1 856.3715 231.3400
  A 16.45 16.34 0.1 0 1 839.9500 214.9713
  A 16.45 16.34 0.1 0 1 856.4285 198.6600
  A 16.45 16.34 0.1 0 1 872.8500 215.0287
  Z
  M 853.49 226.24
  Q 855.45 226.96 857.28 226.75
  Q 864.42 225.92 867.60 219.44
  Q 868.24 218.11 868.36 215.92
  Q 868.50 213.07 868.24 212.27
  Q 866.05 205.78 859.98 203.83
  Q 856.85 202.83 853.50 203.62
  Q 850.06 204.44 847.62 206.93
  Q 844.21 210.42 844.34 215.32
  Q 844.54 222.52 852.02 226.04
  Q 852.45 226.24 852.93 226.21
  Q 853.33 226.18 853.49 226.24
  Z"
/>
<rect fill="#ffffff" x="370.75" y="199.22" width="4.12" height="32.02" rx="0.27"/>
</svg>
